<?xml version="1.0" encoding="utf-8" standalone="no"?>
<!DOCTYPE svg PUBLIC "-//W3C//DTD SVG 1.1//EN"
  "http://www.w3.org/Graphics/SVG/1.1/DTD/svg11.dtd">
<!-- Created with matplotlib (https://matplotlib.org/) -->
<svg height="424.15625pt" version="1.1" viewBox="0 0 424.38125 424.15625" width="424.38125pt" xmlns="http://www.w3.org/2000/svg" xmlns:xlink="http://www.w3.org/1999/xlink">
 <defs>
  <style type="text/css">
*{stroke-linecap:butt;stroke-linejoin:round;}
  </style>
 </defs>
 <g id="figure_1">
  <g id="patch_1">
   <path d="M 0 424.15625 
L 424.38125 424.15625 
L 424.38125 0 
L 0 0 
z
" style="fill:none;"/>
  </g>
  <g id="axes_1">
   <g id="patch_2">
    <path d="M 43.78125 386.6 
L 417.18125 386.6 
L 417.18125 7.2 
L 43.78125 7.2 
z
" style="fill:#ffffff;"/>
   </g>
   <g id="matplotlib.axis_1">
    <g id="xtick_1">
     <g id="line2d_1">
      <defs>
       <path d="M 0 0 
L 0 3.5 
" id="md2c5f50039" style="stroke:#000000;stroke-width:0.8;"/>
      </defs>
      <g>
       <use style="stroke:#000000;stroke-width:0.8;" x="60.753977" xlink:href="#md2c5f50039" y="386.6"/>
      </g>
     </g>
     <g id="text_1">
      <!-- 0 -->
      <defs>
       <path d="M 31.78125 66.40625 
Q 24.171875 66.40625 20.328125 58.90625 
Q 16.5 51.421875 16.5 36.375 
Q 16.5 21.390625 20.328125 13.890625 
Q 24.171875 6.390625 31.78125 6.390625 
Q 39.453125 6.390625 43.28125 13.890625 
Q 47.125 21.390625 47.125 36.375 
Q 47.125 51.421875 43.28125 58.90625 
Q 39.453125 66.40625 31.78125 66.40625 
z
M 31.78125 74.21875 
Q 44.046875 74.21875 50.515625 64.515625 
Q 56.984375 54.828125 56.984375 36.375 
Q 56.984375 17.96875 50.515625 8.265625 
Q 44.046875 -1.421875 31.78125 -1.421875 
Q 19.53125 -1.421875 13.0625 8.265625 
Q 6.59375 17.96875 6.59375 36.375 
Q 6.59375 54.828125 13.0625 64.515625 
Q 19.53125 74.21875 31.78125 74.21875 
z
" id="DejaVuSans-48"/>
      </defs>
      <g transform="translate(57.572727 401.198438)scale(0.1 -0.1)">
       <use xlink:href="#DejaVuSans-48"/>
      </g>
     </g>
    </g>
    <g id="xtick_2">
     <g id="line2d_2">
      <g>
       <use style="stroke:#000000;stroke-width:0.8;" x="117.709438" xlink:href="#md2c5f50039" y="386.6"/>
      </g>
     </g>
     <g id="text_2">
      <!-- 50 -->
      <defs>
       <path d="M 10.796875 72.90625 
L 49.515625 72.90625 
L 49.515625 64.59375 
L 19.828125 64.59375 
L 19.828125 46.734375 
Q 21.96875 47.46875 24.109375 47.828125 
Q 26.265625 48.1875 28.421875 48.1875 
Q 40.625 48.1875 47.75 41.5 
Q 54.890625 34.8125 54.890625 23.390625 
Q 54.890625 11.625 47.5625 5.09375 
Q 40.234375 -1.421875 26.90625 -1.421875 
Q 22.3125 -1.421875 17.546875 -0.640625 
Q 12.796875 0.140625 7.71875 1.703125 
L 7.71875 11.625 
Q 12.109375 9.234375 16.796875 8.0625 
Q 21.484375 6.890625 26.703125 6.890625 
Q 35.15625 6.890625 40.078125 11.328125 
Q 45.015625 15.765625 45.015625 23.390625 
Q 45.015625 31 40.078125 35.4375 
Q 35.15625 39.890625 26.703125 39.890625 
Q 22.75 39.890625 18.8125 39.015625 
Q 14.890625 38.140625 10.796875 36.28125 
z
" id="DejaVuSans-53"/>
      </defs>
      <g transform="translate(111.346938 401.198438)scale(0.1 -0.1)">
       <use xlink:href="#DejaVuSans-53"/>
       <use x="63.623047" xlink:href="#DejaVuSans-48"/>
      </g>
     </g>
    </g>
    <g id="xtick_3">
     <g id="line2d_3">
      <g>
       <use style="stroke:#000000;stroke-width:0.8;" x="174.664899" xlink:href="#md2c5f50039" y="386.6"/>
      </g>
     </g>
     <g id="text_3">
      <!-- 100 -->
      <defs>
       <path d="M 12.40625 8.296875 
L 28.515625 8.296875 
L 28.515625 63.921875 
L 10.984375 60.40625 
L 10.984375 69.390625 
L 28.421875 72.90625 
L 38.28125 72.90625 
L 38.28125 8.296875 
L 54.390625 8.296875 
L 54.390625 0 
L 12.40625 0 
z
" id="DejaVuSans-49"/>
      </defs>
      <g transform="translate(165.121149 401.198438)scale(0.1 -0.1)">
       <use xlink:href="#DejaVuSans-49"/>
       <use x="63.623047" xlink:href="#DejaVuSans-48"/>
       <use x="127.246094" xlink:href="#DejaVuSans-48"/>
      </g>
     </g>
    </g>
    <g id="xtick_4">
     <g id="line2d_4">
      <g>
       <use style="stroke:#000000;stroke-width:0.8;" x="231.620359" xlink:href="#md2c5f50039" y="386.6"/>
      </g>
     </g>
     <g id="text_4">
      <!-- 150 -->
      <g transform="translate(222.076609 401.198438)scale(0.1 -0.1)">
       <use xlink:href="#DejaVuSans-49"/>
       <use x="63.623047" xlink:href="#DejaVuSans-53"/>
       <use x="127.246094" xlink:href="#DejaVuSans-48"/>
      </g>
     </g>
    </g>
    <g id="xtick_5">
     <g id="line2d_5">
      <g>
       <use style="stroke:#000000;stroke-width:0.8;" x="288.57582" xlink:href="#md2c5f50039" y="386.6"/>
      </g>
     </g>
     <g id="text_5">
      <!-- 200 -->
      <defs>
       <path d="M 19.1875 8.296875 
L 53.609375 8.296875 
L 53.609375 0 
L 7.328125 0 
L 7.328125 8.296875 
Q 12.9375 14.109375 22.625 23.890625 
Q 32.328125 33.6875 34.8125 36.53125 
Q 39.546875 41.84375 41.421875 45.53125 
Q 43.3125 49.21875 43.3125 52.78125 
Q 43.3125 58.59375 39.234375 62.25 
Q 35.15625 65.921875 28.609375 65.921875 
Q 23.96875 65.921875 18.8125 64.3125 
Q 13.671875 62.703125 7.8125 59.421875 
L 7.8125 69.390625 
Q 13.765625 71.78125 18.9375 73 
Q 24.125 74.21875 28.421875 74.21875 
Q 39.75 74.21875 46.484375 68.546875 
Q 53.21875 62.890625 53.21875 53.421875 
Q 53.21875 48.921875 51.53125 44.890625 
Q 49.859375 40.875 45.40625 35.40625 
Q 44.1875 33.984375 37.640625 27.21875 
Q 31.109375 20.453125 19.1875 8.296875 
z
" id="DejaVuSans-50"/>
      </defs>
      <g transform="translate(279.03207 401.198438)scale(0.1 -0.1)">
       <use xlink:href="#DejaVuSans-50"/>
       <use x="63.623047" xlink:href="#DejaVuSans-48"/>
       <use x="127.246094" xlink:href="#DejaVuSans-48"/>
      </g>
     </g>
    </g>
    <g id="xtick_6">
     <g id="line2d_6">
      <g>
       <use style="stroke:#000000;stroke-width:0.8;" x="345.531281" xlink:href="#md2c5f50039" y="386.6"/>
      </g>
     </g>
     <g id="text_6">
      <!-- 250 -->
      <g transform="translate(335.987531 401.198438)scale(0.1 -0.1)">
       <use xlink:href="#DejaVuSans-50"/>
       <use x="63.623047" xlink:href="#DejaVuSans-53"/>
       <use x="127.246094" xlink:href="#DejaVuSans-48"/>
      </g>
     </g>
    </g>
    <g id="xtick_7">
     <g id="line2d_7">
      <g>
       <use style="stroke:#000000;stroke-width:0.8;" x="402.486741" xlink:href="#md2c5f50039" y="386.6"/>
      </g>
     </g>
     <g id="text_7">
      <!-- 300 -->
      <defs>
       <path d="M 40.578125 39.3125 
Q 47.65625 37.796875 51.625 33 
Q 55.609375 28.21875 55.609375 21.1875 
Q 55.609375 10.40625 48.1875 4.484375 
Q 40.765625 -1.421875 27.09375 -1.421875 
Q 22.515625 -1.421875 17.65625 -0.515625 
Q 12.796875 0.390625 7.625 2.203125 
L 7.625 11.71875 
Q 11.71875 9.328125 16.59375 8.109375 
Q 21.484375 6.890625 26.8125 6.890625 
Q 36.078125 6.890625 40.9375 10.546875 
Q 45.796875 14.203125 45.796875 21.1875 
Q 45.796875 27.640625 41.28125 31.265625 
Q 36.765625 34.90625 28.71875 34.90625 
L 20.21875 34.90625 
L 20.21875 43.015625 
L 29.109375 43.015625 
Q 36.375 43.015625 40.234375 45.921875 
Q 44.09375 48.828125 44.09375 54.296875 
Q 44.09375 59.90625 40.109375 62.90625 
Q 36.140625 65.921875 28.71875 65.921875 
Q 24.65625 65.921875 20.015625 65.03125 
Q 15.375 64.15625 9.8125 62.3125 
L 9.8125 71.09375 
Q 15.4375 72.65625 20.34375 73.4375 
Q 25.25 74.21875 29.59375 74.21875 
Q 40.828125 74.21875 47.359375 69.109375 
Q 53.90625 64.015625 53.90625 55.328125 
Q 53.90625 49.265625 50.4375 45.09375 
Q 46.96875 40.921875 40.578125 39.3125 
z
" id="DejaVuSans-51"/>
      </defs>
      <g transform="translate(392.942991 401.198438)scale(0.1 -0.1)">
       <use xlink:href="#DejaVuSans-51"/>
       <use x="63.623047" xlink:href="#DejaVuSans-48"/>
       <use x="127.246094" xlink:href="#DejaVuSans-48"/>
      </g>
     </g>
    </g>
    <g id="text_8">
     <!-- Size -->
     <defs>
      <path d="M 53.515625 70.515625 
L 53.515625 60.890625 
Q 47.90625 63.578125 42.921875 64.890625 
Q 37.9375 66.21875 33.296875 66.21875 
Q 25.25 66.21875 20.875 63.09375 
Q 16.5 59.96875 16.5 54.203125 
Q 16.5 49.359375 19.40625 46.890625 
Q 22.3125 44.4375 30.421875 42.921875 
L 36.375 41.703125 
Q 47.40625 39.59375 52.65625 34.296875 
Q 57.90625 29 57.90625 20.125 
Q 57.90625 9.515625 50.796875 4.046875 
Q 43.703125 -1.421875 29.984375 -1.421875 
Q 24.8125 -1.421875 18.96875 -0.25 
Q 13.140625 0.921875 6.890625 3.21875 
L 6.890625 13.375 
Q 12.890625 10.015625 18.65625 8.296875 
Q 24.421875 6.59375 29.984375 6.59375 
Q 38.421875 6.59375 43.015625 9.90625 
Q 47.609375 13.234375 47.609375 19.390625 
Q 47.609375 24.75 44.3125 27.78125 
Q 41.015625 30.8125 33.5 32.328125 
L 27.484375 33.5 
Q 16.453125 35.6875 11.515625 40.375 
Q 6.59375 45.0625 6.59375 53.421875 
Q 6.59375 63.09375 13.40625 68.65625 
Q 20.21875 74.21875 32.171875 74.21875 
Q 37.3125 74.21875 42.625 73.28125 
Q 47.953125 72.359375 53.515625 70.515625 
z
" id="DejaVuSans-83"/>
      <path d="M 9.421875 54.6875 
L 18.40625 54.6875 
L 18.40625 0 
L 9.421875 0 
z
M 9.421875 75.984375 
L 18.40625 75.984375 
L 18.40625 64.59375 
L 9.421875 64.59375 
z
" id="DejaVuSans-105"/>
      <path d="M 5.515625 54.6875 
L 48.1875 54.6875 
L 48.1875 46.484375 
L 14.40625 7.171875 
L 48.1875 7.171875 
L 48.1875 0 
L 4.296875 0 
L 4.296875 8.203125 
L 38.09375 47.515625 
L 5.515625 47.515625 
z
" id="DejaVuSans-122"/>
      <path d="M 56.203125 29.59375 
L 56.203125 25.203125 
L 14.890625 25.203125 
Q 15.484375 15.921875 20.484375 11.0625 
Q 25.484375 6.203125 34.421875 6.203125 
Q 39.59375 6.203125 44.453125 7.46875 
Q 49.3125 8.734375 54.109375 11.28125 
L 54.109375 2.78125 
Q 49.265625 0.734375 44.1875 -0.34375 
Q 39.109375 -1.421875 33.890625 -1.421875 
Q 20.796875 -1.421875 13.15625 6.1875 
Q 5.515625 13.8125 5.515625 26.8125 
Q 5.515625 40.234375 12.765625 48.109375 
Q 20.015625 56 32.328125 56 
Q 43.359375 56 49.78125 48.890625 
Q 56.203125 41.796875 56.203125 29.59375 
z
M 47.21875 32.234375 
Q 47.125 39.59375 43.09375 43.984375 
Q 39.0625 48.390625 32.421875 48.390625 
Q 24.90625 48.390625 20.390625 44.140625 
Q 15.875 39.890625 15.1875 32.171875 
z
" id="DejaVuSans-101"/>
     </defs>
     <g transform="translate(220.217187 414.876562)scale(0.1 -0.1)">
      <use xlink:href="#DejaVuSans-83"/>
      <use x="63.476562" xlink:href="#DejaVuSans-105"/>
      <use x="91.259766" xlink:href="#DejaVuSans-122"/>
      <use x="143.75" xlink:href="#DejaVuSans-101"/>
     </g>
    </g>
   </g>
   <g id="matplotlib.axis_2">
    <g id="ytick_1">
     <g id="line2d_8">
      <defs>
       <path d="M 0 0 
L -3.5 0 
" id="mad5a274b56" style="stroke:#000000;stroke-width:0.8;"/>
      </defs>
      <g>
       <use style="stroke:#000000;stroke-width:0.8;" x="43.78125" xlink:href="#mad5a274b56" y="369.459866"/>
      </g>
     </g>
     <g id="text_9">
      <!-- 0.0 -->
      <defs>
       <path d="M 10.6875 12.40625 
L 21 12.40625 
L 21 0 
L 10.6875 0 
z
" id="DejaVuSans-46"/>
      </defs>
      <g transform="translate(20.878125 373.259085)scale(0.1 -0.1)">
       <use xlink:href="#DejaVuSans-48"/>
       <use x="63.623047" xlink:href="#DejaVuSans-46"/>
       <use x="95.410156" xlink:href="#DejaVuSans-48"/>
      </g>
     </g>
    </g>
    <g id="ytick_2">
     <g id="line2d_9">
      <g>
       <use style="stroke:#000000;stroke-width:0.8;" x="43.78125" xlink:href="#mad5a274b56" y="312.053046"/>
      </g>
     </g>
     <g id="text_10">
      <!-- 0.2 -->
      <g transform="translate(20.878125 315.852265)scale(0.1 -0.1)">
       <use xlink:href="#DejaVuSans-48"/>
       <use x="63.623047" xlink:href="#DejaVuSans-46"/>
       <use x="95.410156" xlink:href="#DejaVuSans-50"/>
      </g>
     </g>
    </g>
    <g id="ytick_3">
     <g id="line2d_10">
      <g>
       <use style="stroke:#000000;stroke-width:0.8;" x="43.78125" xlink:href="#mad5a274b56" y="254.646226"/>
      </g>
     </g>
     <g id="text_11">
      <!-- 0.4 -->
      <defs>
       <path d="M 37.796875 64.3125 
L 12.890625 25.390625 
L 37.796875 25.390625 
z
M 35.203125 72.90625 
L 47.609375 72.90625 
L 47.609375 25.390625 
L 58.015625 25.390625 
L 58.015625 17.1875 
L 47.609375 17.1875 
L 47.609375 0 
L 37.796875 0 
L 37.796875 17.1875 
L 4.890625 17.1875 
L 4.890625 26.703125 
z
" id="DejaVuSans-52"/>
      </defs>
      <g transform="translate(20.878125 258.445445)scale(0.1 -0.1)">
       <use xlink:href="#DejaVuSans-48"/>
       <use x="63.623047" xlink:href="#DejaVuSans-46"/>
       <use x="95.410156" xlink:href="#DejaVuSans-52"/>
      </g>
     </g>
    </g>
    <g id="ytick_4">
     <g id="line2d_11">
      <g>
       <use style="stroke:#000000;stroke-width:0.8;" x="43.78125" xlink:href="#mad5a274b56" y="197.239407"/>
      </g>
     </g>
     <g id="text_12">
      <!-- 0.6 -->
      <defs>
       <path d="M 33.015625 40.375 
Q 26.375 40.375 22.484375 35.828125 
Q 18.609375 31.296875 18.609375 23.390625 
Q 18.609375 15.53125 22.484375 10.953125 
Q 26.375 6.390625 33.015625 6.390625 
Q 39.65625 6.390625 43.53125 10.953125 
Q 47.40625 15.53125 47.40625 23.390625 
Q 47.40625 31.296875 43.53125 35.828125 
Q 39.65625 40.375 33.015625 40.375 
z
M 52.59375 71.296875 
L 52.59375 62.3125 
Q 48.875 64.0625 45.09375 64.984375 
Q 41.3125 65.921875 37.59375 65.921875 
Q 27.828125 65.921875 22.671875 59.328125 
Q 17.53125 52.734375 16.796875 39.40625 
Q 19.671875 43.65625 24.015625 45.921875 
Q 28.375 48.1875 33.59375 48.1875 
Q 44.578125 48.1875 50.953125 41.515625 
Q 57.328125 34.859375 57.328125 23.390625 
Q 57.328125 12.15625 50.6875 5.359375 
Q 44.046875 -1.421875 33.015625 -1.421875 
Q 20.359375 -1.421875 13.671875 8.265625 
Q 6.984375 17.96875 6.984375 36.375 
Q 6.984375 53.65625 15.1875 63.9375 
Q 23.390625 74.21875 37.203125 74.21875 
Q 40.921875 74.21875 44.703125 73.484375 
Q 48.484375 72.75 52.59375 71.296875 
z
" id="DejaVuSans-54"/>
      </defs>
      <g transform="translate(20.878125 201.038625)scale(0.1 -0.1)">
       <use xlink:href="#DejaVuSans-48"/>
       <use x="63.623047" xlink:href="#DejaVuSans-46"/>
       <use x="95.410156" xlink:href="#DejaVuSans-54"/>
      </g>
     </g>
    </g>
    <g id="ytick_5">
     <g id="line2d_12">
      <g>
       <use style="stroke:#000000;stroke-width:0.8;" x="43.78125" xlink:href="#mad5a274b56" y="139.832587"/>
      </g>
     </g>
     <g id="text_13">
      <!-- 0.8 -->
      <defs>
       <path d="M 31.78125 34.625 
Q 24.75 34.625 20.71875 30.859375 
Q 16.703125 27.09375 16.703125 20.515625 
Q 16.703125 13.921875 20.71875 10.15625 
Q 24.75 6.390625 31.78125 6.390625 
Q 38.8125 6.390625 42.859375 10.171875 
Q 46.921875 13.96875 46.921875 20.515625 
Q 46.921875 27.09375 42.890625 30.859375 
Q 38.875 34.625 31.78125 34.625 
z
M 21.921875 38.8125 
Q 15.578125 40.375 12.03125 44.71875 
Q 8.5 49.078125 8.5 55.328125 
Q 8.5 64.0625 14.71875 69.140625 
Q 20.953125 74.21875 31.78125 74.21875 
Q 42.671875 74.21875 48.875 69.140625 
Q 55.078125 64.0625 55.078125 55.328125 
Q 55.078125 49.078125 51.53125 44.71875 
Q 48 40.375 41.703125 38.8125 
Q 48.828125 37.15625 52.796875 32.3125 
Q 56.78125 27.484375 56.78125 20.515625 
Q 56.78125 9.90625 50.3125 4.234375 
Q 43.84375 -1.421875 31.78125 -1.421875 
Q 19.734375 -1.421875 13.25 4.234375 
Q 6.78125 9.90625 6.78125 20.515625 
Q 6.78125 27.484375 10.78125 32.3125 
Q 14.796875 37.15625 21.921875 38.8125 
z
M 18.3125 54.390625 
Q 18.3125 48.734375 21.84375 45.5625 
Q 25.390625 42.390625 31.78125 42.390625 
Q 38.140625 42.390625 41.71875 45.5625 
Q 45.3125 48.734375 45.3125 54.390625 
Q 45.3125 60.0625 41.71875 63.234375 
Q 38.140625 66.40625 31.78125 66.40625 
Q 25.390625 66.40625 21.84375 63.234375 
Q 18.3125 60.0625 18.3125 54.390625 
z
" id="DejaVuSans-56"/>
      </defs>
      <g transform="translate(20.878125 143.631806)scale(0.1 -0.1)">
       <use xlink:href="#DejaVuSans-48"/>
       <use x="63.623047" xlink:href="#DejaVuSans-46"/>
       <use x="95.410156" xlink:href="#DejaVuSans-56"/>
      </g>
     </g>
    </g>
    <g id="ytick_6">
     <g id="line2d_13">
      <g>
       <use style="stroke:#000000;stroke-width:0.8;" x="43.78125" xlink:href="#mad5a274b56" y="82.425767"/>
      </g>
     </g>
     <g id="text_14">
      <!-- 1.0 -->
      <g transform="translate(20.878125 86.224986)scale(0.1 -0.1)">
       <use xlink:href="#DejaVuSans-49"/>
       <use x="63.623047" xlink:href="#DejaVuSans-46"/>
       <use x="95.410156" xlink:href="#DejaVuSans-48"/>
      </g>
     </g>
    </g>
    <g id="ytick_7">
     <g id="line2d_14">
      <g>
       <use style="stroke:#000000;stroke-width:0.8;" x="43.78125" xlink:href="#mad5a274b56" y="25.018947"/>
      </g>
     </g>
     <g id="text_15">
      <!-- 1.2 -->
      <g transform="translate(20.878125 28.818166)scale(0.1 -0.1)">
       <use xlink:href="#DejaVuSans-49"/>
       <use x="63.623047" xlink:href="#DejaVuSans-46"/>
       <use x="95.410156" xlink:href="#DejaVuSans-50"/>
      </g>
     </g>
    </g>
    <g id="text_16">
     <!-- Time -->
     <defs>
      <path d="M -0.296875 72.90625 
L 61.375 72.90625 
L 61.375 64.59375 
L 35.5 64.59375 
L 35.5 0 
L 25.59375 0 
L 25.59375 64.59375 
L -0.296875 64.59375 
z
" id="DejaVuSans-84"/>
      <path d="M 52 44.1875 
Q 55.375 50.25 60.0625 53.125 
Q 64.75 56 71.09375 56 
Q 79.640625 56 84.28125 50.015625 
Q 88.921875 44.046875 88.921875 33.015625 
L 88.921875 0 
L 79.890625 0 
L 79.890625 32.71875 
Q 79.890625 40.578125 77.09375 44.375 
Q 74.3125 48.1875 68.609375 48.1875 
Q 61.625 48.1875 57.5625 43.546875 
Q 53.515625 38.921875 53.515625 30.90625 
L 53.515625 0 
L 44.484375 0 
L 44.484375 32.71875 
Q 44.484375 40.625 41.703125 44.40625 
Q 38.921875 48.1875 33.109375 48.1875 
Q 26.21875 48.1875 22.15625 43.53125 
Q 18.109375 38.875 18.109375 30.90625 
L 18.109375 0 
L 9.078125 0 
L 9.078125 54.6875 
L 18.109375 54.6875 
L 18.109375 46.1875 
Q 21.1875 51.21875 25.484375 53.609375 
Q 29.78125 56 35.6875 56 
Q 41.65625 56 45.828125 52.96875 
Q 50 49.953125 52 44.1875 
z
" id="DejaVuSans-109"/>
     </defs>
     <g transform="translate(14.798438 209.133594)rotate(-90)scale(0.1 -0.1)">
      <use xlink:href="#DejaVuSans-84"/>
      <use x="57.958984" xlink:href="#DejaVuSans-105"/>
      <use x="85.742188" xlink:href="#DejaVuSans-109"/>
      <use x="183.154297" xlink:href="#DejaVuSans-101"/>
     </g>
    </g>
   </g>
   <g id="line2d_15">
    <path clip-path="url(#p31d5ada751)" d="M 60.753977 369.24772 
L 66.449523 369.250594 
L 69.866851 369.181749 
L 71.00596 369.177985 
L 72.145069 369.005736 
L 75.562397 368.980484 
L 76.701506 368.754856 
L 77.840615 368.898363 
L 78.979725 368.841083 
L 81.257943 368.435747 
L 82.397052 368.571726 
L 85.81438 368.464147 
L 86.953489 368.366081 
L 88.092598 368.396055 
L 92.649035 367.788222 
L 94.927254 367.976211 
L 97.205472 367.540764 
L 98.344581 367.454331 
L 99.483691 367.189764 
L 100.6228 367.163349 
L 101.761909 367.32896 
L 102.901018 367.129474 
L 104.040127 366.656456 
L 106.318346 366.48626 
L 107.457455 366.098306 
L 108.596564 366.090368 
L 109.735673 366.335294 
L 110.874783 365.197096 
L 112.013892 365.615982 
L 113.153001 365.287224 
L 115.431219 365.183956 
L 116.570329 365.724382 
L 117.709438 364.580298 
L 118.848547 363.896297 
L 119.987656 364.1842 
L 121.126766 364.219717 
L 122.265875 363.743278 
L 123.404984 363.827589 
L 124.544093 363.595529 
L 125.683202 363.194778 
L 126.822312 363.333152 
L 127.961421 362.39396 
L 129.10053 362.459109 
L 130.239639 362.260171 
L 132.517858 361.431227 
L 133.656967 360.483754 
L 134.796076 361.775109 
L 135.935185 361.47174 
L 137.074295 360.596534 
L 138.213404 360.0661 
L 139.352513 360.438382 
L 140.491622 358.563763 
L 141.630731 359.2776 
L 142.769841 359.193837 
L 143.90895 358.213242 
L 145.048059 359.575016 
L 147.326277 358.023337 
L 148.465387 359.014128 
L 149.604496 357.264675 
L 150.743605 356.005964 
L 151.882714 356.220984 
L 153.021824 357.382929 
L 154.160933 356.603326 
L 155.300042 355.44446 
L 156.439151 356.209761 
L 157.57826 357.51665 
L 158.71737 352.835131 
L 159.856479 353.91037 
L 160.995588 354.121079 
L 162.134697 351.454196 
L 163.273806 354.331446 
L 164.412916 351.86179 
L 165.552025 350.599109 
L 166.691134 353.592972 
L 167.830243 349.968214 
L 168.969353 349.765375 
L 170.108462 347.401861 
L 171.247571 349.317267 
L 172.38668 350.105151 
L 173.525789 349.44873 
L 174.664899 345.629961 
L 175.804008 348.5339 
L 176.943117 345.617643 
L 178.082226 347.24891 
L 179.221335 345.157491 
L 180.360445 346.6226 
L 181.499554 344.09457 
L 182.638663 342.969853 
L 183.777772 344.022919 
L 184.916881 342.311857 
L 186.055991 343.802766 
L 187.1951 340.633849 
L 188.334209 341.238397 
L 189.473318 339.685761 
L 190.612428 338.807476 
L 191.751537 341.515693 
L 192.890646 338.879195 
L 194.029755 339.976333 
L 195.168864 339.866633 
L 196.307974 339.132675 
L 197.447083 337.94233 
L 198.586192 336.302918 
L 199.725301 331.56761 
L 200.86441 329.633315 
L 202.00352 335.842766 
L 203.142629 336.690667 
L 204.281738 332.098317 
L 205.420847 328.146786 
L 206.559957 330.421541 
L 207.699066 330.750436 
L 208.838175 327.28253 
L 209.977284 328.272431 
L 211.116393 328.09594 
L 212.255503 325.864846 
L 213.394612 331.228655 
L 214.533721 325.031522 
L 215.67283 321.890594 
L 216.811939 327.06662 
L 217.951049 322.090901 
L 219.090158 323.366242 
L 220.229267 315.207578 
L 221.368376 316.054589 
L 222.507486 317.321786 
L 223.646595 319.065628 
L 224.785704 314.262296 
L 225.924813 320.561259 
L 227.063922 315.250076 
L 228.203032 318.280892 
L 229.342141 314.886964 
L 230.48125 316.969692 
L 231.620359 304.919103 
L 232.759468 313.006869 
L 233.898578 307.682341 
L 235.037687 306.342809 
L 236.176796 294.434974 
L 237.315905 302.585494 
L 238.455014 306.401389 
L 239.594124 301.839219 
L 240.733233 301.729313 
L 241.872342 301.033268 
L 243.011451 302.839249 
L 244.150561 299.454558 
L 246.428779 300.534109 
L 247.567888 299.070505 
L 248.706997 300.813663 
L 249.846107 299.893154 
L 250.985216 298.701645 
L 252.124325 301.733556 
L 253.263434 286.969138 
L 254.402543 295.631821 
L 255.541653 291.56224 
L 256.680762 297.078179 
L 257.819871 289.256758 
L 258.95898 295.313875 
L 260.09809 288.035754 
L 261.237199 289.695422 
L 262.376308 293.287879 
L 263.515417 282.087243 
L 264.654526 285.412532 
L 265.793636 287.873291 
L 266.932745 285.310907 
L 268.071854 289.349829 
L 269.210963 279.695329 
L 270.350072 281.624627 
L 271.489182 287.156853 
L 272.628291 264.579569 
L 273.7674 266.669209 
L 274.906509 256.827678 
L 276.045619 266.740997 
L 277.184728 260.093771 
L 278.323837 258.055389 
L 279.462946 261.980778 
L 280.602055 263.055127 
L 281.741165 253.563295 
L 282.880274 249.129713 
L 284.019383 259.889701 
L 285.158492 254.011608 
L 286.297601 242.017272 
L 287.436711 256.856968 
L 288.57582 249.261723 
L 289.714929 247.85184 
L 290.854038 252.634232 
L 291.993147 240.769578 
L 293.132257 258.365122 
L 294.271366 246.926404 
L 295.410475 239.296873 
L 296.549584 242.75034 
L 297.688694 233.588566 
L 298.827803 243.887375 
L 299.966912 227.468148 
L 301.106021 241.505247 
L 302.24513 213.964836 
L 303.38424 233.17406 
L 304.523349 234.329298 
L 305.662458 226.284988 
L 306.801567 232.183747 
L 309.079786 207.930234 
L 310.218895 230.092465 
L 311.358004 209.233154 
L 312.497113 197.413599 
L 313.636223 219.805427 
L 314.775332 224.961469 
L 315.914441 206.517204 
L 317.05355 215.566198 
L 318.192659 197.398407 
L 320.470878 211.053163 
L 321.609987 179.943838 
L 322.749096 189.95139 
L 323.888205 203.707977 
L 325.027315 205.366824 
L 326.166424 192.310456 
L 327.305533 188.962173 
L 328.444642 206.786766 
L 329.583752 191.350392 
L 330.722861 183.179615 
L 331.86197 150.292435 
L 333.001079 182.937973 
L 334.140188 173.601008 
L 335.279298 178.061211 
L 336.418407 162.400099 
L 337.557516 177.301454 
L 338.696625 177.101694 
L 340.974844 154.961568 
L 342.113953 184.539267 
L 343.253062 164.442314 
L 344.392171 136.72199 
L 345.531281 157.24433 
L 346.67039 149.276323 
L 347.809499 166.860849 
L 348.948608 155.147299 
L 350.087717 141.500275 
L 351.226827 155.07469 
L 352.365936 132.813161 
L 353.505045 151.627656 
L 354.644154 135.796553 
L 355.783263 139.94538 
L 356.922373 130.04041 
L 358.061482 149.545749 
L 359.200591 133.430849 
L 360.3397 124.907635 
L 361.478809 148.477764 
L 362.617919 136.431555 
L 363.757028 130.071411 
L 364.896137 122.014919 
L 366.035246 136.514976 
L 367.174356 121.702106 
L 368.313465 118.303045 
L 369.452574 106.099779 
L 370.591683 98.414406 
L 371.730792 129.428129 
L 372.869902 89.488525 
L 374.009011 106.491291 
L 375.14812 89.53814 
L 376.287229 104.577664 
L 377.426338 78.014974 
L 378.565448 85.787532 
L 379.704557 81.9444 
L 380.843666 75.842596 
L 381.982775 108.27113 
L 383.121885 88.607913 
L 384.260994 91.853134 
L 385.400103 78.910983 
L 386.539212 68.629215 
L 387.678321 62.384793 
L 388.817431 24.445455 
L 389.95654 87.800526 
L 391.095649 49.166305 
L 392.234758 70.021031 
L 393.373867 83.913733 
L 394.512977 66.706622 
L 395.652086 76.466375 
L 396.791195 56.865776 
L 397.930304 68.333852 
L 399.069414 43.528896 
L 400.208523 29.153116 
L 400.208523 29.153116 
" style="fill:none;stroke:#1f77b4;stroke-linecap:square;stroke-width:1.5;"/>
   </g>
   <g id="line2d_16">
    <path clip-path="url(#p31d5ada751)" d="M 60.753977 369.322997 
L 71.00596 369.217608 
L 76.701506 369.001219 
L 80.118834 368.809124 
L 82.397052 368.783051 
L 83.536162 368.595062 
L 85.81438 368.567483 
L 86.953489 368.282454 
L 88.092598 368.333233 
L 89.231708 368.158109 
L 90.370817 368.146133 
L 91.509926 367.897922 
L 92.649035 368.10302 
L 93.788144 367.981891 
L 94.927254 367.739155 
L 97.205472 367.661277 
L 98.344581 367.510653 
L 99.483691 367.751404 
L 100.6228 367.282698 
L 101.761909 367.326633 
L 102.901018 367.036677 
L 104.040127 367.004787 
L 105.179237 366.810502 
L 106.318346 366.86566 
L 107.457455 366.559416 
L 108.596564 366.600409 
L 109.735673 366.189666 
L 112.013892 365.979025 
L 113.153001 366.061968 
L 114.29211 365.987922 
L 115.431219 365.671345 
L 116.570329 365.472064 
L 117.709438 365.395487 
L 118.848547 364.925275 
L 119.987656 365.044077 
L 122.265875 364.415166 
L 123.404984 364.420709 
L 124.544093 364.57715 
L 126.822312 363.63741 
L 127.961421 363.679292 
L 130.239639 362.758167 
L 131.378748 362.811819 
L 132.517858 363.008773 
L 133.656967 362.37165 
L 134.796076 362.115501 
L 137.074295 362.415106 
L 138.213404 361.668078 
L 139.352513 361.883303 
L 140.491622 361.46079 
L 141.630731 361.319816 
L 142.769841 360.834548 
L 143.90895 360.040232 
L 145.048059 360.185518 
L 146.187168 360.150753 
L 147.326277 360.33881 
L 148.465387 359.693818 
L 149.604496 359.430619 
L 150.743605 359.412484 
L 151.882714 359.257823 
L 153.021824 358.680922 
L 154.160933 358.335534 
L 155.300042 358.273943 
L 156.439151 358.579502 
L 158.71737 357.598771 
L 159.856479 356.802812 
L 160.995588 357.00223 
L 162.134697 356.821016 
L 163.273806 356.315697 
L 164.412916 356.414516 
L 165.552025 355.975853 
L 166.691134 356.242541 
L 167.830243 354.861264 
L 168.969353 355.280697 
L 170.108462 354.690246 
L 171.247571 354.598408 
L 172.38668 354.274029 
L 173.525789 352.944488 
L 174.664899 352.921768 
L 176.943117 352.438417 
L 178.082226 352.125604 
L 179.221335 351.311647 
L 180.360445 352.178709 
L 181.499554 350.817894 
L 182.638663 350.351993 
L 183.777772 350.772522 
L 184.916881 348.883531 
L 186.055991 348.79833 
L 187.1951 349.487737 
L 188.334209 348.760418 
L 189.473318 348.518434 
L 190.612428 347.72706 
L 191.751537 347.281895 
L 192.890646 347.288465 
L 194.029755 345.183701 
L 195.168864 340.355732 
L 196.307974 345.303393 
L 197.447083 344.765773 
L 198.586192 345.564948 
L 199.725301 344.079651 
L 200.86441 344.076298 
L 203.142629 342.782616 
L 204.281738 341.019681 
L 205.420847 342.198188 
L 206.559957 342.929887 
L 207.699066 341.190836 
L 208.838175 341.863202 
L 209.977284 340.478914 
L 211.116393 340.779956 
L 212.255503 340.215989 
L 213.394612 340.072962 
L 214.533721 339.361793 
L 215.67283 339.508995 
L 216.811939 338.536544 
L 217.951049 339.09969 
L 219.090158 338.443474 
L 220.229267 336.963035 
L 221.368376 335.015465 
L 222.507486 335.129408 
L 223.646595 336.309967 
L 224.785704 336.056008 
L 225.924813 334.0786 
L 227.063922 335.708704 
L 228.203032 333.831415 
L 229.342141 333.944537 
L 230.48125 333.894101 
L 231.620359 332.380746 
L 232.759468 332.076076 
L 233.898578 330.482311 
L 235.037687 329.235028 
L 236.176796 329.025345 
L 237.315905 329.125259 
L 238.455014 327.739465 
L 239.594124 328.135015 
L 240.733233 326.353945 
L 241.872342 327.624975 
L 243.011451 327.045131 
L 244.150561 326.328351 
L 245.28967 325.91884 
L 246.428779 324.968494 
L 247.567888 323.721827 
L 248.706997 323.467799 
L 249.846107 321.080196 
L 250.985216 323.207749 
L 252.124325 321.295832 
L 253.263434 321.424694 
L 254.402543 320.492756 
L 255.541653 320.764851 
L 256.680762 319.490605 
L 257.819871 317.850783 
L 258.95898 317.320965 
L 260.09809 315.939209 
L 261.237199 314.967853 
L 262.376308 317.612016 
L 263.515417 316.409968 
L 264.654526 316.884902 
L 265.793636 315.062566 
L 266.932745 315.329596 
L 268.071854 314.614869 
L 269.210963 312.283177 
L 270.350072 311.050813 
L 271.489182 311.277809 
L 272.628291 310.899162 
L 274.906509 309.942862 
L 276.045619 309.569895 
L 277.184728 308.930993 
L 278.323837 303.570263 
L 279.462946 305.044543 
L 280.602055 304.395238 
L 281.741165 302.365684 
L 282.880274 298.419217 
L 284.019383 299.784891 
L 285.158492 297.948457 
L 286.297601 301.98163 
L 287.436711 301.087742 
L 288.57582 299.876182 
L 289.714929 299.155432 
L 290.854038 300.534109 
L 291.993147 297.68259 
L 293.132257 297.677184 
L 294.271366 297.944762 
L 295.410475 296.293375 
L 296.549584 296.984355 
L 297.688694 295.20787 
L 298.827803 292.059963 
L 299.966912 293.403875 
L 301.106021 293.801478 
L 302.24513 293.982213 
L 303.38424 289.825721 
L 304.523349 292.824852 
L 305.662458 288.513426 
L 306.801567 287.448794 
L 307.940676 286.626351 
L 310.218895 279.792437 
L 311.358004 285.688391 
L 312.497113 285.831624 
L 313.636223 284.696094 
L 314.775332 283.040806 
L 315.914441 283.591633 
L 317.05355 271.892044 
L 318.192659 280.499089 
L 319.331769 272.45471 
L 320.470878 276.53565 
L 321.609987 278.352375 
L 322.749096 275.91372 
L 323.888205 276.862629 
L 325.027315 275.840221 
L 326.166424 274.092 
L 327.305533 272.69293 
L 328.444642 271.973001 
L 329.583752 272.827198 
L 330.722861 272.00147 
L 331.86197 270.657832 
L 333.001079 270.323462 
L 334.140188 268.223557 
L 335.279298 264.80944 
L 336.418407 262.609689 
L 337.557516 256.040068 
L 338.696625 256.562427 
L 339.835734 256.677602 
L 340.974844 241.299396 
L 342.113953 238.706628 
L 343.253062 255.543783 
L 344.392171 259.291311 
L 345.531281 257.069388 
L 346.67039 258.427055 
L 347.809499 259.458017 
L 348.948608 252.178117 
L 350.087717 243.281047 
L 351.226827 251.348489 
L 352.365936 251.760121 
L 353.505045 246.60839 
L 354.644154 249.509181 
L 355.783263 250.885189 
L 356.922373 247.015163 
L 358.061482 240.211292 
L 359.200591 244.538595 
L 360.3397 245.663791 
L 361.478809 245.47635 
L 362.617919 240.214713 
L 363.757028 237.072828 
L 364.896137 240.178306 
L 366.035246 231.436651 
L 367.174356 240.406466 
L 368.313465 235.447583 
L 369.452574 232.492044 
L 370.591683 238.367673 
L 371.730792 234.657509 
L 372.869902 229.77931 
L 374.009011 236.360975 
L 375.14812 234.599545 
L 377.426338 225.001366 
L 378.565448 228.460102 
L 379.704557 221.056268 
L 380.843666 228.046691 
L 381.982775 226.827261 
L 383.121885 222.923497 
L 384.260994 217.185626 
L 385.400103 214.387965 
L 386.539212 221.316387 
L 387.678321 222.220266 
L 388.817431 220.136443 
L 389.95654 219.60074 
L 391.095649 215.979267 
L 392.234758 214.131063 
L 393.373867 217.870311 
L 394.512977 213.74961 
L 395.652086 214.371541 
L 396.791195 208.936081 
L 397.930304 206.645518 
L 399.069414 208.278702 
L 400.208523 209.593324 
L 400.208523 209.593324 
" style="fill:none;stroke:#ff7f0e;stroke-linecap:square;stroke-width:1.5;"/>
   </g>
   <g id="line2d_17">
    <path clip-path="url(#p31d5ada751)" d="M 60.753977 369.354545 
L 66.449523 369.257163 
L 73.284179 369.035026 
L 76.701506 368.764642 
L 78.979725 368.556807 
L 80.118834 368.553659 
L 82.397052 368.400709 
L 83.536162 368.485909 
L 85.81438 368.042455 
L 89.231708 367.90764 
L 90.370817 367.665656 
L 91.509926 367.620284 
L 93.788144 367.165607 
L 94.927254 367.253477 
L 96.066363 367.09642 
L 97.205472 366.801332 
L 98.344581 366.87572 
L 99.483691 366.78785 
L 101.761909 366.083456 
L 102.901018 366.150043 
L 105.179237 365.918119 
L 107.457455 365.18512 
L 109.735673 364.808457 
L 110.874783 364.5378 
L 112.013892 364.457732 
L 113.153001 364.230393 
L 114.29211 364.33236 
L 116.570329 363.640764 
L 117.709438 363.815682 
L 118.848547 363.15707 
L 119.987656 363.108961 
L 121.126766 362.933632 
L 122.265875 362.129256 
L 123.404984 362.315808 
L 125.683202 361.645015 
L 126.822312 361.62469 
L 127.961421 361.310988 
L 129.10053 360.818056 
L 130.239639 360.981545 
L 131.378748 359.789352 
L 133.656967 359.794895 
L 134.796076 359.049372 
L 135.935185 358.996062 
L 137.074295 358.671957 
L 138.213404 358.466518 
L 139.352513 358.800271 
L 140.491622 357.911037 
L 141.630731 357.321133 
L 142.769841 357.429123 
L 143.90895 357.145531 
L 145.048059 356.599631 
L 146.187168 356.462078 
L 147.326277 355.824339 
L 148.465387 354.809322 
L 149.604496 355.395188 
L 150.743605 354.579109 
L 151.882714 354.0651 
L 153.021824 352.68307 
L 154.160933 353.327104 
L 155.300042 353.421886 
L 156.439151 353.0314 
L 157.57826 352.32858 
L 158.71737 351.835922 
L 159.856479 351.676744 
L 160.995588 351.168277 
L 162.134697 350.531975 
L 163.273806 350.798322 
L 165.552025 349.082196 
L 166.691134 348.812086 
L 167.830243 349.280518 
L 168.969353 347.945503 
L 170.108462 345.417541 
L 171.247571 346.884429 
L 172.38668 346.857056 
L 173.525789 345.60594 
L 175.804008 346.0238 
L 176.943117 344.177307 
L 178.082226 343.946546 
L 179.221335 343.146071 
L 180.360445 343.84718 
L 181.499554 342.401711 
L 182.638663 340.546322 
L 183.777772 341.700534 
L 184.916881 341.631894 
L 186.055991 339.580167 
L 187.1951 339.05555 
L 188.334209 340.591283 
L 189.473318 338.054904 
L 190.612428 337.158757 
L 191.751537 337.982295 
L 192.890646 337.677489 
L 194.029755 335.338406 
L 195.168864 336.101311 
L 196.307974 335.009716 
L 197.447083 335.141794 
L 199.725301 331.939002 
L 200.86441 333.568285 
L 202.00352 332.802164 
L 203.142629 332.805312 
L 204.281738 331.821022 
L 205.420847 331.344035 
L 206.559957 328.338813 
L 207.699066 328.341071 
L 208.838175 329.420553 
L 209.977284 329.058741 
L 211.116393 327.006124 
L 212.255503 327.145867 
L 213.394612 327.461554 
L 214.533721 325.553196 
L 215.67283 324.706117 
L 216.811939 323.634847 
L 217.951049 324.444972 
L 219.090158 323.200563 
L 220.229267 322.818837 
L 221.368376 321.061855 
L 222.507486 320.152569 
L 223.646595 318.876407 
L 224.785704 316.996039 
L 225.924813 319.003011 
L 227.063922 317.018486 
L 228.203032 315.669372 
L 229.342141 316.548274 
L 231.620359 315.921621 
L 232.759468 314.572645 
L 233.898578 315.222497 
L 235.037687 312.453441 
L 237.315905 310.713774 
L 238.455014 308.505879 
L 239.594124 307.139315 
L 240.733233 305.956977 
L 241.872342 304.096523 
L 243.011451 307.267903 
L 244.150561 304.58528 
L 245.28967 304.289371 
L 246.428779 305.104217 
L 247.567888 304.336111 
L 248.706997 300.23902 
L 249.846107 300.031459 
L 250.985216 300.624237 
L 253.263434 296.274487 
L 254.402543 294.548027 
L 255.541653 296.843312 
L 256.680762 296.850909 
L 257.819871 295.409957 
L 258.95898 295.093654 
L 260.09809 295.726055 
L 261.237199 293.138897 
L 262.376308 292.515803 
L 264.654526 290.333503 
L 265.793636 290.41754 
L 266.932745 287.611804 
L 268.071854 288.611766 
L 269.210963 286.681577 
L 270.350072 285.705842 
L 271.489182 282.744623 
L 272.628291 280.734503 
L 273.7674 282.668729 
L 274.906509 281.310583 
L 276.045619 283.160155 
L 277.184728 279.175365 
L 278.323837 281.265211 
L 279.462946 276.917993 
L 280.602055 277.918091 
L 281.741165 277.232996 
L 282.880274 274.849499 
L 284.019383 271.9136 
L 285.158492 275.446998 
L 286.297601 272.437122 
L 287.436711 273.235134 
L 288.57582 272.950653 
L 289.714929 267.666912 
L 290.854038 266.605223 
L 291.993147 269.092056 
L 293.132257 266.498466 
L 294.271366 266.342778 
L 295.410475 265.898229 
L 296.549584 256.012215 
L 297.688694 252.818114 
L 298.827803 264.229186 
L 299.966912 262.791724 
L 301.106021 260.661023 
L 302.24513 258.927583 
L 303.38424 258.019187 
L 304.523349 255.365785 
L 305.662458 245.249901 
L 306.801567 249.708051 
L 307.940676 248.254028 
L 309.079786 251.492885 
L 310.218895 251.538804 
L 311.358004 242.709553 
L 312.497113 238.334003 
L 313.636223 252.747285 
L 314.775332 246.895745 
L 315.914441 248.949731 
L 317.05355 241.990856 
L 318.192659 240.24544 
L 319.331769 240.460119 
L 320.470878 237.093495 
L 321.609987 237.991284 
L 322.749096 235.915262 
L 323.888205 240.036168 
L 325.027315 235.509653 
L 327.305533 230.200454 
L 328.444642 229.526992 
L 329.583752 233.841431 
L 330.722861 231.832201 
L 331.86197 227.257439 
L 333.001079 223.685581 
L 334.140188 227.549037 
L 335.279298 206.892908 
L 336.418407 220.716766 
L 337.557516 219.760123 
L 338.696625 222.548614 
L 339.835734 217.617036 
L 340.974844 223.317268 
L 342.113953 218.982299 
L 343.253062 215.152307 
L 344.392171 215.85677 
L 345.531281 217.617378 
L 346.67039 201.790586 
L 347.809499 202.327932 
L 348.948608 208.533619 
L 350.087717 207.904435 
L 351.226827 204.300413 
L 352.365936 208.197265 
L 353.505045 200.308574 
L 354.644154 201.683897 
L 355.783263 201.276782 
L 356.922373 196.146128 
L 358.061482 193.190452 
L 359.200591 198.427111 
L 360.3397 196.721044 
L 361.478809 183.141497 
L 362.617919 191.42608 
L 363.757028 175.736568 
L 364.896137 190.777939 
L 366.035246 185.466483 
L 367.174356 178.493442 
L 368.313465 183.5933 
L 369.452574 184.732183 
L 370.591683 184.35819 
L 371.730792 181.581127 
L 372.869902 178.114932 
L 374.009011 166.94865 
L 375.14812 164.617711 
L 376.287229 169.138752 
L 377.426338 177.297211 
L 378.565448 175.485072 
L 379.704557 171.91294 
L 380.843666 170.741003 
L 381.982775 167.963394 
L 383.121885 160.641407 
L 384.260994 159.876722 
L 385.400103 165.781299 
L 386.539212 164.995742 
L 387.678321 159.935849 
L 388.817431 144.721613 
L 389.95654 152.334035 
L 391.095649 147.852549 
L 392.234758 152.195729 
L 393.373867 151.172158 
L 394.512977 148.758755 
L 395.652086 149.637109 
L 396.791195 153.258034 
L 397.930304 137.869632 
L 399.069414 134.096783 
L 400.208523 137.151962 
L 400.208523 137.151962 
" style="fill:none;stroke:#2ca02c;stroke-linecap:square;stroke-width:1.5;"/>
   </g>
   <g id="patch_3">
    <path d="M 43.78125 386.6 
L 43.78125 7.2 
" style="fill:none;stroke:#000000;stroke-linecap:square;stroke-linejoin:miter;stroke-width:0.8;"/>
   </g>
   <g id="patch_4">
    <path d="M 417.18125 386.6 
L 417.18125 7.2 
" style="fill:none;stroke:#000000;stroke-linecap:square;stroke-linejoin:miter;stroke-width:0.8;"/>
   </g>
   <g id="patch_5">
    <path d="M 43.78125 386.6 
L 417.18125 386.6 
" style="fill:none;stroke:#000000;stroke-linecap:square;stroke-linejoin:miter;stroke-width:0.8;"/>
   </g>
   <g id="patch_6">
    <path d="M 43.78125 7.2 
L 417.18125 7.2 
" style="fill:none;stroke:#000000;stroke-linecap:square;stroke-linejoin:miter;stroke-width:0.8;"/>
   </g>
   <g id="legend_1">
    <g id="patch_7">
     <path d="M 50.78125 60.06875 
L 392.535938 60.06875 
Q 394.535938 60.06875 394.535938 58.06875 
L 394.535938 14.2 
Q 394.535938 12.2 392.535938 12.2 
L 50.78125 12.2 
Q 48.78125 12.2 48.78125 14.2 
L 48.78125 58.06875 
Q 48.78125 60.06875 50.78125 60.06875 
z
" style="fill:#ffffff;opacity:0.8;stroke:#cccccc;stroke-linejoin:miter;"/>
    </g>
    <g id="line2d_18">
     <path d="M 52.78125 20.298438 
L 72.78125 20.298438 
" style="fill:none;stroke:#1f77b4;stroke-linecap:square;stroke-width:1.5;"/>
    </g>
    <g id="line2d_19"/>
    <g id="text_17">
     <!-- &lt;class 'union_find.QuickUnionUF'&gt; -->
     <defs>
      <path d="M 73.1875 49.21875 
L 22.796875 31.296875 
L 73.1875 13.484375 
L 73.1875 4.59375 
L 10.59375 27.296875 
L 10.59375 35.40625 
L 73.1875 58.109375 
z
" id="DejaVuSans-60"/>
      <path d="M 48.78125 52.59375 
L 48.78125 44.1875 
Q 44.96875 46.296875 41.140625 47.34375 
Q 37.3125 48.390625 33.40625 48.390625 
Q 24.65625 48.390625 19.8125 42.84375 
Q 14.984375 37.3125 14.984375 27.296875 
Q 14.984375 17.28125 19.8125 11.734375 
Q 24.65625 6.203125 33.40625 6.203125 
Q 37.3125 6.203125 41.140625 7.25 
Q 44.96875 8.296875 48.78125 10.40625 
L 48.78125 2.09375 
Q 45.015625 0.34375 40.984375 -0.53125 
Q 36.96875 -1.421875 32.421875 -1.421875 
Q 20.0625 -1.421875 12.78125 6.34375 
Q 5.515625 14.109375 5.515625 27.296875 
Q 5.515625 40.671875 12.859375 48.328125 
Q 20.21875 56 33.015625 56 
Q 37.15625 56 41.109375 55.140625 
Q 45.0625 54.296875 48.78125 52.59375 
z
" id="DejaVuSans-99"/>
      <path d="M 9.421875 75.984375 
L 18.40625 75.984375 
L 18.40625 0 
L 9.421875 0 
z
" id="DejaVuSans-108"/>
      <path d="M 34.28125 27.484375 
Q 23.390625 27.484375 19.1875 25 
Q 14.984375 22.515625 14.984375 16.5 
Q 14.984375 11.71875 18.140625 8.90625 
Q 21.296875 6.109375 26.703125 6.109375 
Q 34.1875 6.109375 38.703125 11.40625 
Q 43.21875 16.703125 43.21875 25.484375 
L 43.21875 27.484375 
z
M 52.203125 31.203125 
L 52.203125 0 
L 43.21875 0 
L 43.21875 8.296875 
Q 40.140625 3.328125 35.546875 0.953125 
Q 30.953125 -1.421875 24.3125 -1.421875 
Q 15.921875 -1.421875 10.953125 3.296875 
Q 6 8.015625 6 15.921875 
Q 6 25.140625 12.171875 29.828125 
Q 18.359375 34.515625 30.609375 34.515625 
L 43.21875 34.515625 
L 43.21875 35.40625 
Q 43.21875 41.609375 39.140625 45 
Q 35.0625 48.390625 27.6875 48.390625 
Q 23 48.390625 18.546875 47.265625 
Q 14.109375 46.140625 10.015625 43.890625 
L 10.015625 52.203125 
Q 14.9375 54.109375 19.578125 55.046875 
Q 24.21875 56 28.609375 56 
Q 40.484375 56 46.34375 49.84375 
Q 52.203125 43.703125 52.203125 31.203125 
z
" id="DejaVuSans-97"/>
      <path d="M 44.28125 53.078125 
L 44.28125 44.578125 
Q 40.484375 46.53125 36.375 47.5 
Q 32.28125 48.484375 27.875 48.484375 
Q 21.1875 48.484375 17.84375 46.4375 
Q 14.5 44.390625 14.5 40.28125 
Q 14.5 37.15625 16.890625 35.375 
Q 19.28125 33.59375 26.515625 31.984375 
L 29.59375 31.296875 
Q 39.15625 29.25 43.1875 25.515625 
Q 47.21875 21.78125 47.21875 15.09375 
Q 47.21875 7.46875 41.1875 3.015625 
Q 35.15625 -1.421875 24.609375 -1.421875 
Q 20.21875 -1.421875 15.453125 -0.5625 
Q 10.6875 0.296875 5.421875 2 
L 5.421875 11.28125 
Q 10.40625 8.6875 15.234375 7.390625 
Q 20.0625 6.109375 24.8125 6.109375 
Q 31.15625 6.109375 34.5625 8.28125 
Q 37.984375 10.453125 37.984375 14.40625 
Q 37.984375 18.0625 35.515625 20.015625 
Q 33.0625 21.96875 24.703125 23.78125 
L 21.578125 24.515625 
Q 13.234375 26.265625 9.515625 29.90625 
Q 5.8125 33.546875 5.8125 39.890625 
Q 5.8125 47.609375 11.28125 51.796875 
Q 16.75 56 26.8125 56 
Q 31.78125 56 36.171875 55.265625 
Q 40.578125 54.546875 44.28125 53.078125 
z
" id="DejaVuSans-115"/>
      <path id="DejaVuSans-32"/>
      <path d="M 17.921875 72.90625 
L 17.921875 45.796875 
L 9.625 45.796875 
L 9.625 72.90625 
z
" id="DejaVuSans-39"/>
      <path d="M 8.5 21.578125 
L 8.5 54.6875 
L 17.484375 54.6875 
L 17.484375 21.921875 
Q 17.484375 14.15625 20.5 10.265625 
Q 23.53125 6.390625 29.59375 6.390625 
Q 36.859375 6.390625 41.078125 11.03125 
Q 45.3125 15.671875 45.3125 23.6875 
L 45.3125 54.6875 
L 54.296875 54.6875 
L 54.296875 0 
L 45.3125 0 
L 45.3125 8.40625 
Q 42.046875 3.421875 37.71875 1 
Q 33.40625 -1.421875 27.6875 -1.421875 
Q 18.265625 -1.421875 13.375 4.4375 
Q 8.5 10.296875 8.5 21.578125 
z
M 31.109375 56 
z
" id="DejaVuSans-117"/>
      <path d="M 54.890625 33.015625 
L 54.890625 0 
L 45.90625 0 
L 45.90625 32.71875 
Q 45.90625 40.484375 42.875 44.328125 
Q 39.84375 48.1875 33.796875 48.1875 
Q 26.515625 48.1875 22.3125 43.546875 
Q 18.109375 38.921875 18.109375 30.90625 
L 18.109375 0 
L 9.078125 0 
L 9.078125 54.6875 
L 18.109375 54.6875 
L 18.109375 46.1875 
Q 21.34375 51.125 25.703125 53.5625 
Q 30.078125 56 35.796875 56 
Q 45.21875 56 50.046875 50.171875 
Q 54.890625 44.34375 54.890625 33.015625 
z
" id="DejaVuSans-110"/>
      <path d="M 30.609375 48.390625 
Q 23.390625 48.390625 19.1875 42.75 
Q 14.984375 37.109375 14.984375 27.296875 
Q 14.984375 17.484375 19.15625 11.84375 
Q 23.34375 6.203125 30.609375 6.203125 
Q 37.796875 6.203125 41.984375 11.859375 
Q 46.1875 17.53125 46.1875 27.296875 
Q 46.1875 37.015625 41.984375 42.703125 
Q 37.796875 48.390625 30.609375 48.390625 
z
M 30.609375 56 
Q 42.328125 56 49.015625 48.375 
Q 55.71875 40.765625 55.71875 27.296875 
Q 55.71875 13.875 49.015625 6.21875 
Q 42.328125 -1.421875 30.609375 -1.421875 
Q 18.84375 -1.421875 12.171875 6.21875 
Q 5.515625 13.875 5.515625 27.296875 
Q 5.515625 40.765625 12.171875 48.375 
Q 18.84375 56 30.609375 56 
z
" id="DejaVuSans-111"/>
      <path d="M 50.984375 -16.609375 
L 50.984375 -23.578125 
L -0.984375 -23.578125 
L -0.984375 -16.609375 
z
" id="DejaVuSans-95"/>
      <path d="M 37.109375 75.984375 
L 37.109375 68.5 
L 28.515625 68.5 
Q 23.6875 68.5 21.796875 66.546875 
Q 19.921875 64.59375 19.921875 59.515625 
L 19.921875 54.6875 
L 34.71875 54.6875 
L 34.71875 47.703125 
L 19.921875 47.703125 
L 19.921875 0 
L 10.890625 0 
L 10.890625 47.703125 
L 2.296875 47.703125 
L 2.296875 54.6875 
L 10.890625 54.6875 
L 10.890625 58.5 
Q 10.890625 67.625 15.140625 71.796875 
Q 19.390625 75.984375 28.609375 75.984375 
z
" id="DejaVuSans-102"/>
      <path d="M 45.40625 46.390625 
L 45.40625 75.984375 
L 54.390625 75.984375 
L 54.390625 0 
L 45.40625 0 
L 45.40625 8.203125 
Q 42.578125 3.328125 38.25 0.953125 
Q 33.9375 -1.421875 27.875 -1.421875 
Q 17.96875 -1.421875 11.734375 6.484375 
Q 5.515625 14.40625 5.515625 27.296875 
Q 5.515625 40.1875 11.734375 48.09375 
Q 17.96875 56 27.875 56 
Q 33.9375 56 38.25 53.625 
Q 42.578125 51.265625 45.40625 46.390625 
z
M 14.796875 27.296875 
Q 14.796875 17.390625 18.875 11.75 
Q 22.953125 6.109375 30.078125 6.109375 
Q 37.203125 6.109375 41.296875 11.75 
Q 45.40625 17.390625 45.40625 27.296875 
Q 45.40625 37.203125 41.296875 42.84375 
Q 37.203125 48.484375 30.078125 48.484375 
Q 22.953125 48.484375 18.875 42.84375 
Q 14.796875 37.203125 14.796875 27.296875 
z
" id="DejaVuSans-100"/>
      <path d="M 39.40625 66.21875 
Q 28.65625 66.21875 22.328125 58.203125 
Q 16.015625 50.203125 16.015625 36.375 
Q 16.015625 22.609375 22.328125 14.59375 
Q 28.65625 6.59375 39.40625 6.59375 
Q 50.140625 6.59375 56.421875 14.59375 
Q 62.703125 22.609375 62.703125 36.375 
Q 62.703125 50.203125 56.421875 58.203125 
Q 50.140625 66.21875 39.40625 66.21875 
z
M 53.21875 1.3125 
L 66.21875 -12.890625 
L 54.296875 -12.890625 
L 43.5 -1.21875 
Q 41.890625 -1.3125 41.03125 -1.359375 
Q 40.1875 -1.421875 39.40625 -1.421875 
Q 24.03125 -1.421875 14.8125 8.859375 
Q 5.609375 19.140625 5.609375 36.375 
Q 5.609375 53.65625 14.8125 63.9375 
Q 24.03125 74.21875 39.40625 74.21875 
Q 54.734375 74.21875 63.90625 63.9375 
Q 73.09375 53.65625 73.09375 36.375 
Q 73.09375 23.6875 67.984375 14.640625 
Q 62.890625 5.609375 53.21875 1.3125 
z
" id="DejaVuSans-81"/>
      <path d="M 9.078125 75.984375 
L 18.109375 75.984375 
L 18.109375 31.109375 
L 44.921875 54.6875 
L 56.390625 54.6875 
L 27.390625 29.109375 
L 57.625 0 
L 45.90625 0 
L 18.109375 26.703125 
L 18.109375 0 
L 9.078125 0 
z
" id="DejaVuSans-107"/>
      <path d="M 8.6875 72.90625 
L 18.609375 72.90625 
L 18.609375 28.609375 
Q 18.609375 16.890625 22.84375 11.734375 
Q 27.09375 6.59375 36.625 6.59375 
Q 46.09375 6.59375 50.34375 11.734375 
Q 54.59375 16.890625 54.59375 28.609375 
L 54.59375 72.90625 
L 64.5 72.90625 
L 64.5 27.390625 
Q 64.5 13.140625 57.4375 5.859375 
Q 50.390625 -1.421875 36.625 -1.421875 
Q 22.796875 -1.421875 15.734375 5.859375 
Q 8.6875 13.140625 8.6875 27.390625 
z
" id="DejaVuSans-85"/>
      <path d="M 9.8125 72.90625 
L 51.703125 72.90625 
L 51.703125 64.59375 
L 19.671875 64.59375 
L 19.671875 43.109375 
L 48.578125 43.109375 
L 48.578125 34.8125 
L 19.671875 34.8125 
L 19.671875 0 
L 9.8125 0 
z
" id="DejaVuSans-70"/>
      <path d="M 10.59375 49.21875 
L 10.59375 58.109375 
L 73.1875 35.40625 
L 73.1875 27.296875 
L 10.59375 4.59375 
L 10.59375 13.484375 
L 60.890625 31.296875 
z
" id="DejaVuSans-62"/>
     </defs>
     <g transform="translate(80.78125 23.798438)scale(0.1 -0.1)">
      <use xlink:href="#DejaVuSans-60"/>
      <use x="83.789062" xlink:href="#DejaVuSans-99"/>
      <use x="138.769531" xlink:href="#DejaVuSans-108"/>
      <use x="166.552734" xlink:href="#DejaVuSans-97"/>
      <use x="227.832031" xlink:href="#DejaVuSans-115"/>
      <use x="279.931641" xlink:href="#DejaVuSans-115"/>
      <use x="332.03125" xlink:href="#DejaVuSans-32"/>
      <use x="363.818359" xlink:href="#DejaVuSans-39"/>
      <use x="391.308594" xlink:href="#DejaVuSans-117"/>
      <use x="454.6875" xlink:href="#DejaVuSans-110"/>
      <use x="518.066406" xlink:href="#DejaVuSans-105"/>
      <use x="545.849609" xlink:href="#DejaVuSans-111"/>
      <use x="607.03125" xlink:href="#DejaVuSans-110"/>
      <use x="670.410156" xlink:href="#DejaVuSans-95"/>
      <use x="720.410156" xlink:href="#DejaVuSans-102"/>
      <use x="755.615234" xlink:href="#DejaVuSans-105"/>
      <use x="783.398438" xlink:href="#DejaVuSans-110"/>
      <use x="846.777344" xlink:href="#DejaVuSans-100"/>
      <use x="910.253906" xlink:href="#DejaVuSans-46"/>
      <use x="942.041016" xlink:href="#DejaVuSans-81"/>
      <use x="1020.751953" xlink:href="#DejaVuSans-117"/>
      <use x="1084.130859" xlink:href="#DejaVuSans-105"/>
      <use x="1111.914062" xlink:href="#DejaVuSans-99"/>
      <use x="1166.894531" xlink:href="#DejaVuSans-107"/>
      <use x="1224.804688" xlink:href="#DejaVuSans-85"/>
      <use x="1297.998047" xlink:href="#DejaVuSans-110"/>
      <use x="1361.376953" xlink:href="#DejaVuSans-105"/>
      <use x="1389.160156" xlink:href="#DejaVuSans-111"/>
      <use x="1450.341797" xlink:href="#DejaVuSans-110"/>
      <use x="1513.720703" xlink:href="#DejaVuSans-85"/>
      <use x="1586.914062" xlink:href="#DejaVuSans-70"/>
      <use x="1644.433594" xlink:href="#DejaVuSans-39"/>
      <use x="1671.923828" xlink:href="#DejaVuSans-62"/>
     </g>
    </g>
    <g id="line2d_20">
     <path d="M 52.78125 35.254688 
L 72.78125 35.254688 
" style="fill:none;stroke:#ff7f0e;stroke-linecap:square;stroke-width:1.5;"/>
    </g>
    <g id="line2d_21"/>
    <g id="text_18">
     <!-- &lt;class 'union_find.WeightedQuickUnionUF'&gt; -->
     <defs>
      <path d="M 3.328125 72.90625 
L 13.28125 72.90625 
L 28.609375 11.28125 
L 43.890625 72.90625 
L 54.984375 72.90625 
L 70.3125 11.28125 
L 85.59375 72.90625 
L 95.609375 72.90625 
L 77.296875 0 
L 64.890625 0 
L 49.515625 63.28125 
L 33.984375 0 
L 21.578125 0 
z
" id="DejaVuSans-87"/>
      <path d="M 45.40625 27.984375 
Q 45.40625 37.75 41.375 43.109375 
Q 37.359375 48.484375 30.078125 48.484375 
Q 22.859375 48.484375 18.828125 43.109375 
Q 14.796875 37.75 14.796875 27.984375 
Q 14.796875 18.265625 18.828125 12.890625 
Q 22.859375 7.515625 30.078125 7.515625 
Q 37.359375 7.515625 41.375 12.890625 
Q 45.40625 18.265625 45.40625 27.984375 
z
M 54.390625 6.78125 
Q 54.390625 -7.171875 48.1875 -13.984375 
Q 42 -20.796875 29.203125 -20.796875 
Q 24.46875 -20.796875 20.265625 -20.09375 
Q 16.0625 -19.390625 12.109375 -17.921875 
L 12.109375 -9.1875 
Q 16.0625 -11.328125 19.921875 -12.34375 
Q 23.78125 -13.375 27.78125 -13.375 
Q 36.625 -13.375 41.015625 -8.765625 
Q 45.40625 -4.15625 45.40625 5.171875 
L 45.40625 9.625 
Q 42.625 4.78125 38.28125 2.390625 
Q 33.9375 0 27.875 0 
Q 17.828125 0 11.671875 7.65625 
Q 5.515625 15.328125 5.515625 27.984375 
Q 5.515625 40.671875 11.671875 48.328125 
Q 17.828125 56 27.875 56 
Q 33.9375 56 38.28125 53.609375 
Q 42.625 51.21875 45.40625 46.390625 
L 45.40625 54.6875 
L 54.390625 54.6875 
z
" id="DejaVuSans-103"/>
      <path d="M 54.890625 33.015625 
L 54.890625 0 
L 45.90625 0 
L 45.90625 32.71875 
Q 45.90625 40.484375 42.875 44.328125 
Q 39.84375 48.1875 33.796875 48.1875 
Q 26.515625 48.1875 22.3125 43.546875 
Q 18.109375 38.921875 18.109375 30.90625 
L 18.109375 0 
L 9.078125 0 
L 9.078125 75.984375 
L 18.109375 75.984375 
L 18.109375 46.1875 
Q 21.34375 51.125 25.703125 53.5625 
Q 30.078125 56 35.796875 56 
Q 45.21875 56 50.046875 50.171875 
Q 54.890625 44.34375 54.890625 33.015625 
z
" id="DejaVuSans-104"/>
      <path d="M 18.3125 70.21875 
L 18.3125 54.6875 
L 36.8125 54.6875 
L 36.8125 47.703125 
L 18.3125 47.703125 
L 18.3125 18.015625 
Q 18.3125 11.328125 20.140625 9.421875 
Q 21.96875 7.515625 27.59375 7.515625 
L 36.8125 7.515625 
L 36.8125 0 
L 27.59375 0 
Q 17.1875 0 13.234375 3.875 
Q 9.28125 7.765625 9.28125 18.015625 
L 9.28125 47.703125 
L 2.6875 47.703125 
L 2.6875 54.6875 
L 9.28125 54.6875 
L 9.28125 70.21875 
z
" id="DejaVuSans-116"/>
     </defs>
     <g transform="translate(80.78125 38.754688)scale(0.1 -0.1)">
      <use xlink:href="#DejaVuSans-60"/>
      <use x="83.789062" xlink:href="#DejaVuSans-99"/>
      <use x="138.769531" xlink:href="#DejaVuSans-108"/>
      <use x="166.552734" xlink:href="#DejaVuSans-97"/>
      <use x="227.832031" xlink:href="#DejaVuSans-115"/>
      <use x="279.931641" xlink:href="#DejaVuSans-115"/>
      <use x="332.03125" xlink:href="#DejaVuSans-32"/>
      <use x="363.818359" xlink:href="#DejaVuSans-39"/>
      <use x="391.308594" xlink:href="#DejaVuSans-117"/>
      <use x="454.6875" xlink:href="#DejaVuSans-110"/>
      <use x="518.066406" xlink:href="#DejaVuSans-105"/>
      <use x="545.849609" xlink:href="#DejaVuSans-111"/>
      <use x="607.03125" xlink:href="#DejaVuSans-110"/>
      <use x="670.410156" xlink:href="#DejaVuSans-95"/>
      <use x="720.410156" xlink:href="#DejaVuSans-102"/>
      <use x="755.615234" xlink:href="#DejaVuSans-105"/>
      <use x="783.398438" xlink:href="#DejaVuSans-110"/>
      <use x="846.777344" xlink:href="#DejaVuSans-100"/>
      <use x="910.253906" xlink:href="#DejaVuSans-46"/>
      <use x="942.041016" xlink:href="#DejaVuSans-87"/>
      <use x="1035.042969" xlink:href="#DejaVuSans-101"/>
      <use x="1096.566406" xlink:href="#DejaVuSans-105"/>
      <use x="1124.349609" xlink:href="#DejaVuSans-103"/>
      <use x="1187.826172" xlink:href="#DejaVuSans-104"/>
      <use x="1251.205078" xlink:href="#DejaVuSans-116"/>
      <use x="1290.414062" xlink:href="#DejaVuSans-101"/>
      <use x="1351.9375" xlink:href="#DejaVuSans-100"/>
      <use x="1415.414062" xlink:href="#DejaVuSans-81"/>
      <use x="1494.125" xlink:href="#DejaVuSans-117"/>
      <use x="1557.503906" xlink:href="#DejaVuSans-105"/>
      <use x="1585.287109" xlink:href="#DejaVuSans-99"/>
      <use x="1640.267578" xlink:href="#DejaVuSans-107"/>
      <use x="1698.177734" xlink:href="#DejaVuSans-85"/>
      <use x="1771.371094" xlink:href="#DejaVuSans-110"/>
      <use x="1834.75" xlink:href="#DejaVuSans-105"/>
      <use x="1862.533203" xlink:href="#DejaVuSans-111"/>
      <use x="1923.714844" xlink:href="#DejaVuSans-110"/>
      <use x="1987.09375" xlink:href="#DejaVuSans-85"/>
      <use x="2060.287109" xlink:href="#DejaVuSans-70"/>
      <use x="2117.806641" xlink:href="#DejaVuSans-39"/>
      <use x="2145.296875" xlink:href="#DejaVuSans-62"/>
     </g>
    </g>
    <g id="line2d_22">
     <path d="M 52.78125 50.210938 
L 72.78125 50.210938 
" style="fill:none;stroke:#2ca02c;stroke-linecap:square;stroke-width:1.5;"/>
    </g>
    <g id="line2d_23"/>
    <g id="text_19">
     <!-- &lt;class 'union_find.WeightedQuickUnionPathCompressionUF'&gt; -->
     <defs>
      <path d="M 19.671875 64.796875 
L 19.671875 37.40625 
L 32.078125 37.40625 
Q 38.96875 37.40625 42.71875 40.96875 
Q 46.484375 44.53125 46.484375 51.125 
Q 46.484375 57.671875 42.71875 61.234375 
Q 38.96875 64.796875 32.078125 64.796875 
z
M 9.8125 72.90625 
L 32.078125 72.90625 
Q 44.34375 72.90625 50.609375 67.359375 
Q 56.890625 61.8125 56.890625 51.125 
Q 56.890625 40.328125 50.609375 34.8125 
Q 44.34375 29.296875 32.078125 29.296875 
L 19.671875 29.296875 
L 19.671875 0 
L 9.8125 0 
z
" id="DejaVuSans-80"/>
      <path d="M 64.40625 67.28125 
L 64.40625 56.890625 
Q 59.421875 61.53125 53.78125 63.8125 
Q 48.140625 66.109375 41.796875 66.109375 
Q 29.296875 66.109375 22.65625 58.46875 
Q 16.015625 50.828125 16.015625 36.375 
Q 16.015625 21.96875 22.65625 14.328125 
Q 29.296875 6.6875 41.796875 6.6875 
Q 48.140625 6.6875 53.78125 8.984375 
Q 59.421875 11.28125 64.40625 15.921875 
L 64.40625 5.609375 
Q 59.234375 2.09375 53.4375 0.328125 
Q 47.65625 -1.421875 41.21875 -1.421875 
Q 24.65625 -1.421875 15.125 8.703125 
Q 5.609375 18.84375 5.609375 36.375 
Q 5.609375 53.953125 15.125 64.078125 
Q 24.65625 74.21875 41.21875 74.21875 
Q 47.75 74.21875 53.53125 72.484375 
Q 59.328125 70.75 64.40625 67.28125 
z
" id="DejaVuSans-67"/>
      <path d="M 18.109375 8.203125 
L 18.109375 -20.796875 
L 9.078125 -20.796875 
L 9.078125 54.6875 
L 18.109375 54.6875 
L 18.109375 46.390625 
Q 20.953125 51.265625 25.265625 53.625 
Q 29.59375 56 35.59375 56 
Q 45.5625 56 51.78125 48.09375 
Q 58.015625 40.1875 58.015625 27.296875 
Q 58.015625 14.40625 51.78125 6.484375 
Q 45.5625 -1.421875 35.59375 -1.421875 
Q 29.59375 -1.421875 25.265625 0.953125 
Q 20.953125 3.328125 18.109375 8.203125 
z
M 48.6875 27.296875 
Q 48.6875 37.203125 44.609375 42.84375 
Q 40.53125 48.484375 33.40625 48.484375 
Q 26.265625 48.484375 22.1875 42.84375 
Q 18.109375 37.203125 18.109375 27.296875 
Q 18.109375 17.390625 22.1875 11.75 
Q 26.265625 6.109375 33.40625 6.109375 
Q 40.53125 6.109375 44.609375 11.75 
Q 48.6875 17.390625 48.6875 27.296875 
z
" id="DejaVuSans-112"/>
      <path d="M 41.109375 46.296875 
Q 39.59375 47.171875 37.8125 47.578125 
Q 36.03125 48 33.890625 48 
Q 26.265625 48 22.1875 43.046875 
Q 18.109375 38.09375 18.109375 28.8125 
L 18.109375 0 
L 9.078125 0 
L 9.078125 54.6875 
L 18.109375 54.6875 
L 18.109375 46.1875 
Q 20.953125 51.171875 25.484375 53.578125 
Q 30.03125 56 36.53125 56 
Q 37.453125 56 38.578125 55.875 
Q 39.703125 55.765625 41.0625 55.515625 
z
" id="DejaVuSans-114"/>
     </defs>
     <g transform="translate(80.78125 53.710938)scale(0.1 -0.1)">
      <use xlink:href="#DejaVuSans-60"/>
      <use x="83.789062" xlink:href="#DejaVuSans-99"/>
      <use x="138.769531" xlink:href="#DejaVuSans-108"/>
      <use x="166.552734" xlink:href="#DejaVuSans-97"/>
      <use x="227.832031" xlink:href="#DejaVuSans-115"/>
      <use x="279.931641" xlink:href="#DejaVuSans-115"/>
      <use x="332.03125" xlink:href="#DejaVuSans-32"/>
      <use x="363.818359" xlink:href="#DejaVuSans-39"/>
      <use x="391.308594" xlink:href="#DejaVuSans-117"/>
      <use x="454.6875" xlink:href="#DejaVuSans-110"/>
      <use x="518.066406" xlink:href="#DejaVuSans-105"/>
      <use x="545.849609" xlink:href="#DejaVuSans-111"/>
      <use x="607.03125" xlink:href="#DejaVuSans-110"/>
      <use x="670.410156" xlink:href="#DejaVuSans-95"/>
      <use x="720.410156" xlink:href="#DejaVuSans-102"/>
      <use x="755.615234" xlink:href="#DejaVuSans-105"/>
      <use x="783.398438" xlink:href="#DejaVuSans-110"/>
      <use x="846.777344" xlink:href="#DejaVuSans-100"/>
      <use x="910.253906" xlink:href="#DejaVuSans-46"/>
      <use x="942.041016" xlink:href="#DejaVuSans-87"/>
      <use x="1035.042969" xlink:href="#DejaVuSans-101"/>
      <use x="1096.566406" xlink:href="#DejaVuSans-105"/>
      <use x="1124.349609" xlink:href="#DejaVuSans-103"/>
      <use x="1187.826172" xlink:href="#DejaVuSans-104"/>
      <use x="1251.205078" xlink:href="#DejaVuSans-116"/>
      <use x="1290.414062" xlink:href="#DejaVuSans-101"/>
      <use x="1351.9375" xlink:href="#DejaVuSans-100"/>
      <use x="1415.414062" xlink:href="#DejaVuSans-81"/>
      <use x="1494.125" xlink:href="#DejaVuSans-117"/>
      <use x="1557.503906" xlink:href="#DejaVuSans-105"/>
      <use x="1585.287109" xlink:href="#DejaVuSans-99"/>
      <use x="1640.267578" xlink:href="#DejaVuSans-107"/>
      <use x="1698.177734" xlink:href="#DejaVuSans-85"/>
      <use x="1771.371094" xlink:href="#DejaVuSans-110"/>
      <use x="1834.75" xlink:href="#DejaVuSans-105"/>
      <use x="1862.533203" xlink:href="#DejaVuSans-111"/>
      <use x="1923.714844" xlink:href="#DejaVuSans-110"/>
      <use x="1987.09375" xlink:href="#DejaVuSans-80"/>
      <use x="2042.896484" xlink:href="#DejaVuSans-97"/>
      <use x="2104.175781" xlink:href="#DejaVuSans-116"/>
      <use x="2143.384766" xlink:href="#DejaVuSans-104"/>
      <use x="2206.763672" xlink:href="#DejaVuSans-67"/>
      <use x="2276.587891" xlink:href="#DejaVuSans-111"/>
      <use x="2337.769531" xlink:href="#DejaVuSans-109"/>
      <use x="2435.181641" xlink:href="#DejaVuSans-112"/>
      <use x="2498.658203" xlink:href="#DejaVuSans-114"/>
      <use x="2537.521484" xlink:href="#DejaVuSans-101"/>
      <use x="2599.044922" xlink:href="#DejaVuSans-115"/>
      <use x="2651.144531" xlink:href="#DejaVuSans-115"/>
      <use x="2703.244141" xlink:href="#DejaVuSans-105"/>
      <use x="2731.027344" xlink:href="#DejaVuSans-111"/>
      <use x="2792.208984" xlink:href="#DejaVuSans-110"/>
      <use x="2855.587891" xlink:href="#DejaVuSans-85"/>
      <use x="2928.78125" xlink:href="#DejaVuSans-70"/>
      <use x="2986.300781" xlink:href="#DejaVuSans-39"/>
      <use x="3013.791016" xlink:href="#DejaVuSans-62"/>
     </g>
    </g>
   </g>
  </g>
 </g>
 <defs>
  <clipPath id="p31d5ada751">
   <rect height="379.4" width="373.4" x="43.78125" y="7.2"/>
  </clipPath>
 </defs>
</svg>
