<?xml version="1.0" encoding="utf-8" standalone="no"?>
<!DOCTYPE svg PUBLIC "-//W3C//DTD SVG 1.1//EN"
  "http://www.w3.org/Graphics/SVG/1.1/DTD/svg11.dtd">
<!-- Created with matplotlib (https://matplotlib.org/) -->
<svg height="424.15625pt" version="1.1" viewBox="0 0 424.36875 424.15625" width="424.36875pt" xmlns="http://www.w3.org/2000/svg" xmlns:xlink="http://www.w3.org/1999/xlink">
 <defs>
  <style type="text/css">
*{stroke-linecap:butt;stroke-linejoin:round;}
  </style>
 </defs>
 <g id="figure_1">
  <g id="patch_1">
   <path d="M 0 424.15625 
L 424.36875 424.15625 
L 424.36875 0 
L 0 0 
z
" style="fill:none;"/>
  </g>
  <g id="axes_1">
   <g id="patch_2">
    <path d="M 50.14375 386.6 
L 417.16875 386.6 
L 417.16875 7.2 
L 50.14375 7.2 
z
" style="fill:#ffffff;"/>
   </g>
   <g id="matplotlib.axis_1">
    <g id="xtick_1">
     <g id="line2d_1">
      <defs>
       <path d="M 0 0 
L 0 3.5 
" id="maa9fae6dd4" style="stroke:#000000;stroke-width:0.8;"/>
      </defs>
      <g>
       <use style="stroke:#000000;stroke-width:0.8;" x="66.826705" xlink:href="#maa9fae6dd4" y="386.6"/>
      </g>
     </g>
     <g id="text_1">
      <!-- 0 -->
      <defs>
       <path d="M 31.78125 66.40625 
Q 24.171875 66.40625 20.328125 58.90625 
Q 16.5 51.421875 16.5 36.375 
Q 16.5 21.390625 20.328125 13.890625 
Q 24.171875 6.390625 31.78125 6.390625 
Q 39.453125 6.390625 43.28125 13.890625 
Q 47.125 21.390625 47.125 36.375 
Q 47.125 51.421875 43.28125 58.90625 
Q 39.453125 66.40625 31.78125 66.40625 
z
M 31.78125 74.21875 
Q 44.046875 74.21875 50.515625 64.515625 
Q 56.984375 54.828125 56.984375 36.375 
Q 56.984375 17.96875 50.515625 8.265625 
Q 44.046875 -1.421875 31.78125 -1.421875 
Q 19.53125 -1.421875 13.0625 8.265625 
Q 6.59375 17.96875 6.59375 36.375 
Q 6.59375 54.828125 13.0625 64.515625 
Q 19.53125 74.21875 31.78125 74.21875 
z
" id="DejaVuSans-48"/>
      </defs>
      <g transform="translate(63.645455 401.198438)scale(0.1 -0.1)">
       <use xlink:href="#DejaVuSans-48"/>
      </g>
     </g>
    </g>
    <g id="xtick_2">
     <g id="line2d_2">
      <g>
       <use style="stroke:#000000;stroke-width:0.8;" x="133.826522" xlink:href="#maa9fae6dd4" y="386.6"/>
      </g>
     </g>
     <g id="text_2">
      <!-- 100 -->
      <defs>
       <path d="M 12.40625 8.296875 
L 28.515625 8.296875 
L 28.515625 63.921875 
L 10.984375 60.40625 
L 10.984375 69.390625 
L 28.421875 72.90625 
L 38.28125 72.90625 
L 38.28125 8.296875 
L 54.390625 8.296875 
L 54.390625 0 
L 12.40625 0 
z
" id="DejaVuSans-49"/>
      </defs>
      <g transform="translate(124.282772 401.198438)scale(0.1 -0.1)">
       <use xlink:href="#DejaVuSans-49"/>
       <use x="63.623047" xlink:href="#DejaVuSans-48"/>
       <use x="127.246094" xlink:href="#DejaVuSans-48"/>
      </g>
     </g>
    </g>
    <g id="xtick_3">
     <g id="line2d_3">
      <g>
       <use style="stroke:#000000;stroke-width:0.8;" x="200.826339" xlink:href="#maa9fae6dd4" y="386.6"/>
      </g>
     </g>
     <g id="text_3">
      <!-- 200 -->
      <defs>
       <path d="M 19.1875 8.296875 
L 53.609375 8.296875 
L 53.609375 0 
L 7.328125 0 
L 7.328125 8.296875 
Q 12.9375 14.109375 22.625 23.890625 
Q 32.328125 33.6875 34.8125 36.53125 
Q 39.546875 41.84375 41.421875 45.53125 
Q 43.3125 49.21875 43.3125 52.78125 
Q 43.3125 58.59375 39.234375 62.25 
Q 35.15625 65.921875 28.609375 65.921875 
Q 23.96875 65.921875 18.8125 64.3125 
Q 13.671875 62.703125 7.8125 59.421875 
L 7.8125 69.390625 
Q 13.765625 71.78125 18.9375 73 
Q 24.125 74.21875 28.421875 74.21875 
Q 39.75 74.21875 46.484375 68.546875 
Q 53.21875 62.890625 53.21875 53.421875 
Q 53.21875 48.921875 51.53125 44.890625 
Q 49.859375 40.875 45.40625 35.40625 
Q 44.1875 33.984375 37.640625 27.21875 
Q 31.109375 20.453125 19.1875 8.296875 
z
" id="DejaVuSans-50"/>
      </defs>
      <g transform="translate(191.282589 401.198438)scale(0.1 -0.1)">
       <use xlink:href="#DejaVuSans-50"/>
       <use x="63.623047" xlink:href="#DejaVuSans-48"/>
       <use x="127.246094" xlink:href="#DejaVuSans-48"/>
      </g>
     </g>
    </g>
    <g id="xtick_4">
     <g id="line2d_4">
      <g>
       <use style="stroke:#000000;stroke-width:0.8;" x="267.826157" xlink:href="#maa9fae6dd4" y="386.6"/>
      </g>
     </g>
     <g id="text_4">
      <!-- 300 -->
      <defs>
       <path d="M 40.578125 39.3125 
Q 47.65625 37.796875 51.625 33 
Q 55.609375 28.21875 55.609375 21.1875 
Q 55.609375 10.40625 48.1875 4.484375 
Q 40.765625 -1.421875 27.09375 -1.421875 
Q 22.515625 -1.421875 17.65625 -0.515625 
Q 12.796875 0.390625 7.625 2.203125 
L 7.625 11.71875 
Q 11.71875 9.328125 16.59375 8.109375 
Q 21.484375 6.890625 26.8125 6.890625 
Q 36.078125 6.890625 40.9375 10.546875 
Q 45.796875 14.203125 45.796875 21.1875 
Q 45.796875 27.640625 41.28125 31.265625 
Q 36.765625 34.90625 28.71875 34.90625 
L 20.21875 34.90625 
L 20.21875 43.015625 
L 29.109375 43.015625 
Q 36.375 43.015625 40.234375 45.921875 
Q 44.09375 48.828125 44.09375 54.296875 
Q 44.09375 59.90625 40.109375 62.90625 
Q 36.140625 65.921875 28.71875 65.921875 
Q 24.65625 65.921875 20.015625 65.03125 
Q 15.375 64.15625 9.8125 62.3125 
L 9.8125 71.09375 
Q 15.4375 72.65625 20.34375 73.4375 
Q 25.25 74.21875 29.59375 74.21875 
Q 40.828125 74.21875 47.359375 69.109375 
Q 53.90625 64.015625 53.90625 55.328125 
Q 53.90625 49.265625 50.4375 45.09375 
Q 46.96875 40.921875 40.578125 39.3125 
z
" id="DejaVuSans-51"/>
      </defs>
      <g transform="translate(258.282407 401.198438)scale(0.1 -0.1)">
       <use xlink:href="#DejaVuSans-51"/>
       <use x="63.623047" xlink:href="#DejaVuSans-48"/>
       <use x="127.246094" xlink:href="#DejaVuSans-48"/>
      </g>
     </g>
    </g>
    <g id="xtick_5">
     <g id="line2d_5">
      <g>
       <use style="stroke:#000000;stroke-width:0.8;" x="334.825974" xlink:href="#maa9fae6dd4" y="386.6"/>
      </g>
     </g>
     <g id="text_5">
      <!-- 400 -->
      <defs>
       <path d="M 37.796875 64.3125 
L 12.890625 25.390625 
L 37.796875 25.390625 
z
M 35.203125 72.90625 
L 47.609375 72.90625 
L 47.609375 25.390625 
L 58.015625 25.390625 
L 58.015625 17.1875 
L 47.609375 17.1875 
L 47.609375 0 
L 37.796875 0 
L 37.796875 17.1875 
L 4.890625 17.1875 
L 4.890625 26.703125 
z
" id="DejaVuSans-52"/>
      </defs>
      <g transform="translate(325.282224 401.198438)scale(0.1 -0.1)">
       <use xlink:href="#DejaVuSans-52"/>
       <use x="63.623047" xlink:href="#DejaVuSans-48"/>
       <use x="127.246094" xlink:href="#DejaVuSans-48"/>
      </g>
     </g>
    </g>
    <g id="xtick_6">
     <g id="line2d_6">
      <g>
       <use style="stroke:#000000;stroke-width:0.8;" x="401.825792" xlink:href="#maa9fae6dd4" y="386.6"/>
      </g>
     </g>
     <g id="text_6">
      <!-- 500 -->
      <defs>
       <path d="M 10.796875 72.90625 
L 49.515625 72.90625 
L 49.515625 64.59375 
L 19.828125 64.59375 
L 19.828125 46.734375 
Q 21.96875 47.46875 24.109375 47.828125 
Q 26.265625 48.1875 28.421875 48.1875 
Q 40.625 48.1875 47.75 41.5 
Q 54.890625 34.8125 54.890625 23.390625 
Q 54.890625 11.625 47.5625 5.09375 
Q 40.234375 -1.421875 26.90625 -1.421875 
Q 22.3125 -1.421875 17.546875 -0.640625 
Q 12.796875 0.140625 7.71875 1.703125 
L 7.71875 11.625 
Q 12.109375 9.234375 16.796875 8.0625 
Q 21.484375 6.890625 26.703125 6.890625 
Q 35.15625 6.890625 40.078125 11.328125 
Q 45.015625 15.765625 45.015625 23.390625 
Q 45.015625 31 40.078125 35.4375 
Q 35.15625 39.890625 26.703125 39.890625 
Q 22.75 39.890625 18.8125 39.015625 
Q 14.890625 38.140625 10.796875 36.28125 
z
" id="DejaVuSans-53"/>
      </defs>
      <g transform="translate(392.282042 401.198438)scale(0.1 -0.1)">
       <use xlink:href="#DejaVuSans-53"/>
       <use x="63.623047" xlink:href="#DejaVuSans-48"/>
       <use x="127.246094" xlink:href="#DejaVuSans-48"/>
      </g>
     </g>
    </g>
    <g id="text_7">
     <!-- Size -->
     <defs>
      <path d="M 53.515625 70.515625 
L 53.515625 60.890625 
Q 47.90625 63.578125 42.921875 64.890625 
Q 37.9375 66.21875 33.296875 66.21875 
Q 25.25 66.21875 20.875 63.09375 
Q 16.5 59.96875 16.5 54.203125 
Q 16.5 49.359375 19.40625 46.890625 
Q 22.3125 44.4375 30.421875 42.921875 
L 36.375 41.703125 
Q 47.40625 39.59375 52.65625 34.296875 
Q 57.90625 29 57.90625 20.125 
Q 57.90625 9.515625 50.796875 4.046875 
Q 43.703125 -1.421875 29.984375 -1.421875 
Q 24.8125 -1.421875 18.96875 -0.25 
Q 13.140625 0.921875 6.890625 3.21875 
L 6.890625 13.375 
Q 12.890625 10.015625 18.65625 8.296875 
Q 24.421875 6.59375 29.984375 6.59375 
Q 38.421875 6.59375 43.015625 9.90625 
Q 47.609375 13.234375 47.609375 19.390625 
Q 47.609375 24.75 44.3125 27.78125 
Q 41.015625 30.8125 33.5 32.328125 
L 27.484375 33.5 
Q 16.453125 35.6875 11.515625 40.375 
Q 6.59375 45.0625 6.59375 53.421875 
Q 6.59375 63.09375 13.40625 68.65625 
Q 20.21875 74.21875 32.171875 74.21875 
Q 37.3125 74.21875 42.625 73.28125 
Q 47.953125 72.359375 53.515625 70.515625 
z
" id="DejaVuSans-83"/>
      <path d="M 9.421875 54.6875 
L 18.40625 54.6875 
L 18.40625 0 
L 9.421875 0 
z
M 9.421875 75.984375 
L 18.40625 75.984375 
L 18.40625 64.59375 
L 9.421875 64.59375 
z
" id="DejaVuSans-105"/>
      <path d="M 5.515625 54.6875 
L 48.1875 54.6875 
L 48.1875 46.484375 
L 14.40625 7.171875 
L 48.1875 7.171875 
L 48.1875 0 
L 4.296875 0 
L 4.296875 8.203125 
L 38.09375 47.515625 
L 5.515625 47.515625 
z
" id="DejaVuSans-122"/>
      <path d="M 56.203125 29.59375 
L 56.203125 25.203125 
L 14.890625 25.203125 
Q 15.484375 15.921875 20.484375 11.0625 
Q 25.484375 6.203125 34.421875 6.203125 
Q 39.59375 6.203125 44.453125 7.46875 
Q 49.3125 8.734375 54.109375 11.28125 
L 54.109375 2.78125 
Q 49.265625 0.734375 44.1875 -0.34375 
Q 39.109375 -1.421875 33.890625 -1.421875 
Q 20.796875 -1.421875 13.15625 6.1875 
Q 5.515625 13.8125 5.515625 26.8125 
Q 5.515625 40.234375 12.765625 48.109375 
Q 20.015625 56 32.328125 56 
Q 43.359375 56 49.78125 48.890625 
Q 56.203125 41.796875 56.203125 29.59375 
z
M 47.21875 32.234375 
Q 47.125 39.59375 43.09375 43.984375 
Q 39.0625 48.390625 32.421875 48.390625 
Q 24.90625 48.390625 20.390625 44.140625 
Q 15.875 39.890625 15.1875 32.171875 
z
" id="DejaVuSans-101"/>
     </defs>
     <g transform="translate(223.392187 414.876562)scale(0.1 -0.1)">
      <use xlink:href="#DejaVuSans-83"/>
      <use x="63.476562" xlink:href="#DejaVuSans-105"/>
      <use x="91.259766" xlink:href="#DejaVuSans-122"/>
      <use x="143.75" xlink:href="#DejaVuSans-101"/>
     </g>
    </g>
   </g>
   <g id="matplotlib.axis_2">
    <g id="ytick_1">
     <g id="line2d_7">
      <defs>
       <path d="M 0 0 
L -3.5 0 
" id="mf6aacffe8f" style="stroke:#000000;stroke-width:0.8;"/>
      </defs>
      <g>
       <use style="stroke:#000000;stroke-width:0.8;" x="50.14375" xlink:href="#mf6aacffe8f" y="384.691685"/>
      </g>
     </g>
     <g id="text_8">
      <!-- 0.00 -->
      <defs>
       <path d="M 10.6875 12.40625 
L 21 12.40625 
L 21 0 
L 10.6875 0 
z
" id="DejaVuSans-46"/>
      </defs>
      <g transform="translate(20.878125 388.490904)scale(0.1 -0.1)">
       <use xlink:href="#DejaVuSans-48"/>
       <use x="63.623047" xlink:href="#DejaVuSans-46"/>
       <use x="95.410156" xlink:href="#DejaVuSans-48"/>
       <use x="159.033203" xlink:href="#DejaVuSans-48"/>
      </g>
     </g>
    </g>
    <g id="ytick_2">
     <g id="line2d_8">
      <g>
       <use style="stroke:#000000;stroke-width:0.8;" x="50.14375" xlink:href="#mf6aacffe8f" y="340.351579"/>
      </g>
     </g>
     <g id="text_9">
      <!-- 0.01 -->
      <g transform="translate(20.878125 344.150798)scale(0.1 -0.1)">
       <use xlink:href="#DejaVuSans-48"/>
       <use x="63.623047" xlink:href="#DejaVuSans-46"/>
       <use x="95.410156" xlink:href="#DejaVuSans-48"/>
       <use x="159.033203" xlink:href="#DejaVuSans-49"/>
      </g>
     </g>
    </g>
    <g id="ytick_3">
     <g id="line2d_9">
      <g>
       <use style="stroke:#000000;stroke-width:0.8;" x="50.14375" xlink:href="#mf6aacffe8f" y="296.011474"/>
      </g>
     </g>
     <g id="text_10">
      <!-- 0.02 -->
      <g transform="translate(20.878125 299.810693)scale(0.1 -0.1)">
       <use xlink:href="#DejaVuSans-48"/>
       <use x="63.623047" xlink:href="#DejaVuSans-46"/>
       <use x="95.410156" xlink:href="#DejaVuSans-48"/>
       <use x="159.033203" xlink:href="#DejaVuSans-50"/>
      </g>
     </g>
    </g>
    <g id="ytick_4">
     <g id="line2d_10">
      <g>
       <use style="stroke:#000000;stroke-width:0.8;" x="50.14375" xlink:href="#mf6aacffe8f" y="251.671369"/>
      </g>
     </g>
     <g id="text_11">
      <!-- 0.03 -->
      <g transform="translate(20.878125 255.470587)scale(0.1 -0.1)">
       <use xlink:href="#DejaVuSans-48"/>
       <use x="63.623047" xlink:href="#DejaVuSans-46"/>
       <use x="95.410156" xlink:href="#DejaVuSans-48"/>
       <use x="159.033203" xlink:href="#DejaVuSans-51"/>
      </g>
     </g>
    </g>
    <g id="ytick_5">
     <g id="line2d_11">
      <g>
       <use style="stroke:#000000;stroke-width:0.8;" x="50.14375" xlink:href="#mf6aacffe8f" y="207.331263"/>
      </g>
     </g>
     <g id="text_12">
      <!-- 0.04 -->
      <g transform="translate(20.878125 211.130482)scale(0.1 -0.1)">
       <use xlink:href="#DejaVuSans-48"/>
       <use x="63.623047" xlink:href="#DejaVuSans-46"/>
       <use x="95.410156" xlink:href="#DejaVuSans-48"/>
       <use x="159.033203" xlink:href="#DejaVuSans-52"/>
      </g>
     </g>
    </g>
    <g id="ytick_6">
     <g id="line2d_12">
      <g>
       <use style="stroke:#000000;stroke-width:0.8;" x="50.14375" xlink:href="#mf6aacffe8f" y="162.991158"/>
      </g>
     </g>
     <g id="text_13">
      <!-- 0.05 -->
      <g transform="translate(20.878125 166.790377)scale(0.1 -0.1)">
       <use xlink:href="#DejaVuSans-48"/>
       <use x="63.623047" xlink:href="#DejaVuSans-46"/>
       <use x="95.410156" xlink:href="#DejaVuSans-48"/>
       <use x="159.033203" xlink:href="#DejaVuSans-53"/>
      </g>
     </g>
    </g>
    <g id="ytick_7">
     <g id="line2d_13">
      <g>
       <use style="stroke:#000000;stroke-width:0.8;" x="50.14375" xlink:href="#mf6aacffe8f" y="118.651053"/>
      </g>
     </g>
     <g id="text_14">
      <!-- 0.06 -->
      <defs>
       <path d="M 33.015625 40.375 
Q 26.375 40.375 22.484375 35.828125 
Q 18.609375 31.296875 18.609375 23.390625 
Q 18.609375 15.53125 22.484375 10.953125 
Q 26.375 6.390625 33.015625 6.390625 
Q 39.65625 6.390625 43.53125 10.953125 
Q 47.40625 15.53125 47.40625 23.390625 
Q 47.40625 31.296875 43.53125 35.828125 
Q 39.65625 40.375 33.015625 40.375 
z
M 52.59375 71.296875 
L 52.59375 62.3125 
Q 48.875 64.0625 45.09375 64.984375 
Q 41.3125 65.921875 37.59375 65.921875 
Q 27.828125 65.921875 22.671875 59.328125 
Q 17.53125 52.734375 16.796875 39.40625 
Q 19.671875 43.65625 24.015625 45.921875 
Q 28.375 48.1875 33.59375 48.1875 
Q 44.578125 48.1875 50.953125 41.515625 
Q 57.328125 34.859375 57.328125 23.390625 
Q 57.328125 12.15625 50.6875 5.359375 
Q 44.046875 -1.421875 33.015625 -1.421875 
Q 20.359375 -1.421875 13.671875 8.265625 
Q 6.984375 17.96875 6.984375 36.375 
Q 6.984375 53.65625 15.1875 63.9375 
Q 23.390625 74.21875 37.203125 74.21875 
Q 40.921875 74.21875 44.703125 73.484375 
Q 48.484375 72.75 52.59375 71.296875 
z
" id="DejaVuSans-54"/>
      </defs>
      <g transform="translate(20.878125 122.450271)scale(0.1 -0.1)">
       <use xlink:href="#DejaVuSans-48"/>
       <use x="63.623047" xlink:href="#DejaVuSans-46"/>
       <use x="95.410156" xlink:href="#DejaVuSans-48"/>
       <use x="159.033203" xlink:href="#DejaVuSans-54"/>
      </g>
     </g>
    </g>
    <g id="ytick_8">
     <g id="line2d_14">
      <g>
       <use style="stroke:#000000;stroke-width:0.8;" x="50.14375" xlink:href="#mf6aacffe8f" y="74.310947"/>
      </g>
     </g>
     <g id="text_15">
      <!-- 0.07 -->
      <defs>
       <path d="M 8.203125 72.90625 
L 55.078125 72.90625 
L 55.078125 68.703125 
L 28.609375 0 
L 18.3125 0 
L 43.21875 64.59375 
L 8.203125 64.59375 
z
" id="DejaVuSans-55"/>
      </defs>
      <g transform="translate(20.878125 78.110166)scale(0.1 -0.1)">
       <use xlink:href="#DejaVuSans-48"/>
       <use x="63.623047" xlink:href="#DejaVuSans-46"/>
       <use x="95.410156" xlink:href="#DejaVuSans-48"/>
       <use x="159.033203" xlink:href="#DejaVuSans-55"/>
      </g>
     </g>
    </g>
    <g id="ytick_9">
     <g id="line2d_15">
      <g>
       <use style="stroke:#000000;stroke-width:0.8;" x="50.14375" xlink:href="#mf6aacffe8f" y="29.970842"/>
      </g>
     </g>
     <g id="text_16">
      <!-- 0.08 -->
      <defs>
       <path d="M 31.78125 34.625 
Q 24.75 34.625 20.71875 30.859375 
Q 16.703125 27.09375 16.703125 20.515625 
Q 16.703125 13.921875 20.71875 10.15625 
Q 24.75 6.390625 31.78125 6.390625 
Q 38.8125 6.390625 42.859375 10.171875 
Q 46.921875 13.96875 46.921875 20.515625 
Q 46.921875 27.09375 42.890625 30.859375 
Q 38.875 34.625 31.78125 34.625 
z
M 21.921875 38.8125 
Q 15.578125 40.375 12.03125 44.71875 
Q 8.5 49.078125 8.5 55.328125 
Q 8.5 64.0625 14.71875 69.140625 
Q 20.953125 74.21875 31.78125 74.21875 
Q 42.671875 74.21875 48.875 69.140625 
Q 55.078125 64.0625 55.078125 55.328125 
Q 55.078125 49.078125 51.53125 44.71875 
Q 48 40.375 41.703125 38.8125 
Q 48.828125 37.15625 52.796875 32.3125 
Q 56.78125 27.484375 56.78125 20.515625 
Q 56.78125 9.90625 50.3125 4.234375 
Q 43.84375 -1.421875 31.78125 -1.421875 
Q 19.734375 -1.421875 13.25 4.234375 
Q 6.78125 9.90625 6.78125 20.515625 
Q 6.78125 27.484375 10.78125 32.3125 
Q 14.796875 37.15625 21.921875 38.8125 
z
M 18.3125 54.390625 
Q 18.3125 48.734375 21.84375 45.5625 
Q 25.390625 42.390625 31.78125 42.390625 
Q 38.140625 42.390625 41.71875 45.5625 
Q 45.3125 48.734375 45.3125 54.390625 
Q 45.3125 60.0625 41.71875 63.234375 
Q 38.140625 66.40625 31.78125 66.40625 
Q 25.390625 66.40625 21.84375 63.234375 
Q 18.3125 60.0625 18.3125 54.390625 
z
" id="DejaVuSans-56"/>
      </defs>
      <g transform="translate(20.878125 33.770061)scale(0.1 -0.1)">
       <use xlink:href="#DejaVuSans-48"/>
       <use x="63.623047" xlink:href="#DejaVuSans-46"/>
       <use x="95.410156" xlink:href="#DejaVuSans-48"/>
       <use x="159.033203" xlink:href="#DejaVuSans-56"/>
      </g>
     </g>
    </g>
    <g id="text_17">
     <!-- Time -->
     <defs>
      <path d="M -0.296875 72.90625 
L 61.375 72.90625 
L 61.375 64.59375 
L 35.5 64.59375 
L 35.5 0 
L 25.59375 0 
L 25.59375 64.59375 
L -0.296875 64.59375 
z
" id="DejaVuSans-84"/>
      <path d="M 52 44.1875 
Q 55.375 50.25 60.0625 53.125 
Q 64.75 56 71.09375 56 
Q 79.640625 56 84.28125 50.015625 
Q 88.921875 44.046875 88.921875 33.015625 
L 88.921875 0 
L 79.890625 0 
L 79.890625 32.71875 
Q 79.890625 40.578125 77.09375 44.375 
Q 74.3125 48.1875 68.609375 48.1875 
Q 61.625 48.1875 57.5625 43.546875 
Q 53.515625 38.921875 53.515625 30.90625 
L 53.515625 0 
L 44.484375 0 
L 44.484375 32.71875 
Q 44.484375 40.625 41.703125 44.40625 
Q 38.921875 48.1875 33.109375 48.1875 
Q 26.21875 48.1875 22.15625 43.53125 
Q 18.109375 38.875 18.109375 30.90625 
L 18.109375 0 
L 9.078125 0 
L 9.078125 54.6875 
L 18.109375 54.6875 
L 18.109375 46.1875 
Q 21.1875 51.21875 25.484375 53.609375 
Q 29.78125 56 35.6875 56 
Q 41.65625 56 45.828125 52.96875 
Q 50 49.953125 52 44.1875 
z
" id="DejaVuSans-109"/>
     </defs>
     <g transform="translate(14.798438 209.133594)rotate(-90)scale(0.1 -0.1)">
      <use xlink:href="#DejaVuSans-84"/>
      <use x="57.958984" xlink:href="#DejaVuSans-105"/>
      <use x="85.742188" xlink:href="#DejaVuSans-109"/>
      <use x="183.154297" xlink:href="#DejaVuSans-101"/>
     </g>
    </g>
   </g>
   <g id="line2d_16">
    <path clip-path="url(#p046cdda494)" d="M 66.826705 368.232909 
L 67.496703 366.046722 
L 68.166701 364.686169 
L 68.836699 365.280287 
L 69.506697 366.684183 
L 70.176695 367.018243 
L 71.516692 364.805627 
L 72.856688 367.0785 
L 73.526686 366.139751 
L 74.196684 364.688283 
L 74.866683 365.349002 
L 75.536681 365.606947 
L 76.206679 365.377545 
L 76.876677 364.002193 
L 77.546675 365.479032 
L 78.216674 363.829877 
L 78.886672 361.30223 
L 79.55667 362.951385 
L 80.226668 364.144908 
L 80.896666 361.421688 
L 81.566664 362.336123 
L 82.906661 359.333816 
L 83.576659 358.548353 
L 84.246657 362.100379 
L 84.916655 362.261066 
L 85.586653 361.422745 
L 86.256652 362.605697 
L 86.92665 362.136322 
L 87.596648 360.615082 
L 88.266646 360.459681 
L 88.936644 361.364602 
L 89.606642 360.038935 
L 90.276641 360.912142 
L 90.946639 360.739826 
L 91.616637 359.537846 
L 92.286635 359.320073 
L 92.956633 360.748283 
L 93.626632 359.110757 
L 94.29663 360.387795 
L 94.966628 358.944785 
L 95.636626 355.516446 
L 96.306624 359.245015 
L 96.976622 358.650897 
L 97.646621 358.260808 
L 98.316619 357.706861 
L 98.986617 356.446738 
L 99.656615 358.784098 
L 100.326613 358.566325 
L 100.996611 357.541946 
L 101.66661 357.754433 
L 102.336608 357.639204 
L 103.676604 356.912941 
L 104.346602 355.226786 
L 105.0166 355.493188 
L 105.686599 356.07885 
L 106.356597 354.753183 
L 107.026595 355.459359 
L 107.696593 354.211922 
L 108.366591 350.949555 
L 109.03659 353.657975 
L 109.706588 351.893591 
L 110.376586 352.020449 
L 111.046584 352.483481 
L 111.716582 352.695968 
L 112.38658 351.2593 
L 113.056579 352.580739 
L 113.726577 353.051171 
L 114.396575 351.174728 
L 115.066573 352.053221 
L 115.736571 350.479123 
L 116.406569 350.191578 
L 117.076568 350.075292 
L 117.746566 351.134557 
L 118.416564 349.77929 
L 119.086562 349.978034 
L 119.75656 347.991648 
L 120.426559 350.820583 
L 121.096557 347.118442 
L 121.766555 350.225407 
L 122.436553 348.894455 
L 123.106551 348.333108 
L 123.776549 346.886926 
L 124.446548 348.341565 
L 125.116546 346.044377 
L 125.786544 348.021249 
L 126.456542 347.565617 
L 127.12654 348.319365 
L 127.796538 346.367865 
L 128.466537 347.086727 
L 129.136535 346.418608 
L 129.806533 347.05607 
L 130.476531 340.918254 
L 131.146529 336.914825 
L 131.816527 341.677288 
L 132.486526 336.781625 
L 133.156524 341.487001 
L 133.826522 343.920562 
L 134.49652 340.648681 
L 135.166518 340.112706 
L 135.836517 332.640766 
L 136.506515 341.025027 
L 137.176513 335.269899 
L 137.846511 334.202177 
L 138.516509 341.730146 
L 139.186507 327.192212 
L 140.526504 339.886475 
L 141.196502 329.550715 
L 141.8665 331.221013 
L 142.536498 340.08522 
L 143.206496 330.056033 
L 143.876495 334.581694 
L 144.546493 331.846846 
L 145.216491 332.786653 
L 145.886489 335.668445 
L 147.226485 336.440165 
L 147.896484 334.352293 
L 148.566482 329.417514 
L 149.23648 336.99834 
L 149.906478 332.672481 
L 150.576476 333.4442 
L 151.916473 338.015319 
L 152.586471 336.906368 
L 153.256469 338.173892 
L 153.926467 338.884297 
L 154.596465 336.095534 
L 155.266464 330.476779 
L 155.936462 333.067855 
L 156.60646 333.319457 
L 157.946456 339.030184 
L 158.616454 331.288671 
L 159.286453 335.168413 
L 159.956451 336.860911 
L 160.626449 332.02339 
L 161.296447 336.228735 
L 161.966445 336.155791 
L 162.636444 330.636409 
L 163.306442 335.713903 
L 163.97644 332.130162 
L 164.646438 329.58243 
L 165.316436 334.556323 
L 165.986434 334.79101 
L 166.656433 321.618915 
L 167.326431 320.543793 
L 167.996429 322.190833 
L 168.666427 331.852132 
L 169.336425 329.453457 
L 170.006423 321.388456 
L 170.676422 328.317021 
L 171.34642 319.383042 
L 172.016418 333.162998 
L 172.686416 330.154348 
L 173.356414 316.239076 
L 174.026412 321.74683 
L 174.696411 323.901303 
L 175.366409 329.164855 
L 176.036407 332.59108 
L 176.706405 330.033833 
L 177.376403 331.355271 
L 178.046402 330.636409 
L 178.7164 330.322435 
L 179.386398 330.862639 
L 180.056396 326.650951 
L 180.726394 332.272878 
L 181.396392 331.824646 
L 182.066391 325.785145 
L 182.736389 331.247442 
L 183.406387 331.444072 
L 184.076385 328.558051 
L 184.746383 329.878432 
L 185.416381 328.508365 
L 186.08638 330.215663 
L 187.426376 328.252534 
L 188.096374 330.916554 
L 188.766372 327.980847 
L 189.43637 326.322178 
L 190.106369 329.478829 
L 190.776367 321.652744 
L 191.446365 328.42485 
L 192.786361 323.711016 
L 193.45636 324.008075 
L 194.126358 314.789723 
L 194.796356 314.914467 
L 195.466354 321.448714 
L 196.136352 326.047318 
L 196.80635 326.06529 
L 197.476349 320.753109 
L 198.146347 323.798759 
L 198.816345 313.229369 
L 199.486343 320.330249 
L 200.156341 317.103825 
L 200.826339 325.200541 
L 201.496338 321.488885 
L 202.166336 316.714794 
L 202.836334 321.228826 
L 203.506332 321.373656 
L 204.17633 322.469921 
L 204.846328 319.307984 
L 205.516327 324.153962 
L 206.186325 320.636822 
L 206.856323 315.307727 
L 207.526321 318.461206 
L 208.196319 318.523578 
L 209.536316 319.907388 
L 210.206314 320.997311 
L 210.876312 318.043632 
L 211.54631 321.506857 
L 212.886307 301.269825 
L 213.556305 307.264926 
L 214.226303 319.020439 
L 214.896301 305.899087 
L 215.566299 297.997944 
L 216.236297 314.909181 
L 216.906296 311.028381 
L 217.576294 312.735679 
L 218.246292 313.698744 
L 218.91629 319.014096 
L 219.586288 321.36097 
L 220.256287 318.646208 
L 220.926285 309.547314 
L 221.596283 315.698872 
L 222.936279 314.909181 
L 223.606277 318.607093 
L 224.276276 319.081754 
L 224.946274 318.199033 
L 226.28627 317.720144 
L 226.956268 319.374585 
L 227.626266 316.158733 
L 228.296265 316.905081 
L 228.966263 316.845881 
L 229.636261 317.529857 
L 230.306259 317.566857 
L 230.976257 316.90931 
L 231.646255 317.006567 
L 232.316254 317.667286 
L 232.986252 314.971553 
L 233.65625 313.672315 
L 234.326248 316.013903 
L 234.996246 315.884931 
L 235.666245 315.907131 
L 236.336243 313.787544 
L 237.006241 312.97671 
L 237.676239 314.315062 
L 238.346237 313.737858 
L 239.016235 315.086782 
L 240.356232 312.563364 
L 241.02623 312.546449 
L 241.696228 313.303369 
L 242.366226 313.462999 
L 243.036224 308.297762 
L 243.706223 309.27774 
L 244.376221 309.291483 
L 245.046219 312.07496 
L 245.716217 313.915459 
L 246.386215 311.117182 
L 247.056213 311.09181 
L 247.726212 312.221904 
L 248.39621 309.137139 
L 249.066208 305.309197 
L 249.736206 306.848408 
L 250.406204 312.270533 
L 251.076203 308.07576 
L 251.746201 312.257847 
L 252.416199 304.774279 
L 253.086197 308.190989 
L 253.756195 309.18894 
L 254.426193 308.404534 
L 255.096192 306.400177 
L 255.76619 308.768194 
L 256.436188 308.581078 
L 257.106186 307.527099 
L 257.776184 305.774343 
L 258.446182 308.856994 
L 259.116181 308.040874 
L 259.786179 307.6603 
L 260.456177 309.86763 
L 261.126175 305.150625 
L 261.796173 306.598921 
L 262.466172 300.246504 
L 263.13617 306.183461 
L 263.806168 306.023831 
L 264.476166 308.43202 
L 265.146164 305.23414 
L 265.816162 305.722543 
L 266.486161 307.619071 
L 267.156159 305.229911 
L 267.826157 306.883294 
L 268.496155 302.578577 
L 269.166153 303.913759 
L 269.836151 304.228789 
L 270.50615 306.151746 
L 271.176148 307.176125 
L 271.846146 305.925516 
L 272.516144 302.556377 
L 273.186142 303.439098 
L 273.85614 304.104046 
L 274.526139 302.728693 
L 275.196137 303.891558 
L 276.536133 301.802629 
L 277.206131 298.76015 
L 277.87613 301.612342 
L 278.546128 302.750893 
L 279.216126 303.11561 
L 279.886124 302.817494 
L 280.556122 303.658985 
L 281.22612 302.871408 
L 281.896119 301.873458 
L 282.566117 304.612535 
L 283.236115 302.294204 
L 283.906113 304.231961 
L 284.576111 302.906294 
L 285.246109 299.792986 
L 285.916108 299.705242 
L 286.586106 300.214789 
L 287.256104 298.104717 
L 287.926102 300.622849 
L 288.5961 302.582806 
L 289.266098 300.697907 
L 289.936097 301.917858 
L 290.606095 301.926316 
L 291.276093 299.448355 
L 291.946091 301.642999 
L 292.616089 302.059517 
L 293.286088 303.140982 
L 293.956086 299.217896 
L 294.626084 302.231832 
L 295.296082 247.197635 
L 295.96608 249.286564 
L 296.636078 217.639707 
L 297.976075 289.599941 
L 298.646073 293.718599 
L 299.316071 271.53641 
L 299.986069 286.522576 
L 300.656067 287.626241 
L 301.326066 284.176759 
L 301.996064 282.074087 
L 302.666062 258.713175 
L 303.33606 282.133287 
L 304.006058 251.191549 
L 304.676056 290.048173 
L 305.346055 196.210209 
L 306.016053 24.445455 
L 306.686051 269.500339 
L 307.356049 247.627895 
L 308.026047 246.470315 
L 308.696046 253.972912 
L 309.366044 291.608527 
L 310.036042 283.444154 
L 310.70604 291.475326 
L 311.376038 289.155938 
L 312.046036 274.896035 
L 312.716035 278.182716 
L 313.386033 292.973308 
L 314.056031 294.090716 
L 314.726029 292.273474 
L 315.396027 294.707035 
L 316.066025 295.434354 
L 316.736024 296.760021 
L 317.406022 288.903279 
L 318.07602 286.035229 
L 318.746018 292.327389 
L 319.416016 282.908178 
L 320.086015 290.353689 
L 320.756013 291.360096 
L 321.426011 277.304224 
L 322.096009 289.710942 
L 322.766007 292.747078 
L 323.436005 283.60484 
L 324.106004 280.699791 
L 324.776002 289.197167 
L 325.446 287.656898 
L 326.115998 271.694983 
L 326.785996 290.083059 
L 327.455994 286.163145 
L 328.125993 275.012321 
L 328.795991 287.47084 
L 329.465989 285.597569 
L 330.135987 274.591575 
L 330.805985 274.130658 
L 331.475983 288.261588 
L 332.145982 277.330652 
L 332.81598 272.692933 
L 333.485978 286.855578 
L 334.155976 283.502297 
L 334.825974 278.449118 
L 335.495973 279.522125 
L 336.165971 277.955428 
L 336.835969 287.626241 
L 337.505967 273.921342 
L 338.175965 285.985543 
L 338.845963 288.92125 
L 339.515962 286.243488 
L 340.18596 290.065087 
L 340.855958 291.093695 
L 341.525956 286.740349 
L 342.195954 291.529241 
L 342.865952 291.794585 
L 343.535951 291.529241 
L 344.205949 288.039587 
L 344.875947 291.294553 
L 345.545945 288.987851 
L 346.215943 284.581648 
L 346.885941 287.968758 
L 347.55594 286.788978 
L 348.225938 288.106187 
L 348.895936 290.114773 
L 349.565934 285.324824 
L 350.235932 289.594655 
L 350.905931 286.364003 
L 351.575929 287.219238 
L 352.245927 290.889665 
L 352.915925 287.299581 
L 353.585923 288.85465 
L 354.255921 289.333539 
L 354.92592 289.465683 
L 355.595918 288.757392 
L 356.265916 290.703606 
L 356.935914 287.971929 
L 357.605912 287.430668 
L 358.27591 287.581841 
L 358.945909 287.573383 
L 359.615907 283.76447 
L 360.285905 289.05868 
L 360.955903 286.274145 
L 361.625901 284.518218 
L 362.2959 285.378739 
L 362.965898 287.111409 
L 363.635896 286.455975 
L 364.305894 290.270174 
L 364.975892 284.713791 
L 365.64589 271.574468 
L 366.315889 262.951291 
L 366.985887 277.553711 
L 367.655885 279.157408 
L 368.325883 275.659297 
L 368.995881 284.482275 
L 369.665879 285.227566 
L 371.005876 285.495026 
L 371.675874 284.021358 
L 372.345872 285.26351 
L 373.01587 286.140944 
L 374.355867 283.827899 
L 375.025865 284.496018 
L 375.695863 283.9833 
L 376.365861 278.820177 
L 377.035859 278.599233 
L 377.705858 281.719941 
L 378.375856 280.868935 
L 379.045854 280.492589 
L 379.715852 280.549676 
L 380.38585 269.718112 
L 381.055848 278.554833 
L 381.725847 280.505275 
L 382.395845 280.425989 
L 383.065843 275.406638 
L 383.735841 277.362367 
L 384.405839 280.661733 
L 385.745836 277.579083 
L 386.415834 280.630019 
L 387.085832 277.424739 
L 387.75583 278.151001 
L 388.425828 277.982914 
L 389.095826 280.850963 
L 389.765825 279.303295 
L 390.435823 282.665034 
L 391.105821 273.659169 
L 391.775819 243.476465 
L 392.445817 280.992622 
L 393.115816 282.913464 
L 393.785814 278.284202 
L 394.455812 279.921728 
L 395.12581 280.82982 
L 395.795808 278.253545 
L 396.465806 277.084336 
L 397.135805 281.334081 
L 397.805803 280.346703 
L 399.145799 280.364674 
L 399.815797 280.496818 
L 400.485795 277.756684 
L 400.485795 277.756684 
" style="fill:none;stroke:#1f77b4;stroke-linecap:square;stroke-width:1.5;"/>
   </g>
   <g id="line2d_17">
    <path clip-path="url(#p046cdda494)" d="M 66.826705 368.681141 
L 67.496703 366.990757 
L 68.166701 367.873478 
L 70.176695 367.155672 
L 70.846694 368.360824 
L 71.516692 367.665219 
L 72.18669 366.143979 
L 72.856688 366.276123 
L 73.526686 365.731691 
L 74.196684 365.417717 
L 74.866683 367.701162 
L 75.536681 365.927264 
L 76.876677 364.344709 
L 77.546675 364.082536 
L 78.216674 365.204173 
L 78.886672 361.080229 
L 79.55667 364.242166 
L 80.226668 365.766577 
L 80.896666 365.417717 
L 81.566664 366.130236 
L 82.236663 362.68604 
L 82.906661 366.193665 
L 83.576659 365.319402 
L 84.246657 363.461989 
L 84.916655 366.078436 
L 86.92665 363.954621 
L 88.266646 363.368959 
L 88.936644 364.739026 
L 89.606642 366.369152 
L 90.276641 362.712469 
L 90.946639 360.534739 
L 91.616637 363.528589 
L 92.286635 362.432324 
L 92.956633 360.294766 
L 93.626632 361.467146 
L 94.29663 364.818313 
L 94.966628 362.09615 
L 95.636626 363.262187 
L 96.306624 362.021092 
L 96.976622 362.458753 
L 97.646621 360.419509 
L 98.316619 360.295823 
L 98.986617 364.605825 
L 100.326613 359.985021 
L 100.996611 365.062514 
L 101.66661 363.297073 
L 102.336608 363.284387 
L 103.006606 362.569754 
L 103.676604 360.44171 
L 105.0166 357.994406 
L 105.686599 364.760169 
L 106.356597 361.514717 
L 107.026595 359.989249 
L 107.696593 360.831798 
L 108.366591 357.307258 
L 109.03659 361.547489 
L 109.706588 357.262858 
L 110.376586 358.802069 
L 111.046584 357.190972 
L 111.716582 356.908713 
L 112.38658 359.581189 
L 113.056579 359.093843 
L 114.396575 355.382187 
L 115.066573 359.0357 
L 115.736571 358.974385 
L 116.406569 356.438281 
L 117.746566 358.882413 
L 118.416564 358.717497 
L 119.086562 362.149008 
L 119.75656 347.809818 
L 120.426559 358.616011 
L 121.766555 340.831568 
L 122.436553 345.344543 
L 123.106551 360.028364 
L 123.776549 349.117514 
L 124.446548 349.432544 
L 125.116546 347.268557 
L 125.786544 351.946448 
L 126.456542 350.039349 
L 127.12654 349.888176 
L 127.796538 357.89292 
L 128.466537 340.684624 
L 129.136535 348.949427 
L 129.806533 348.394423 
L 130.476531 361.471374 
L 131.146529 351.2593 
L 131.816527 355.187672 
L 132.486526 355.227843 
L 133.156524 355.516446 
L 133.826522 360.522053 
L 134.49652 348.229507 
L 135.166518 353.009942 
L 135.836517 344.990398 
L 136.506515 354.918098 
L 137.176513 345.726175 
L 137.846511 355.204586 
L 138.516509 345.162714 
L 139.186507 346.183921 
L 139.856506 346.905955 
L 140.526504 344.26625 
L 141.196502 342.47438 
L 141.8665 347.455673 
L 142.536498 335.181099 
L 143.206496 348.852169 
L 143.876495 345.681774 
L 144.546493 348.824683 
L 145.216491 346.553924 
L 145.886489 360.473424 
L 146.556487 351.178957 
L 147.226485 344.506223 
L 147.896484 328.610908 
L 148.566482 355.742676 
L 149.23648 294.482919 
L 149.906478 334.20112 
L 150.576476 353.879977 
L 151.246475 356.610596 
L 152.586471 350.111235 
L 153.926467 354.983642 
L 154.596465 353.40003 
L 155.266464 353.396859 
L 155.936462 355.694047 
L 156.60646 354.518495 
L 157.276458 350.670468 
L 157.946456 355.301844 
L 158.616454 355.565074 
L 159.286453 354.895898 
L 159.956451 351.663132 
L 160.626449 354.646411 
L 161.296447 332.951568 
L 161.966445 348.307736 
L 162.636444 342.453237 
L 163.306442 345.569717 
L 164.646438 332.40185 
L 165.316436 351.424216 
L 165.986434 339.504844 
L 166.656433 352.31328 
L 167.326431 358.66464 
L 167.996429 354.951927 
L 168.666427 358.503953 
L 169.336425 357.636032 
L 170.006423 355.683475 
L 170.676422 355.439274 
L 171.34642 355.023813 
L 172.016418 357.115914 
L 172.686416 350.203207 
L 173.356414 359.090671 
L 174.026412 357.90032 
L 174.696411 354.061806 
L 175.366409 356.979542 
L 176.036407 354.802869 
L 176.706405 354.621039 
L 177.376403 357.360116 
L 178.046402 358.730183 
L 179.386398 350.288836 
L 180.726394 361.92172 
L 181.396392 356.132764 
L 182.066391 352.970827 
L 182.736389 357.812576 
L 183.406387 359.594932 
L 184.076385 356.876998 
L 184.746383 356.416081 
L 185.416381 356.310366 
L 186.08638 361.008342 
L 186.756378 354.864184 
L 187.426376 355.583046 
L 188.096374 357.071514 
L 188.766372 358.012378 
L 189.43637 357.321001 
L 190.106369 357.39183 
L 190.776367 354.468809 
L 191.446365 358.988128 
L 192.116363 354.637953 
L 192.786361 354.008949 
L 193.45636 359.462788 
L 194.126358 355.910763 
L 194.796356 357.058828 
L 196.136352 355.475217 
L 196.80635 357.891863 
L 197.476349 358.757669 
L 198.146347 356.030221 
L 198.816345 357.950006 
L 199.486343 355.152786 
L 200.156341 354.78384 
L 200.826339 359.51036 
L 201.496338 355.129528 
L 202.166336 357.680433 
L 202.836334 354.007892 
L 203.506332 358.016606 
L 204.846328 356.030221 
L 205.516327 355.818791 
L 206.186325 356.402338 
L 206.856323 355.029099 
L 207.526321 356.574653 
L 208.196319 353.489888 
L 208.866318 356.132764 
L 209.536316 360.588654 
L 210.206314 358.114921 
L 210.876312 358.570553 
L 211.54631 357.124371 
L 212.216308 353.289029 
L 212.886307 357.293515 
L 213.556305 352.665311 
L 214.226303 357.0768 
L 214.896301 355.746904 
L 215.566299 359.830677 
L 216.236297 357.723776 
L 216.906296 358.397181 
L 217.576294 356.646539 
L 218.246292 358.159322 
L 218.91629 357.927806 
L 219.586288 357.546174 
L 220.256287 358.55681 
L 220.926285 355.940363 
L 221.596283 358.774583 
L 222.266281 354.956156 
L 222.936279 354.76164 
L 224.276276 359.519874 
L 224.946274 356.628568 
L 225.616272 358.95747 
L 226.28627 353.702375 
L 226.956268 356.180336 
L 227.626266 360.702826 
L 228.296265 356.993285 
L 228.966263 357.897148 
L 229.636261 357.498603 
L 230.306259 356.074621 
L 230.976257 357.995463 
L 231.646255 356.526024 
L 232.316254 355.581989 
L 232.986252 359.182643 
L 233.65625 356.579939 
L 234.326248 357.081028 
L 234.996246 356.46471 
L 235.666245 354.022692 
L 236.336243 359.266158 
L 237.006241 356.341023 
L 237.676239 357.794605 
L 238.346237 358.25658 
L 239.016235 353.542746 
L 239.686234 355.202472 
L 240.356232 355.174986 
L 241.02623 357.383373 
L 241.696228 357.298801 
L 242.366226 356.185622 
L 243.036224 356.681425 
L 243.706223 360.611911 
L 244.376221 356.417138 
L 245.046219 358.641382 
L 245.716217 356.380137 
L 246.386215 357.182515 
L 247.056213 357.493317 
L 247.726212 356.776569 
L 248.39621 358.402466 
L 249.066208 354.17175 
L 249.736206 353.786947 
L 250.406204 354.904355 
L 251.076203 354.392695 
L 251.746201 355.325101 
L 252.416199 356.864312 
L 253.086197 354.69504 
L 253.756195 355.706733 
L 254.426193 355.605246 
L 255.096192 359.090671 
L 255.76619 356.158136 
L 257.106186 358.539896 
L 257.776184 361.292716 
L 258.446182 355.581989 
L 259.786179 358.73124 
L 260.456177 355.370559 
L 261.126175 356.016478 
L 261.796173 358.239665 
L 263.13617 355.665504 
L 263.806168 356.376966 
L 264.476166 358.381323 
L 265.146164 354.882155 
L 265.816162 358.216408 
L 266.486161 356.253279 
L 267.156159 356.091535 
L 267.826157 358.867613 
L 268.496155 356.885455 
L 269.166153 355.498474 
L 269.836151 357.454202 
L 270.50615 351.480245 
L 271.176148 359.324302 
L 271.846146 355.827248 
L 272.516144 357.032399 
L 273.186142 357.000685 
L 273.85614 356.243765 
L 274.526139 355.032271 
L 275.196137 359.644618 
L 275.866135 354.066035 
L 276.536133 355.361044 
L 277.206131 355.484731 
L 277.87613 357.621232 
L 278.546128 355.768047 
L 279.216126 357.405573 
L 279.886124 355.30713 
L 280.556122 357.927806 
L 281.22612 355.573532 
L 281.896119 358.663583 
L 282.566117 354.218265 
L 283.236115 358.349609 
L 283.906113 360.481881 
L 284.576111 350.678925 
L 285.246109 357.30303 
L 285.916108 355.308187 
L 286.586106 355.73739 
L 287.256104 357.565203 
L 287.926102 353.471916 
L 288.5961 358.030349 
L 289.266098 357.254401 
L 289.936097 358.327409 
L 290.606095 355.098871 
L 291.276093 357.77769 
L 291.946091 356.37908 
L 292.616089 353.80069 
L 293.286088 358.52721 
L 293.956086 358.677325 
L 294.626084 359.617132 
L 295.296082 355.967849 
L 295.96608 359.120272 
L 296.636078 357.454202 
L 297.306077 358.270323 
L 297.976075 356.700454 
L 298.646073 358.33058 
L 299.316071 355.648589 
L 299.986069 359.572732 
L 300.656067 357.186743 
L 301.326066 358.818984 
L 301.996064 360.034707 
L 302.666062 358.269265 
L 303.33606 360.352909 
L 304.006058 359.223872 
L 304.676056 357.523974 
L 305.346055 359.625589 
L 306.016053 358.281951 
L 306.686051 357.461602 
L 307.356049 358.456381 
L 308.026047 359.661533 
L 308.696046 360.490339 
L 309.366044 357.022885 
L 310.036042 358.867613 
L 310.70604 359.045214 
L 311.376038 358.752383 
L 312.046036 358.912013 
L 312.716035 360.991428 
L 313.386033 358.721726 
L 314.056031 360.02625 
L 315.396027 358.863384 
L 316.066025 360.512539 
L 316.736024 358.07475 
L 317.406022 359.223872 
L 318.07602 360.012507 
L 318.746018 358.229094 
L 319.416016 360.73454 
L 320.086015 356.718426 
L 320.756013 359.444817 
L 321.426011 358.589582 
L 322.096009 359.679504 
L 323.436005 356.664511 
L 324.106004 359.922649 
L 324.776002 358.334809 
L 325.446 358.14875 
L 326.115998 356.406566 
L 326.785996 360.809598 
L 327.455994 359.332759 
L 328.125993 358.842241 
L 328.795991 359.519874 
L 329.465989 359.280958 
L 330.135987 357.324173 
L 330.805985 359.024071 
L 331.475983 353.051171 
L 332.145982 356.48691 
L 332.81598 357.634975 
L 333.485978 354.944527 
L 334.155976 357.781919 
L 334.825974 358.770355 
L 335.495973 357.847462 
L 336.165971 358.32318 
L 336.835969 356.677197 
L 337.505967 359.107586 
L 338.845963 356.313537 
L 339.515962 361.258887 
L 340.18596 359.745047 
L 340.855958 358.867613 
L 341.525956 362.375238 
L 342.195954 358.673097 
L 342.865952 358.796783 
L 343.535951 362.339295 
L 344.205949 360.952313 
L 344.875947 358.68684 
L 345.545945 361.879434 
L 346.215943 362.343523 
L 346.885941 359.438474 
L 347.55594 360.62354 
L 348.225938 360.826512 
L 348.895936 360.215479 
L 349.565934 360.55271 
L 350.235932 360.101307 
L 350.905931 360.03365 
L 351.575929 359.732362 
L 352.245927 360.987199 
L 352.915925 361.23563 
L 353.585923 363.741076 
L 354.255921 360.933285 
L 354.92592 359.151986 
L 355.595918 360.154165 
L 356.265916 358.86867 
L 356.935914 360.353966 
L 357.605912 359.209072 
L 358.27591 361.195458 
L 358.945909 357.099 
L 359.615907 360.791626 
L 360.285905 361.830805 
L 360.955903 360.162622 
L 361.625901 362.756869 
L 362.2959 357.1212 
L 362.965898 356.332566 
L 363.635896 362.512667 
L 364.305894 360.605568 
L 364.975892 350.598581 
L 365.64589 361.179601 
L 366.315889 360.29688 
L 366.985887 353.205515 
L 367.655885 358.500781 
L 368.325883 361.888949 
L 368.995881 358.526153 
L 369.665879 362.636354 
L 370.335878 363.79922 
L 371.005876 360.987199 
L 371.675874 361.772662 
L 372.345872 362.02955 
L 373.01587 360.770483 
L 373.685868 361.195458 
L 374.355867 360.726083 
L 375.025865 360.84977 
L 375.695863 361.768434 
L 376.365861 361.338173 
L 377.035859 358.94267 
L 377.705858 360.082278 
L 378.375856 364.308766 
L 379.045854 362.681812 
L 379.715852 359.421559 
L 380.38585 361.886834 
L 381.055848 359.719676 
L 381.725847 361.768434 
L 382.395845 361.505203 
L 383.065843 362.508439 
L 383.735841 361.169029 
L 384.405839 362.469324 
L 385.075837 362.237808 
L 385.745836 360.588654 
L 386.415834 362.880556 
L 387.085832 359.324302 
L 387.75583 360.398366 
L 388.425828 364.787655 
L 389.095826 362.132093 
L 389.765825 362.783298 
L 390.435823 363.88802 
L 391.105821 364.05505 
L 391.775819 360.828627 
L 392.445817 359.804248 
L 393.115816 364.65974 
L 393.785814 362.858356 
L 394.455812 361.821291 
L 395.795808 364.01065 
L 396.465806 364.551911 
L 397.135805 360.512539 
L 397.805803 363.112072 
L 398.475801 364.042364 
L 399.145799 362.774841 
L 399.815797 362.818184 
L 400.485795 364.188251 
L 400.485795 364.188251 
" style="fill:none;stroke:#ff7f0e;stroke-linecap:square;stroke-width:1.5;"/>
   </g>
   <g id="line2d_18">
    <path clip-path="url(#p046cdda494)" d="M 66.826705 368.156794 
L 67.496703 366.126008 
L 68.166701 369.354545 
L 68.836699 368.098651 
L 69.506697 368.62194 
L 70.176695 368.231852 
L 70.846694 369.097658 
L 71.516692 367.053129 
L 72.18669 368.138822 
L 72.856688 366.278238 
L 73.526686 366.43681 
L 74.196684 368.126137 
L 75.536681 368.078565 
L 76.876677 366.525611 
L 77.546675 366.23278 
L 78.216674 366.843813 
L 78.886672 366.840642 
L 79.55667 367.319531 
L 80.226668 368.698055 
L 80.896666 368.75197 
L 81.566664 366.454782 
L 82.236663 369.119858 
L 82.906661 368.241366 
L 83.576659 366.628154 
L 84.246657 365.812034 
L 84.916655 367.855506 
L 85.586653 368.821742 
L 86.256652 368.334395 
L 87.596648 366.169351 
L 88.266646 367.363931 
L 88.936644 366.690526 
L 89.606642 368.196966 
L 90.276641 366.010778 
L 90.946639 367.536247 
L 91.616637 368.188508 
L 92.286635 361.677519 
L 92.956633 357.511288 
L 93.626632 366.990757 
L 94.29663 368.495082 
L 94.966628 367.558447 
L 95.636626 366.282466 
L 96.306624 367.491846 
L 96.976622 368.276252 
L 97.646621 368.121908 
L 98.316619 366.278238 
L 99.656615 367.523561 
L 100.326613 365.173515 
L 100.996611 360.358195 
L 101.66661 366.371267 
L 103.006606 368.178994 
L 103.676604 366.849099 
L 104.346602 368.73717 
L 105.0166 367.748734 
L 105.686599 368.027822 
L 106.356597 364.557197 
L 107.026595 369.133601 
L 107.696593 369.155801 
L 108.366591 366.529839 
L 109.03659 365.497003 
L 109.706588 366.981243 
L 110.376586 368.174766 
L 111.046584 361.740948 
L 111.716582 360.034707 
L 112.38658 367.500303 
L 113.056579 367.541532 
L 113.726577 367.887221 
L 114.396575 364.188251 
L 115.066573 367.229673 
L 115.736571 361.470317 
L 116.406569 348.35848 
L 117.076568 364.747484 
L 117.746566 367.793134 
L 118.416564 367.088015 
L 119.086562 365.758119 
L 119.75656 367.593333 
L 120.426559 364.937771 
L 121.096557 367.344902 
L 121.766555 358.296751 
L 122.436553 368.223394 
L 123.106551 366.170408 
L 123.776549 365.776091 
L 124.446548 361.163743 
L 125.116546 367.620819 
L 125.786544 367.057357 
L 126.456542 363.128986 
L 127.12654 364.100508 
L 127.796538 367.057357 
L 129.136535 367.057357 
L 129.806533 368.406281 
L 130.476531 368.286823 
L 131.146529 361.595061 
L 131.816527 357.444688 
L 132.486526 367.526732 
L 133.156524 368.378796 
L 133.826522 366.968557 
L 134.49652 366.047779 
L 135.166518 368.356595 
L 135.836517 367.834363 
L 136.506515 365.415603 
L 137.176513 359.417331 
L 137.846511 367.602847 
L 138.516509 367.934792 
L 139.186507 365.931492 
L 139.856506 366.560497 
L 140.526504 368.051079 
L 141.196502 368.485568 
L 141.8665 365.812034 
L 142.536498 361.214487 
L 143.206496 368.196966 
L 143.876495 366.657755 
L 144.546493 367.57219 
L 145.216491 364.22948 
L 145.886489 367.035157 
L 146.556487 367.567961 
L 147.226485 363.542332 
L 147.896484 361.585546 
L 148.566482 367.789963 
L 149.23648 368.579654 
L 149.906478 367.501361 
L 150.576476 364.952571 
L 151.246475 367.82802 
L 151.916473 366.197894 
L 152.586471 361.976692 
L 153.256469 360.921656 
L 153.926467 366.946357 
L 154.596465 365.673547 
L 155.266464 366.401924 
L 155.936462 364.401795 
L 156.60646 366.715898 
L 157.276458 357.493317 
L 158.616454 367.648305 
L 159.286453 367.683191 
L 159.956451 367.96545 
L 160.626449 366.725412 
L 161.296447 368.411567 
L 161.966445 362.312866 
L 162.636444 366.679955 
L 163.306442 362.015807 
L 163.97644 367.311074 
L 164.646438 367.749791 
L 165.316436 366.80047 
L 165.986434 367.362874 
L 166.656433 368.578597 
L 167.326431 367.881935 
L 167.996429 368.220223 
L 168.666427 364.011707 
L 169.336425 367.806877 
L 170.006423 367.222273 
L 170.676422 366.295152 
L 171.34642 367.438989 
L 172.016418 365.938892 
L 172.686416 368.18428 
L 173.356414 366.357524 
L 174.026412 366.978071 
L 174.696411 365.727462 
L 175.366409 368.188508 
L 176.036407 368.165251 
L 176.706405 368.78157 
L 177.376403 367.323759 
L 178.046402 367.936907 
L 178.7164 365.57629 
L 179.386398 357.608546 
L 180.726394 368.186394 
L 181.396392 367.682133 
L 182.066391 367.590161 
L 182.736389 367.199016 
L 183.406387 367.917878 
L 184.076385 366.657755 
L 184.746383 367.700105 
L 185.416381 363.967307 
L 186.08638 368.488739 
L 188.096374 367.344902 
L 188.766372 367.300502 
L 189.43637 364.336252 
L 190.106369 365.816263 
L 190.776367 364.002193 
L 191.446365 368.724484 
L 192.116363 367.967564 
L 192.786361 368.356595 
L 193.45636 366.796241 
L 194.126358 367.869249 
L 194.796356 366.219037 
L 195.466354 365.648176 
L 196.136352 366.400867 
L 196.80635 366.099579 
L 197.476349 368.813284 
L 198.146347 367.129244 
L 198.816345 368.267795 
L 199.486343 366.379724 
L 200.156341 367.018243 
L 200.826339 368.18428 
L 201.496338 367.301559 
L 202.166336 364.748541 
L 202.836334 368.579654 
L 203.506332 368.195909 
L 204.17633 368.760427 
L 204.846328 367.125015 
L 205.516327 367.944307 
L 206.186325 367.34596 
L 206.856323 365.749662 
L 207.526321 366.853327 
L 208.196319 367.704334 
L 208.866318 367.727591 
L 209.536316 368.897856 
L 210.206314 368.986657 
L 210.876312 366.901956 
L 211.54631 368.020422 
L 212.216308 367.730762 
L 212.886307 363.971535 
L 213.556305 364.269652 
L 214.226303 368.480282 
L 214.896301 367.367103 
L 215.566299 368.113451 
L 216.236297 367.78362 
L 216.906296 368.721312 
L 217.576294 368.565911 
L 218.246292 367.247645 
L 218.91629 367.47916 
L 219.586288 364.117422 
L 220.256287 368.960228 
L 220.926285 367.788906 
L 221.596283 367.935849 
L 222.266281 367.159901 
L 222.936279 368.041565 
L 223.606277 365.939949 
L 224.276276 367.615533 
L 224.946274 365.245401 
L 225.616272 368.64414 
L 226.28627 367.744505 
L 226.956268 368.064822 
L 227.626266 368.18428 
L 228.296265 368.445396 
L 228.966263 367.851277 
L 229.636261 366.990757 
L 230.306259 367.0711 
L 230.976257 364.862713 
L 231.646255 368.224452 
L 232.316254 367.691648 
L 232.986252 368.202251 
L 233.65625 366.781441 
L 234.326248 365.686233 
L 234.996246 368.409453 
L 236.336243 365.09 
L 237.006241 367.890392 
L 237.676239 367.705391 
L 238.346237 366.760298 
L 239.016235 365.47586 
L 239.686234 365.590033 
L 240.356232 366.521382 
L 241.02623 366.979128 
L 241.696228 364.59314 
L 242.366226 366.658812 
L 243.706223 367.47176 
L 244.376221 365.602718 
L 245.046219 368.025707 
L 245.716217 367.970735 
L 246.386215 364.765455 
L 247.056213 366.582697 
L 247.726212 366.418839 
L 248.39621 367.065815 
L 249.066208 367.944307 
L 251.076203 366.889271 
L 252.416199 366.80047 
L 253.086197 364.242166 
L 253.756195 368.093365 
L 254.426193 367.710676 
L 255.76619 361.646861 
L 256.436188 362.646926 
L 257.106186 366.298323 
L 257.776184 365.82472 
L 258.446182 364.964199 
L 259.116181 366.897728 
L 259.786179 367.367103 
L 260.456177 363.764334 
L 261.126175 367.869249 
L 261.796173 367.244473 
L 262.466172 367.841763 
L 263.13617 365.816263 
L 263.806168 366.184151 
L 264.476166 367.639847 
L 265.816162 367.718076 
L 266.486161 366.068922 
L 267.156159 366.45901 
L 267.826157 367.483389 
L 268.496155 368.00245 
L 269.166153 365.946292 
L 269.836151 368.219166 
L 270.50615 367.315302 
L 271.176148 366.849099 
L 271.846146 365.527661 
L 272.516144 367.279359 
L 273.186142 367.123958 
L 273.85614 367.669448 
L 274.526139 366.57424 
L 275.196137 368.067993 
L 275.866135 367.834363 
L 276.536133 367.891449 
L 277.206131 367.458017 
L 277.87613 365.434631 
L 278.546128 367.988707 
L 279.216126 365.603776 
L 280.556122 365.652404 
L 281.22612 366.285638 
L 281.896119 366.721184 
L 282.566117 366.729641 
L 283.236115 365.114315 
L 283.906113 365.151315 
L 284.576111 366.122836 
L 285.246109 367.469646 
L 285.916108 366.885042 
L 286.586106 368.148337 
L 287.256104 367.891449 
L 287.926102 367.794191 
L 288.5961 366.667269 
L 289.266098 366.281409 
L 289.936097 367.41256 
L 291.276093 366.964328 
L 291.946091 367.381903 
L 292.616089 366.622869 
L 293.286088 366.968557 
L 293.956086 366.622869 
L 294.626084 367.306845 
L 295.296082 368.152565 
L 295.96608 367.940078 
L 296.636078 367.409389 
L 297.306077 365.909292 
L 297.976075 367.172587 
L 298.646073 367.998221 
L 299.316071 367.895678 
L 299.986069 366.804698 
L 300.656067 367.165187 
L 301.326066 368.180051 
L 301.996064 368.16208 
L 302.666062 366.697926 
L 303.33606 368.118737 
L 304.676056 366.486496 
L 305.346055 365.931492 
L 306.016053 367.093301 
L 306.686051 366.82267 
L 307.356049 367.651476 
L 308.026047 368.073279 
L 308.696046 367.682133 
L 309.366044 367.548932 
L 310.036042 368.109222 
L 310.70604 368.112394 
L 311.376038 367.333274 
L 312.046036 368.019364 
L 312.716035 367.546818 
L 313.386033 367.988707 
L 314.056031 365.705262 
L 314.726029 367.583818 
L 315.396027 367.199016 
L 316.066025 367.64619 
L 316.736024 367.030929 
L 317.406022 368.202251 
L 318.07602 367.598618 
L 318.746018 368.00985 
L 319.416016 367.900964 
L 320.086015 365.39446 
L 320.756013 367.868192 
L 321.426011 367.571133 
L 322.096009 366.131294 
L 322.766007 365.896606 
L 323.436005 367.203244 
L 324.106004 367.377674 
L 324.776002 367.762477 
L 325.446 367.097529 
L 326.115998 367.833306 
L 326.785996 366.720126 
L 327.455994 367.022471 
L 328.125993 365.68729 
L 328.795991 367.98765 
L 329.465989 367.806877 
L 330.135987 366.242294 
L 330.805985 366.538297 
L 332.145982 367.771991 
L 332.81598 367.832249 
L 333.485978 367.563733 
L 334.155976 366.423067 
L 334.825974 366.897728 
L 336.165971 366.878699 
L 336.835969 365.66509 
L 337.505967 368.378796 
L 338.175965 367.87242 
L 338.845963 367.040443 
L 339.515962 365.504403 
L 340.18596 367.683191 
L 340.855958 367.017186 
L 341.525956 366.667269 
L 342.195954 367.566904 
L 342.865952 368.202251 
L 343.535951 366.795184 
L 344.205949 366.910414 
L 344.875947 365.655576 
L 345.545945 367.473875 
L 346.215943 368.098651 
L 346.885941 365.949464 
L 347.55594 365.37226 
L 348.225938 366.654583 
L 348.895936 367.558447 
L 349.565934 366.140808 
L 350.235932 366.849099 
L 350.905931 367.306845 
L 351.575929 366.911471 
L 352.245927 368.281538 
L 352.915925 367.904135 
L 353.585923 366.556268 
L 354.255921 367.988707 
L 354.92592 367.851277 
L 355.595918 367.949592 
L 356.265916 365.423003 
L 356.935914 367.461189 
L 358.27591 367.692705 
L 358.945909 368.05425 
L 359.615907 367.433703 
L 360.285905 367.211701 
L 360.955903 367.218044 
L 361.625901 366.441039 
L 362.2959 366.302552 
L 362.965898 368.00985 
L 363.635896 367.226502 
L 364.305894 366.986528 
L 365.64589 366.782498 
L 366.315889 367.589104 
L 366.985887 367.736048 
L 367.655885 365.266545 
L 368.995881 367.77622 
L 369.665879 368.051079 
L 370.335878 367.029872 
L 371.005876 368.278366 
L 371.675874 367.203244 
L 372.345872 366.991814 
L 373.01587 365.004371 
L 373.685868 366.968557 
L 374.355867 365.89132 
L 375.025865 368.298452 
L 375.695863 366.733869 
L 376.365861 366.978071 
L 377.035859 367.736048 
L 377.705858 368.284709 
L 378.375856 367.516161 
L 379.045854 365.469517 
L 379.715852 367.036214 
L 380.38585 367.314245 
L 381.055848 367.917878 
L 381.725847 366.729641 
L 382.395845 366.746555 
L 383.065843 367.274073 
L 383.735841 366.702155 
L 384.405839 366.454782 
L 385.075837 366.539354 
L 385.745836 367.240244 
L 386.415834 367.283588 
L 387.085832 362.849898 
L 387.75583 365.771862 
L 388.425828 367.169415 
L 389.095826 367.926335 
L 389.765825 365.111143 
L 390.435823 366.964328 
L 391.105821 367.41256 
L 391.775819 367.194787 
L 392.445817 367.752962 
L 393.115816 366.299381 
L 393.785814 366.423067 
L 394.455812 368.015136 
L 395.12581 358.867613 
L 395.795808 368.272023 
L 396.465806 367.43476 
L 397.135805 364.476853 
L 397.805803 363.780191 
L 398.475801 367.151444 
L 399.145799 366.424124 
L 399.815797 366.676783 
L 400.485795 363.000014 
L 400.485795 363.000014 
" style="fill:none;stroke:#2ca02c;stroke-linecap:square;stroke-width:1.5;"/>
   </g>
   <g id="line2d_19">
    <path clip-path="url(#p046cdda494)" d="M 66.826705 364.487425 
L 67.496703 365.004371 
L 68.166701 362.960899 
L 68.836699 363.350988 
L 69.506697 365.146029 
L 70.176695 365.036086 
L 70.846694 357.214229 
L 71.516692 363.918678 
L 72.18669 363.882735 
L 72.856688 363.70619 
L 73.526686 363.816134 
L 74.196684 363.470446 
L 75.536681 362.194465 
L 76.206679 364.117422 
L 76.876677 362.911213 
L 77.546675 362.601468 
L 78.216674 363.913392 
L 78.886672 362.157465 
L 79.55667 362.61944 
L 80.226668 362.068664 
L 80.896666 364.43351 
L 81.566664 364.126936 
L 82.236663 363.000014 
L 82.906661 364.707312 
L 83.576659 362.748412 
L 84.246657 352.518367 
L 84.916655 363.0053 
L 85.586653 364.038136 
L 86.256652 363.727333 
L 86.92665 362.765326 
L 87.596648 363.488417 
L 88.266646 364.00325 
L 88.936644 361.492517 
L 89.606642 362.423867 
L 90.276641 363.642761 
L 90.946639 360.087564 
L 91.616637 362.406952 
L 92.956633 362.32238 
L 93.626632 361.803319 
L 94.29663 363.927135 
L 94.966628 364.437739 
L 95.636626 362.982042 
L 96.306624 364.746426 
L 96.976622 364.130108 
L 97.646621 357.1878 
L 98.316619 363.164929 
L 98.986617 363.913392 
L 99.656615 363.270644 
L 100.326613 362.432324 
L 100.996611 362.855184 
L 101.66661 363.904935 
L 102.336608 361.903749 
L 103.006606 364.991685 
L 103.676604 364.760169 
L 104.346602 364.374309 
L 105.0166 358.491267 
L 105.686599 358.421495 
L 107.026595 362.380524 
L 107.696593 363.780191 
L 108.366591 362.973585 
L 109.03659 359.856048 
L 109.706588 363.789705 
L 110.376586 361.222944 
L 111.046584 357.275544 
L 111.716582 363.763277 
L 113.056579 362.149008 
L 113.726577 362.738898 
L 114.396575 363.541275 
L 115.066573 363.839391 
L 115.736571 363.178672 
L 116.406569 364.154422 
L 117.076568 363.417588 
L 117.746566 360.924827 
L 118.416564 363.098329 
L 119.086562 362.196579 
L 119.75656 361.861463 
L 120.426559 363.306587 
L 121.096557 363.555018 
L 121.766555 363.581447 
L 122.436553 362.822413 
L 123.106551 364.86377 
L 123.776549 363.802391 
L 125.116546 362.787527 
L 125.786544 362.464039 
L 126.456542 363.293902 
L 127.12654 363.089872 
L 127.796538 363.301302 
L 128.466537 362.89007 
L 129.136535 361.378345 
L 129.806533 364.21468 
L 130.476531 363.913392 
L 131.816527 362.247323 
L 132.486526 363.1237 
L 133.156524 360.580196 
L 133.826522 362.672297 
L 134.49652 364.113193 
L 135.836517 363.350988 
L 136.506515 364.171337 
L 137.176513 363.244216 
L 137.846511 361.622547 
L 138.516509 359.435302 
L 139.186507 364.668197 
L 139.856506 362.659611 
L 140.526504 363.075072 
L 141.196502 364.335195 
L 141.8665 361.578146 
L 142.536498 363.622675 
L 143.206496 361.181715 
L 143.876495 364.241109 
L 145.216491 359.811648 
L 145.886489 363.489475 
L 146.556487 363.727333 
L 147.226485 359.493446 
L 147.896484 364.920856 
L 148.566482 363.537046 
L 149.23648 365.0234 
L 149.906478 362.047521 
L 150.576476 363.156472 
L 151.246475 363.070843 
L 151.916473 357.307258 
L 152.586471 363.66919 
L 153.256469 363.513789 
L 153.926467 361.989378 
L 154.596465 363.940878 
L 155.266464 360.756741 
L 155.936462 362.929185 
L 156.60646 360.637282 
L 157.276458 363.803448 
L 157.946456 363.164929 
L 158.616454 360.673226 
L 159.286453 363.431331 
L 159.956451 362.570811 
L 160.626449 363.067671 
L 161.296447 361.828691 
L 161.966445 363.967307 
L 162.636444 363.935592 
L 163.306442 360.672168 
L 163.97644 362.14055 
L 164.646438 362.973585 
L 165.316436 360.061135 
L 166.656433 363.631133 
L 167.326431 362.229351 
L 167.996429 363.182901 
L 168.666427 362.047521 
L 169.336425 363.825648 
L 170.006423 359.657304 
L 170.676422 361.838205 
L 171.34642 362.32978 
L 172.016418 361.53586 
L 172.686416 362.810784 
L 173.356414 362.091922 
L 174.026412 361.151058 
L 174.696411 364.020164 
L 175.366409 363.173387 
L 176.036407 363.771734 
L 176.706405 361.759976 
L 177.376403 361.351916 
L 178.046402 363.798162 
L 178.7164 361.102429 
L 179.386398 363.992678 
L 180.726394 363.346759 
L 181.396392 364.539225 
L 182.066391 362.405895 
L 182.736389 364.021221 
L 183.406387 360.766255 
L 184.076385 363.949335 
L 184.746383 362.172265 
L 185.416381 362.992614 
L 186.08638 363.989507 
L 186.756378 362.09615 
L 187.426376 362.100379 
L 188.096374 361.532689 
L 188.766372 363.013757 
L 189.43637 364.118479 
L 190.106369 362.733612 
L 190.776367 363.491589 
L 191.446365 362.104607 
L 192.116363 362.998957 
L 192.786361 362.605697 
L 194.126358 363.826706 
L 194.796356 363.380588 
L 195.466354 363.289673 
L 196.136352 363.781248 
L 196.80635 361.489346 
L 197.476349 364.064564 
L 198.146347 363.001071 
L 198.816345 363.68399 
L 199.486343 362.680754 
L 200.156341 363.909163 
L 200.826339 363.82882 
L 201.496338 362.668069 
L 202.166336 363.811905 
L 202.836334 363.28333 
L 203.506332 361.71029 
L 204.17633 363.138501 
L 204.846328 363.014814 
L 205.516327 364.037078 
L 206.186325 362.521125 
L 206.856323 363.772791 
L 207.526321 362.977814 
L 208.196319 361.541146 
L 208.866318 364.060336 
L 209.536316 362.947156 
L 210.206314 363.262187 
L 210.876312 363.271702 
L 211.54631 364.176622 
L 212.216308 362.610982 
L 212.886307 363.052871 
L 213.556305 362.902756 
L 214.226303 363.746362 
L 215.566299 363.239987 
L 216.236297 363.967307 
L 216.906296 364.502225 
L 217.576294 363.138501 
L 218.246292 363.053929 
L 218.91629 363.576161 
L 219.586288 362.690269 
L 220.256287 362.192351 
L 220.926285 362.034835 
L 221.596283 363.244216 
L 222.266281 363.187129 
L 222.936279 363.532818 
L 223.606277 363.545504 
L 224.276276 361.799091 
L 224.946274 364.139622 
L 225.616272 362.308637 
L 226.28627 363.059214 
L 226.956268 361.581318 
L 227.626266 363.718876 
L 228.296265 363.772791 
L 228.966263 362.690269 
L 229.636261 362.977814 
L 230.306259 364.47791 
L 230.976257 362.201865 
L 232.316254 363.115243 
L 232.986252 364.428224 
L 233.65625 362.157465 
L 234.326248 364.907113 
L 234.996246 364.981114 
L 235.666245 363.270644 
L 236.336243 363.728391 
L 237.006241 362.684983 
L 237.676239 362.633183 
L 238.346237 360.707054 
L 239.016235 362.09615 
L 239.686234 362.791755 
L 240.356232 359.780991 
L 241.02623 361.629947 
L 241.696228 362.503153 
L 242.366226 362.824527 
L 243.706223 363.243158 
L 244.376221 362.983099 
L 245.046219 361.940749 
L 245.716217 363.607875 
L 246.386215 363.32033 
L 247.056213 361.88472 
L 247.726212 363.66919 
L 248.39621 363.307645 
L 249.066208 363.562418 
L 249.736206 362.530639 
L 251.076203 364.020164 
L 251.746201 362.433381 
L 252.416199 364.007478 
L 253.086197 362.849898 
L 253.756195 362.464039 
L 254.426193 363.001071 
L 255.096192 363.874277 
L 255.76619 362.86787 
L 256.436188 363.390102 
L 257.106186 363.328788 
L 257.776184 363.789705 
L 258.446182 360.23768 
L 259.116181 361.958721 
L 259.786179 362.911213 
L 260.456177 362.540153 
L 261.126175 362.743126 
L 261.796173 361.84772 
L 262.466172 362.747355 
L 263.13617 360.751455 
L 263.806168 362.917556 
L 264.476166 364.074079 
L 265.146164 361.997835 
L 265.816162 363.430274 
L 266.486161 361.715576 
L 267.156159 363.289673 
L 267.826157 361.049571 
L 268.496155 362.547553 
L 269.166153 363.674476 
L 269.836151 360.866684 
L 270.50615 362.680754 
L 271.176148 362.983099 
L 271.846146 361.524232 
L 272.516144 361.758919 
L 273.186142 362.658554 
L 273.85614 361.896349 
L 274.526139 361.799091 
L 275.196137 362.651154 
L 275.866135 361.285316 
L 277.206131 362.176494 
L 277.87613 363.775962 
L 278.546128 362.043293 
L 279.216126 363.43556 
L 279.886124 362.083464 
L 281.22612 360.334937 
L 281.896119 362.885842 
L 282.566117 362.376295 
L 283.236115 361.617261 
L 283.906113 362.238865 
L 284.576111 363.0719 
L 285.246109 361.46186 
L 285.916108 362.09615 
L 286.586106 362.353038 
L 287.256104 360.619311 
L 287.926102 361.567575 
L 288.5961 360.538968 
L 289.936097 363.141672 
L 290.606095 363.386931 
L 291.276093 363.477846 
L 291.946091 362.261066 
L 292.616089 362.219837 
L 293.286088 362.662783 
L 293.956086 361.289544 
L 294.626084 362.157465 
L 295.96608 358.979671 
L 296.636078 363.085643 
L 297.306077 362.552839 
L 297.976075 361.71029 
L 298.646073 362.024264 
L 299.316071 361.719805 
L 299.986069 363.506389 
L 300.656067 361.303287 
L 301.326066 360.960771 
L 301.996064 363.062386 
L 302.666062 361.258887 
L 303.33606 362.85307 
L 304.676056 362.158522 
L 305.346055 363.187129 
L 306.016053 361.953435 
L 306.686051 361.155286 
L 307.356049 360.726083 
L 308.026047 361.826577 
L 308.696046 363.704076 
L 309.366044 361.249373 
L 310.036042 362.756869 
L 310.70604 362.45981 
L 311.376038 360.172136 
L 312.046036 363.32033 
L 312.716035 362.760041 
L 313.386033 362.587725 
L 314.056031 360.942799 
L 314.726029 361.790634 
L 315.396027 361.718747 
L 316.066025 362.53381 
L 316.736024 362.735726 
L 317.406022 364.264366 
L 318.07602 362.237808 
L 318.746018 363.612104 
L 319.416016 362.756869 
L 320.086015 362.557068 
L 320.756013 363.080357 
L 321.426011 362.273751 
L 322.096009 363.347816 
L 322.766007 361.520003 
L 323.436005 363.523303 
L 324.106004 364.038136 
L 324.776002 360.937513 
L 325.446 364.126936 
L 326.115998 362.30018 
L 326.785996 362.809727 
L 327.455994 361.82552 
L 328.125993 362.623668 
L 328.795991 361.559118 
L 329.465989 361.789577 
L 330.135987 361.897406 
L 330.805985 363.732619 
L 331.475983 362.295952 
L 332.145982 361.653204 
L 332.81598 361.89212 
L 333.485978 360.995657 
L 334.155976 363.097272 
L 334.825974 363.107843 
L 335.495973 363.417588 
L 336.165971 361.527403 
L 336.835969 360.757798 
L 337.505967 364.393338 
L 338.175965 359.764076 
L 338.845963 361.023142 
L 339.515962 363.767505 
L 340.18596 361.975635 
L 340.855958 360.680626 
L 341.525956 363.399617 
L 342.195954 360.840255 
L 342.865952 362.398495 
L 343.535951 362.978871 
L 344.205949 363.20933 
L 344.875947 363.035957 
L 345.545945 362.610982 
L 346.215943 363.199815 
L 346.885941 360.401538 
L 347.55594 363.035957 
L 348.225938 362.548611 
L 348.895936 362.752641 
L 349.565934 362.668069 
L 350.235932 363.0053 
L 350.905931 362.375238 
L 351.575929 362.064436 
L 352.245927 361.943921 
L 352.915925 363.642761 
L 353.585923 361.864634 
L 354.92592 360.977685 
L 355.595918 361.107714 
L 356.265916 362.61944 
L 356.935914 362.901699 
L 357.605912 363.772791 
L 358.27591 361.080229 
L 358.945909 359.826448 
L 359.615907 362.344581 
L 360.285905 359.971278 
L 360.955903 362.086636 
L 361.625901 363.488417 
L 362.2959 363.199815 
L 362.965898 361.791691 
L 363.635896 362.854127 
L 364.305894 358.646668 
L 364.975892 363.811905 
L 365.64589 362.996842 
L 366.315889 363.659676 
L 366.985887 361.240915 
L 367.655885 361.085514 
L 368.325883 362.934471 
L 368.995881 361.119343 
L 369.665879 362.237808 
L 370.335878 362.522182 
L 371.005876 361.749405 
L 371.675874 359.099129 
L 372.345872 361.968235 
L 373.01587 360.619311 
L 373.685868 362.551782 
L 374.355867 361.900577 
L 375.025865 360.841313 
L 375.695863 361.954492 
L 376.365861 361.833977 
L 377.035859 362.428095 
L 377.705858 361.821291 
L 378.375856 362.721983 
L 379.045854 363.899649 
L 379.715852 362.433381 
L 380.38585 362.609925 
L 381.055848 361.200744 
L 381.725847 361.50626 
L 382.395845 362.668069 
L 383.065843 363.514846 
L 383.735841 363.553961 
L 384.405839 363.102557 
L 385.075837 360.079107 
L 385.745836 364.467339 
L 386.415834 360.801141 
L 387.085832 363.846791 
L 387.75583 363.741076 
L 388.425828 362.087693 
L 389.095826 362.836156 
L 389.765825 364.650226 
L 390.435823 364.364795 
L 391.105821 362.490467 
L 391.775819 364.321452 
L 392.445817 362.756869 
L 393.115816 361.93652 
L 393.785814 361.413231 
L 394.455812 363.48736 
L 395.12581 363.635361 
L 395.795808 362.733612 
L 396.465806 363.47996 
L 397.135805 364.564597 
L 397.805803 362.45981 
L 398.475801 364.218908 
L 399.815797 363.612104 
L 400.485795 361.012571 
L 400.485795 361.012571 
" style="fill:none;stroke:#d62728;stroke-linecap:square;stroke-width:1.5;"/>
   </g>
   <g id="patch_3">
    <path d="M 50.14375 386.6 
L 50.14375 7.2 
" style="fill:none;stroke:#000000;stroke-linecap:square;stroke-linejoin:miter;stroke-width:0.8;"/>
   </g>
   <g id="patch_4">
    <path d="M 417.16875 386.6 
L 417.16875 7.2 
" style="fill:none;stroke:#000000;stroke-linecap:square;stroke-linejoin:miter;stroke-width:0.8;"/>
   </g>
   <g id="patch_5">
    <path d="M 50.14375 386.6 
L 417.16875 386.6 
" style="fill:none;stroke:#000000;stroke-linecap:square;stroke-linejoin:miter;stroke-width:0.8;"/>
   </g>
   <g id="patch_6">
    <path d="M 50.14375 7.2 
L 417.16875 7.2 
" style="fill:none;stroke:#000000;stroke-linecap:square;stroke-linejoin:miter;stroke-width:0.8;"/>
   </g>
   <g id="legend_1">
    <g id="patch_7">
     <path d="M 68.414062 75.025 
L 410.16875 75.025 
Q 412.16875 75.025 412.16875 73.025 
L 412.16875 14.2 
Q 412.16875 12.2 410.16875 12.2 
L 68.414062 12.2 
Q 66.414062 12.2 66.414062 14.2 
L 66.414062 73.025 
Q 66.414062 75.025 68.414062 75.025 
z
" style="fill:#ffffff;opacity:0.8;stroke:#cccccc;stroke-linejoin:miter;"/>
    </g>
    <g id="line2d_20">
     <path d="M 70.414062 20.298437 
L 90.414062 20.298437 
" style="fill:none;stroke:#1f77b4;stroke-linecap:square;stroke-width:1.5;"/>
    </g>
    <g id="line2d_21"/>
    <g id="text_18">
     <!-- &lt;class 'union_find.QuickFindUF'&gt; -->
     <defs>
      <path d="M 73.1875 49.21875 
L 22.796875 31.296875 
L 73.1875 13.484375 
L 73.1875 4.59375 
L 10.59375 27.296875 
L 10.59375 35.40625 
L 73.1875 58.109375 
z
" id="DejaVuSans-60"/>
      <path d="M 48.78125 52.59375 
L 48.78125 44.1875 
Q 44.96875 46.296875 41.140625 47.34375 
Q 37.3125 48.390625 33.40625 48.390625 
Q 24.65625 48.390625 19.8125 42.84375 
Q 14.984375 37.3125 14.984375 27.296875 
Q 14.984375 17.28125 19.8125 11.734375 
Q 24.65625 6.203125 33.40625 6.203125 
Q 37.3125 6.203125 41.140625 7.25 
Q 44.96875 8.296875 48.78125 10.40625 
L 48.78125 2.09375 
Q 45.015625 0.34375 40.984375 -0.53125 
Q 36.96875 -1.421875 32.421875 -1.421875 
Q 20.0625 -1.421875 12.78125 6.34375 
Q 5.515625 14.109375 5.515625 27.296875 
Q 5.515625 40.671875 12.859375 48.328125 
Q 20.21875 56 33.015625 56 
Q 37.15625 56 41.109375 55.140625 
Q 45.0625 54.296875 48.78125 52.59375 
z
" id="DejaVuSans-99"/>
      <path d="M 9.421875 75.984375 
L 18.40625 75.984375 
L 18.40625 0 
L 9.421875 0 
z
" id="DejaVuSans-108"/>
      <path d="M 34.28125 27.484375 
Q 23.390625 27.484375 19.1875 25 
Q 14.984375 22.515625 14.984375 16.5 
Q 14.984375 11.71875 18.140625 8.90625 
Q 21.296875 6.109375 26.703125 6.109375 
Q 34.1875 6.109375 38.703125 11.40625 
Q 43.21875 16.703125 43.21875 25.484375 
L 43.21875 27.484375 
z
M 52.203125 31.203125 
L 52.203125 0 
L 43.21875 0 
L 43.21875 8.296875 
Q 40.140625 3.328125 35.546875 0.953125 
Q 30.953125 -1.421875 24.3125 -1.421875 
Q 15.921875 -1.421875 10.953125 3.296875 
Q 6 8.015625 6 15.921875 
Q 6 25.140625 12.171875 29.828125 
Q 18.359375 34.515625 30.609375 34.515625 
L 43.21875 34.515625 
L 43.21875 35.40625 
Q 43.21875 41.609375 39.140625 45 
Q 35.0625 48.390625 27.6875 48.390625 
Q 23 48.390625 18.546875 47.265625 
Q 14.109375 46.140625 10.015625 43.890625 
L 10.015625 52.203125 
Q 14.9375 54.109375 19.578125 55.046875 
Q 24.21875 56 28.609375 56 
Q 40.484375 56 46.34375 49.84375 
Q 52.203125 43.703125 52.203125 31.203125 
z
" id="DejaVuSans-97"/>
      <path d="M 44.28125 53.078125 
L 44.28125 44.578125 
Q 40.484375 46.53125 36.375 47.5 
Q 32.28125 48.484375 27.875 48.484375 
Q 21.1875 48.484375 17.84375 46.4375 
Q 14.5 44.390625 14.5 40.28125 
Q 14.5 37.15625 16.890625 35.375 
Q 19.28125 33.59375 26.515625 31.984375 
L 29.59375 31.296875 
Q 39.15625 29.25 43.1875 25.515625 
Q 47.21875 21.78125 47.21875 15.09375 
Q 47.21875 7.46875 41.1875 3.015625 
Q 35.15625 -1.421875 24.609375 -1.421875 
Q 20.21875 -1.421875 15.453125 -0.5625 
Q 10.6875 0.296875 5.421875 2 
L 5.421875 11.28125 
Q 10.40625 8.6875 15.234375 7.390625 
Q 20.0625 6.109375 24.8125 6.109375 
Q 31.15625 6.109375 34.5625 8.28125 
Q 37.984375 10.453125 37.984375 14.40625 
Q 37.984375 18.0625 35.515625 20.015625 
Q 33.0625 21.96875 24.703125 23.78125 
L 21.578125 24.515625 
Q 13.234375 26.265625 9.515625 29.90625 
Q 5.8125 33.546875 5.8125 39.890625 
Q 5.8125 47.609375 11.28125 51.796875 
Q 16.75 56 26.8125 56 
Q 31.78125 56 36.171875 55.265625 
Q 40.578125 54.546875 44.28125 53.078125 
z
" id="DejaVuSans-115"/>
      <path id="DejaVuSans-32"/>
      <path d="M 17.921875 72.90625 
L 17.921875 45.796875 
L 9.625 45.796875 
L 9.625 72.90625 
z
" id="DejaVuSans-39"/>
      <path d="M 8.5 21.578125 
L 8.5 54.6875 
L 17.484375 54.6875 
L 17.484375 21.921875 
Q 17.484375 14.15625 20.5 10.265625 
Q 23.53125 6.390625 29.59375 6.390625 
Q 36.859375 6.390625 41.078125 11.03125 
Q 45.3125 15.671875 45.3125 23.6875 
L 45.3125 54.6875 
L 54.296875 54.6875 
L 54.296875 0 
L 45.3125 0 
L 45.3125 8.40625 
Q 42.046875 3.421875 37.71875 1 
Q 33.40625 -1.421875 27.6875 -1.421875 
Q 18.265625 -1.421875 13.375 4.4375 
Q 8.5 10.296875 8.5 21.578125 
z
M 31.109375 56 
z
" id="DejaVuSans-117"/>
      <path d="M 54.890625 33.015625 
L 54.890625 0 
L 45.90625 0 
L 45.90625 32.71875 
Q 45.90625 40.484375 42.875 44.328125 
Q 39.84375 48.1875 33.796875 48.1875 
Q 26.515625 48.1875 22.3125 43.546875 
Q 18.109375 38.921875 18.109375 30.90625 
L 18.109375 0 
L 9.078125 0 
L 9.078125 54.6875 
L 18.109375 54.6875 
L 18.109375 46.1875 
Q 21.34375 51.125 25.703125 53.5625 
Q 30.078125 56 35.796875 56 
Q 45.21875 56 50.046875 50.171875 
Q 54.890625 44.34375 54.890625 33.015625 
z
" id="DejaVuSans-110"/>
      <path d="M 30.609375 48.390625 
Q 23.390625 48.390625 19.1875 42.75 
Q 14.984375 37.109375 14.984375 27.296875 
Q 14.984375 17.484375 19.15625 11.84375 
Q 23.34375 6.203125 30.609375 6.203125 
Q 37.796875 6.203125 41.984375 11.859375 
Q 46.1875 17.53125 46.1875 27.296875 
Q 46.1875 37.015625 41.984375 42.703125 
Q 37.796875 48.390625 30.609375 48.390625 
z
M 30.609375 56 
Q 42.328125 56 49.015625 48.375 
Q 55.71875 40.765625 55.71875 27.296875 
Q 55.71875 13.875 49.015625 6.21875 
Q 42.328125 -1.421875 30.609375 -1.421875 
Q 18.84375 -1.421875 12.171875 6.21875 
Q 5.515625 13.875 5.515625 27.296875 
Q 5.515625 40.765625 12.171875 48.375 
Q 18.84375 56 30.609375 56 
z
" id="DejaVuSans-111"/>
      <path d="M 50.984375 -16.609375 
L 50.984375 -23.578125 
L -0.984375 -23.578125 
L -0.984375 -16.609375 
z
" id="DejaVuSans-95"/>
      <path d="M 37.109375 75.984375 
L 37.109375 68.5 
L 28.515625 68.5 
Q 23.6875 68.5 21.796875 66.546875 
Q 19.921875 64.59375 19.921875 59.515625 
L 19.921875 54.6875 
L 34.71875 54.6875 
L 34.71875 47.703125 
L 19.921875 47.703125 
L 19.921875 0 
L 10.890625 0 
L 10.890625 47.703125 
L 2.296875 47.703125 
L 2.296875 54.6875 
L 10.890625 54.6875 
L 10.890625 58.5 
Q 10.890625 67.625 15.140625 71.796875 
Q 19.390625 75.984375 28.609375 75.984375 
z
" id="DejaVuSans-102"/>
      <path d="M 45.40625 46.390625 
L 45.40625 75.984375 
L 54.390625 75.984375 
L 54.390625 0 
L 45.40625 0 
L 45.40625 8.203125 
Q 42.578125 3.328125 38.25 0.953125 
Q 33.9375 -1.421875 27.875 -1.421875 
Q 17.96875 -1.421875 11.734375 6.484375 
Q 5.515625 14.40625 5.515625 27.296875 
Q 5.515625 40.1875 11.734375 48.09375 
Q 17.96875 56 27.875 56 
Q 33.9375 56 38.25 53.625 
Q 42.578125 51.265625 45.40625 46.390625 
z
M 14.796875 27.296875 
Q 14.796875 17.390625 18.875 11.75 
Q 22.953125 6.109375 30.078125 6.109375 
Q 37.203125 6.109375 41.296875 11.75 
Q 45.40625 17.390625 45.40625 27.296875 
Q 45.40625 37.203125 41.296875 42.84375 
Q 37.203125 48.484375 30.078125 48.484375 
Q 22.953125 48.484375 18.875 42.84375 
Q 14.796875 37.203125 14.796875 27.296875 
z
" id="DejaVuSans-100"/>
      <path d="M 39.40625 66.21875 
Q 28.65625 66.21875 22.328125 58.203125 
Q 16.015625 50.203125 16.015625 36.375 
Q 16.015625 22.609375 22.328125 14.59375 
Q 28.65625 6.59375 39.40625 6.59375 
Q 50.140625 6.59375 56.421875 14.59375 
Q 62.703125 22.609375 62.703125 36.375 
Q 62.703125 50.203125 56.421875 58.203125 
Q 50.140625 66.21875 39.40625 66.21875 
z
M 53.21875 1.3125 
L 66.21875 -12.890625 
L 54.296875 -12.890625 
L 43.5 -1.21875 
Q 41.890625 -1.3125 41.03125 -1.359375 
Q 40.1875 -1.421875 39.40625 -1.421875 
Q 24.03125 -1.421875 14.8125 8.859375 
Q 5.609375 19.140625 5.609375 36.375 
Q 5.609375 53.65625 14.8125 63.9375 
Q 24.03125 74.21875 39.40625 74.21875 
Q 54.734375 74.21875 63.90625 63.9375 
Q 73.09375 53.65625 73.09375 36.375 
Q 73.09375 23.6875 67.984375 14.640625 
Q 62.890625 5.609375 53.21875 1.3125 
z
" id="DejaVuSans-81"/>
      <path d="M 9.078125 75.984375 
L 18.109375 75.984375 
L 18.109375 31.109375 
L 44.921875 54.6875 
L 56.390625 54.6875 
L 27.390625 29.109375 
L 57.625 0 
L 45.90625 0 
L 18.109375 26.703125 
L 18.109375 0 
L 9.078125 0 
z
" id="DejaVuSans-107"/>
      <path d="M 9.8125 72.90625 
L 51.703125 72.90625 
L 51.703125 64.59375 
L 19.671875 64.59375 
L 19.671875 43.109375 
L 48.578125 43.109375 
L 48.578125 34.8125 
L 19.671875 34.8125 
L 19.671875 0 
L 9.8125 0 
z
" id="DejaVuSans-70"/>
      <path d="M 8.6875 72.90625 
L 18.609375 72.90625 
L 18.609375 28.609375 
Q 18.609375 16.890625 22.84375 11.734375 
Q 27.09375 6.59375 36.625 6.59375 
Q 46.09375 6.59375 50.34375 11.734375 
Q 54.59375 16.890625 54.59375 28.609375 
L 54.59375 72.90625 
L 64.5 72.90625 
L 64.5 27.390625 
Q 64.5 13.140625 57.4375 5.859375 
Q 50.390625 -1.421875 36.625 -1.421875 
Q 22.796875 -1.421875 15.734375 5.859375 
Q 8.6875 13.140625 8.6875 27.390625 
z
" id="DejaVuSans-85"/>
      <path d="M 10.59375 49.21875 
L 10.59375 58.109375 
L 73.1875 35.40625 
L 73.1875 27.296875 
L 10.59375 4.59375 
L 10.59375 13.484375 
L 60.890625 31.296875 
z
" id="DejaVuSans-62"/>
     </defs>
     <g transform="translate(98.414062 23.798437)scale(0.1 -0.1)">
      <use xlink:href="#DejaVuSans-60"/>
      <use x="83.789062" xlink:href="#DejaVuSans-99"/>
      <use x="138.769531" xlink:href="#DejaVuSans-108"/>
      <use x="166.552734" xlink:href="#DejaVuSans-97"/>
      <use x="227.832031" xlink:href="#DejaVuSans-115"/>
      <use x="279.931641" xlink:href="#DejaVuSans-115"/>
      <use x="332.03125" xlink:href="#DejaVuSans-32"/>
      <use x="363.818359" xlink:href="#DejaVuSans-39"/>
      <use x="391.308594" xlink:href="#DejaVuSans-117"/>
      <use x="454.6875" xlink:href="#DejaVuSans-110"/>
      <use x="518.066406" xlink:href="#DejaVuSans-105"/>
      <use x="545.849609" xlink:href="#DejaVuSans-111"/>
      <use x="607.03125" xlink:href="#DejaVuSans-110"/>
      <use x="670.410156" xlink:href="#DejaVuSans-95"/>
      <use x="720.410156" xlink:href="#DejaVuSans-102"/>
      <use x="755.615234" xlink:href="#DejaVuSans-105"/>
      <use x="783.398438" xlink:href="#DejaVuSans-110"/>
      <use x="846.777344" xlink:href="#DejaVuSans-100"/>
      <use x="910.253906" xlink:href="#DejaVuSans-46"/>
      <use x="942.041016" xlink:href="#DejaVuSans-81"/>
      <use x="1020.751953" xlink:href="#DejaVuSans-117"/>
      <use x="1084.130859" xlink:href="#DejaVuSans-105"/>
      <use x="1111.914062" xlink:href="#DejaVuSans-99"/>
      <use x="1166.894531" xlink:href="#DejaVuSans-107"/>
      <use x="1224.804688" xlink:href="#DejaVuSans-70"/>
      <use x="1275.074219" xlink:href="#DejaVuSans-105"/>
      <use x="1302.857422" xlink:href="#DejaVuSans-110"/>
      <use x="1366.236328" xlink:href="#DejaVuSans-100"/>
      <use x="1429.712891" xlink:href="#DejaVuSans-85"/>
      <use x="1502.90625" xlink:href="#DejaVuSans-70"/>
      <use x="1560.425781" xlink:href="#DejaVuSans-39"/>
      <use x="1587.916016" xlink:href="#DejaVuSans-62"/>
     </g>
    </g>
    <g id="line2d_22">
     <path d="M 70.414062 35.254687 
L 90.414062 35.254687 
" style="fill:none;stroke:#ff7f0e;stroke-linecap:square;stroke-width:1.5;"/>
    </g>
    <g id="line2d_23"/>
    <g id="text_19">
     <!-- &lt;class 'union_find.QuickUnionUF'&gt; -->
     <g transform="translate(98.414062 38.754687)scale(0.1 -0.1)">
      <use xlink:href="#DejaVuSans-60"/>
      <use x="83.789062" xlink:href="#DejaVuSans-99"/>
      <use x="138.769531" xlink:href="#DejaVuSans-108"/>
      <use x="166.552734" xlink:href="#DejaVuSans-97"/>
      <use x="227.832031" xlink:href="#DejaVuSans-115"/>
      <use x="279.931641" xlink:href="#DejaVuSans-115"/>
      <use x="332.03125" xlink:href="#DejaVuSans-32"/>
      <use x="363.818359" xlink:href="#DejaVuSans-39"/>
      <use x="391.308594" xlink:href="#DejaVuSans-117"/>
      <use x="454.6875" xlink:href="#DejaVuSans-110"/>
      <use x="518.066406" xlink:href="#DejaVuSans-105"/>
      <use x="545.849609" xlink:href="#DejaVuSans-111"/>
      <use x="607.03125" xlink:href="#DejaVuSans-110"/>
      <use x="670.410156" xlink:href="#DejaVuSans-95"/>
      <use x="720.410156" xlink:href="#DejaVuSans-102"/>
      <use x="755.615234" xlink:href="#DejaVuSans-105"/>
      <use x="783.398438" xlink:href="#DejaVuSans-110"/>
      <use x="846.777344" xlink:href="#DejaVuSans-100"/>
      <use x="910.253906" xlink:href="#DejaVuSans-46"/>
      <use x="942.041016" xlink:href="#DejaVuSans-81"/>
      <use x="1020.751953" xlink:href="#DejaVuSans-117"/>
      <use x="1084.130859" xlink:href="#DejaVuSans-105"/>
      <use x="1111.914062" xlink:href="#DejaVuSans-99"/>
      <use x="1166.894531" xlink:href="#DejaVuSans-107"/>
      <use x="1224.804688" xlink:href="#DejaVuSans-85"/>
      <use x="1297.998047" xlink:href="#DejaVuSans-110"/>
      <use x="1361.376953" xlink:href="#DejaVuSans-105"/>
      <use x="1389.160156" xlink:href="#DejaVuSans-111"/>
      <use x="1450.341797" xlink:href="#DejaVuSans-110"/>
      <use x="1513.720703" xlink:href="#DejaVuSans-85"/>
      <use x="1586.914062" xlink:href="#DejaVuSans-70"/>
      <use x="1644.433594" xlink:href="#DejaVuSans-39"/>
      <use x="1671.923828" xlink:href="#DejaVuSans-62"/>
     </g>
    </g>
    <g id="line2d_24">
     <path d="M 70.414062 50.210938 
L 90.414062 50.210938 
" style="fill:none;stroke:#2ca02c;stroke-linecap:square;stroke-width:1.5;"/>
    </g>
    <g id="line2d_25"/>
    <g id="text_20">
     <!-- &lt;class 'union_find.WeightedQuickUnionUF'&gt; -->
     <defs>
      <path d="M 3.328125 72.90625 
L 13.28125 72.90625 
L 28.609375 11.28125 
L 43.890625 72.90625 
L 54.984375 72.90625 
L 70.3125 11.28125 
L 85.59375 72.90625 
L 95.609375 72.90625 
L 77.296875 0 
L 64.890625 0 
L 49.515625 63.28125 
L 33.984375 0 
L 21.578125 0 
z
" id="DejaVuSans-87"/>
      <path d="M 45.40625 27.984375 
Q 45.40625 37.75 41.375 43.109375 
Q 37.359375 48.484375 30.078125 48.484375 
Q 22.859375 48.484375 18.828125 43.109375 
Q 14.796875 37.75 14.796875 27.984375 
Q 14.796875 18.265625 18.828125 12.890625 
Q 22.859375 7.515625 30.078125 7.515625 
Q 37.359375 7.515625 41.375 12.890625 
Q 45.40625 18.265625 45.40625 27.984375 
z
M 54.390625 6.78125 
Q 54.390625 -7.171875 48.1875 -13.984375 
Q 42 -20.796875 29.203125 -20.796875 
Q 24.46875 -20.796875 20.265625 -20.09375 
Q 16.0625 -19.390625 12.109375 -17.921875 
L 12.109375 -9.1875 
Q 16.0625 -11.328125 19.921875 -12.34375 
Q 23.78125 -13.375 27.78125 -13.375 
Q 36.625 -13.375 41.015625 -8.765625 
Q 45.40625 -4.15625 45.40625 5.171875 
L 45.40625 9.625 
Q 42.625 4.78125 38.28125 2.390625 
Q 33.9375 0 27.875 0 
Q 17.828125 0 11.671875 7.65625 
Q 5.515625 15.328125 5.515625 27.984375 
Q 5.515625 40.671875 11.671875 48.328125 
Q 17.828125 56 27.875 56 
Q 33.9375 56 38.28125 53.609375 
Q 42.625 51.21875 45.40625 46.390625 
L 45.40625 54.6875 
L 54.390625 54.6875 
z
" id="DejaVuSans-103"/>
      <path d="M 54.890625 33.015625 
L 54.890625 0 
L 45.90625 0 
L 45.90625 32.71875 
Q 45.90625 40.484375 42.875 44.328125 
Q 39.84375 48.1875 33.796875 48.1875 
Q 26.515625 48.1875 22.3125 43.546875 
Q 18.109375 38.921875 18.109375 30.90625 
L 18.109375 0 
L 9.078125 0 
L 9.078125 75.984375 
L 18.109375 75.984375 
L 18.109375 46.1875 
Q 21.34375 51.125 25.703125 53.5625 
Q 30.078125 56 35.796875 56 
Q 45.21875 56 50.046875 50.171875 
Q 54.890625 44.34375 54.890625 33.015625 
z
" id="DejaVuSans-104"/>
      <path d="M 18.3125 70.21875 
L 18.3125 54.6875 
L 36.8125 54.6875 
L 36.8125 47.703125 
L 18.3125 47.703125 
L 18.3125 18.015625 
Q 18.3125 11.328125 20.140625 9.421875 
Q 21.96875 7.515625 27.59375 7.515625 
L 36.8125 7.515625 
L 36.8125 0 
L 27.59375 0 
Q 17.1875 0 13.234375 3.875 
Q 9.28125 7.765625 9.28125 18.015625 
L 9.28125 47.703125 
L 2.6875 47.703125 
L 2.6875 54.6875 
L 9.28125 54.6875 
L 9.28125 70.21875 
z
" id="DejaVuSans-116"/>
     </defs>
     <g transform="translate(98.414062 53.710938)scale(0.1 -0.1)">
      <use xlink:href="#DejaVuSans-60"/>
      <use x="83.789062" xlink:href="#DejaVuSans-99"/>
      <use x="138.769531" xlink:href="#DejaVuSans-108"/>
      <use x="166.552734" xlink:href="#DejaVuSans-97"/>
      <use x="227.832031" xlink:href="#DejaVuSans-115"/>
      <use x="279.931641" xlink:href="#DejaVuSans-115"/>
      <use x="332.03125" xlink:href="#DejaVuSans-32"/>
      <use x="363.818359" xlink:href="#DejaVuSans-39"/>
      <use x="391.308594" xlink:href="#DejaVuSans-117"/>
      <use x="454.6875" xlink:href="#DejaVuSans-110"/>
      <use x="518.066406" xlink:href="#DejaVuSans-105"/>
      <use x="545.849609" xlink:href="#DejaVuSans-111"/>
      <use x="607.03125" xlink:href="#DejaVuSans-110"/>
      <use x="670.410156" xlink:href="#DejaVuSans-95"/>
      <use x="720.410156" xlink:href="#DejaVuSans-102"/>
      <use x="755.615234" xlink:href="#DejaVuSans-105"/>
      <use x="783.398438" xlink:href="#DejaVuSans-110"/>
      <use x="846.777344" xlink:href="#DejaVuSans-100"/>
      <use x="910.253906" xlink:href="#DejaVuSans-46"/>
      <use x="942.041016" xlink:href="#DejaVuSans-87"/>
      <use x="1035.042969" xlink:href="#DejaVuSans-101"/>
      <use x="1096.566406" xlink:href="#DejaVuSans-105"/>
      <use x="1124.349609" xlink:href="#DejaVuSans-103"/>
      <use x="1187.826172" xlink:href="#DejaVuSans-104"/>
      <use x="1251.205078" xlink:href="#DejaVuSans-116"/>
      <use x="1290.414062" xlink:href="#DejaVuSans-101"/>
      <use x="1351.9375" xlink:href="#DejaVuSans-100"/>
      <use x="1415.414062" xlink:href="#DejaVuSans-81"/>
      <use x="1494.125" xlink:href="#DejaVuSans-117"/>
      <use x="1557.503906" xlink:href="#DejaVuSans-105"/>
      <use x="1585.287109" xlink:href="#DejaVuSans-99"/>
      <use x="1640.267578" xlink:href="#DejaVuSans-107"/>
      <use x="1698.177734" xlink:href="#DejaVuSans-85"/>
      <use x="1771.371094" xlink:href="#DejaVuSans-110"/>
      <use x="1834.75" xlink:href="#DejaVuSans-105"/>
      <use x="1862.533203" xlink:href="#DejaVuSans-111"/>
      <use x="1923.714844" xlink:href="#DejaVuSans-110"/>
      <use x="1987.09375" xlink:href="#DejaVuSans-85"/>
      <use x="2060.287109" xlink:href="#DejaVuSans-70"/>
      <use x="2117.806641" xlink:href="#DejaVuSans-39"/>
      <use x="2145.296875" xlink:href="#DejaVuSans-62"/>
     </g>
    </g>
    <g id="line2d_26">
     <path d="M 70.414062 65.167187 
L 90.414062 65.167187 
" style="fill:none;stroke:#d62728;stroke-linecap:square;stroke-width:1.5;"/>
    </g>
    <g id="line2d_27"/>
    <g id="text_21">
     <!-- &lt;class 'union_find.WeightedQuickUnionPathCompressionUF'&gt; -->
     <defs>
      <path d="M 19.671875 64.796875 
L 19.671875 37.40625 
L 32.078125 37.40625 
Q 38.96875 37.40625 42.71875 40.96875 
Q 46.484375 44.53125 46.484375 51.125 
Q 46.484375 57.671875 42.71875 61.234375 
Q 38.96875 64.796875 32.078125 64.796875 
z
M 9.8125 72.90625 
L 32.078125 72.90625 
Q 44.34375 72.90625 50.609375 67.359375 
Q 56.890625 61.8125 56.890625 51.125 
Q 56.890625 40.328125 50.609375 34.8125 
Q 44.34375 29.296875 32.078125 29.296875 
L 19.671875 29.296875 
L 19.671875 0 
L 9.8125 0 
z
" id="DejaVuSans-80"/>
      <path d="M 64.40625 67.28125 
L 64.40625 56.890625 
Q 59.421875 61.53125 53.78125 63.8125 
Q 48.140625 66.109375 41.796875 66.109375 
Q 29.296875 66.109375 22.65625 58.46875 
Q 16.015625 50.828125 16.015625 36.375 
Q 16.015625 21.96875 22.65625 14.328125 
Q 29.296875 6.6875 41.796875 6.6875 
Q 48.140625 6.6875 53.78125 8.984375 
Q 59.421875 11.28125 64.40625 15.921875 
L 64.40625 5.609375 
Q 59.234375 2.09375 53.4375 0.328125 
Q 47.65625 -1.421875 41.21875 -1.421875 
Q 24.65625 -1.421875 15.125 8.703125 
Q 5.609375 18.84375 5.609375 36.375 
Q 5.609375 53.953125 15.125 64.078125 
Q 24.65625 74.21875 41.21875 74.21875 
Q 47.75 74.21875 53.53125 72.484375 
Q 59.328125 70.75 64.40625 67.28125 
z
" id="DejaVuSans-67"/>
      <path d="M 18.109375 8.203125 
L 18.109375 -20.796875 
L 9.078125 -20.796875 
L 9.078125 54.6875 
L 18.109375 54.6875 
L 18.109375 46.390625 
Q 20.953125 51.265625 25.265625 53.625 
Q 29.59375 56 35.59375 56 
Q 45.5625 56 51.78125 48.09375 
Q 58.015625 40.1875 58.015625 27.296875 
Q 58.015625 14.40625 51.78125 6.484375 
Q 45.5625 -1.421875 35.59375 -1.421875 
Q 29.59375 -1.421875 25.265625 0.953125 
Q 20.953125 3.328125 18.109375 8.203125 
z
M 48.6875 27.296875 
Q 48.6875 37.203125 44.609375 42.84375 
Q 40.53125 48.484375 33.40625 48.484375 
Q 26.265625 48.484375 22.1875 42.84375 
Q 18.109375 37.203125 18.109375 27.296875 
Q 18.109375 17.390625 22.1875 11.75 
Q 26.265625 6.109375 33.40625 6.109375 
Q 40.53125 6.109375 44.609375 11.75 
Q 48.6875 17.390625 48.6875 27.296875 
z
" id="DejaVuSans-112"/>
      <path d="M 41.109375 46.296875 
Q 39.59375 47.171875 37.8125 47.578125 
Q 36.03125 48 33.890625 48 
Q 26.265625 48 22.1875 43.046875 
Q 18.109375 38.09375 18.109375 28.8125 
L 18.109375 0 
L 9.078125 0 
L 9.078125 54.6875 
L 18.109375 54.6875 
L 18.109375 46.1875 
Q 20.953125 51.171875 25.484375 53.578125 
Q 30.03125 56 36.53125 56 
Q 37.453125 56 38.578125 55.875 
Q 39.703125 55.765625 41.0625 55.515625 
z
" id="DejaVuSans-114"/>
     </defs>
     <g transform="translate(98.414062 68.667187)scale(0.1 -0.1)">
      <use xlink:href="#DejaVuSans-60"/>
      <use x="83.789062" xlink:href="#DejaVuSans-99"/>
      <use x="138.769531" xlink:href="#DejaVuSans-108"/>
      <use x="166.552734" xlink:href="#DejaVuSans-97"/>
      <use x="227.832031" xlink:href="#DejaVuSans-115"/>
      <use x="279.931641" xlink:href="#DejaVuSans-115"/>
      <use x="332.03125" xlink:href="#DejaVuSans-32"/>
      <use x="363.818359" xlink:href="#DejaVuSans-39"/>
      <use x="391.308594" xlink:href="#DejaVuSans-117"/>
      <use x="454.6875" xlink:href="#DejaVuSans-110"/>
      <use x="518.066406" xlink:href="#DejaVuSans-105"/>
      <use x="545.849609" xlink:href="#DejaVuSans-111"/>
      <use x="607.03125" xlink:href="#DejaVuSans-110"/>
      <use x="670.410156" xlink:href="#DejaVuSans-95"/>
      <use x="720.410156" xlink:href="#DejaVuSans-102"/>
      <use x="755.615234" xlink:href="#DejaVuSans-105"/>
      <use x="783.398438" xlink:href="#DejaVuSans-110"/>
      <use x="846.777344" xlink:href="#DejaVuSans-100"/>
      <use x="910.253906" xlink:href="#DejaVuSans-46"/>
      <use x="942.041016" xlink:href="#DejaVuSans-87"/>
      <use x="1035.042969" xlink:href="#DejaVuSans-101"/>
      <use x="1096.566406" xlink:href="#DejaVuSans-105"/>
      <use x="1124.349609" xlink:href="#DejaVuSans-103"/>
      <use x="1187.826172" xlink:href="#DejaVuSans-104"/>
      <use x="1251.205078" xlink:href="#DejaVuSans-116"/>
      <use x="1290.414062" xlink:href="#DejaVuSans-101"/>
      <use x="1351.9375" xlink:href="#DejaVuSans-100"/>
      <use x="1415.414062" xlink:href="#DejaVuSans-81"/>
      <use x="1494.125" xlink:href="#DejaVuSans-117"/>
      <use x="1557.503906" xlink:href="#DejaVuSans-105"/>
      <use x="1585.287109" xlink:href="#DejaVuSans-99"/>
      <use x="1640.267578" xlink:href="#DejaVuSans-107"/>
      <use x="1698.177734" xlink:href="#DejaVuSans-85"/>
      <use x="1771.371094" xlink:href="#DejaVuSans-110"/>
      <use x="1834.75" xlink:href="#DejaVuSans-105"/>
      <use x="1862.533203" xlink:href="#DejaVuSans-111"/>
      <use x="1923.714844" xlink:href="#DejaVuSans-110"/>
      <use x="1987.09375" xlink:href="#DejaVuSans-80"/>
      <use x="2042.896484" xlink:href="#DejaVuSans-97"/>
      <use x="2104.175781" xlink:href="#DejaVuSans-116"/>
      <use x="2143.384766" xlink:href="#DejaVuSans-104"/>
      <use x="2206.763672" xlink:href="#DejaVuSans-67"/>
      <use x="2276.587891" xlink:href="#DejaVuSans-111"/>
      <use x="2337.769531" xlink:href="#DejaVuSans-109"/>
      <use x="2435.181641" xlink:href="#DejaVuSans-112"/>
      <use x="2498.658203" xlink:href="#DejaVuSans-114"/>
      <use x="2537.521484" xlink:href="#DejaVuSans-101"/>
      <use x="2599.044922" xlink:href="#DejaVuSans-115"/>
      <use x="2651.144531" xlink:href="#DejaVuSans-115"/>
      <use x="2703.244141" xlink:href="#DejaVuSans-105"/>
      <use x="2731.027344" xlink:href="#DejaVuSans-111"/>
      <use x="2792.208984" xlink:href="#DejaVuSans-110"/>
      <use x="2855.587891" xlink:href="#DejaVuSans-85"/>
      <use x="2928.78125" xlink:href="#DejaVuSans-70"/>
      <use x="2986.300781" xlink:href="#DejaVuSans-39"/>
      <use x="3013.791016" xlink:href="#DejaVuSans-62"/>
     </g>
    </g>
   </g>
  </g>
 </g>
 <defs>
  <clipPath id="p046cdda494">
   <rect height="379.4" width="367.025" x="50.14375" y="7.2"/>
  </clipPath>
 </defs>
</svg>
